<svg width="15" height="15" viewBox="0 0 15 15" fill="none" xmlns="http://www.w3.org/2000/svg">
<path fill-rule="evenodd" clip-rule="evenodd" d="M8.32285 0.707159C8.26787 0.307804 7.92047 0 7.50011 0C7.04154 0 6.66979 0.366312 6.66979 0.818182V12.1999L1.41866 7.00469L1.3257 6.92528C1.00114 6.68696 0.539803 6.71243 0.244412 7.0023C-0.0805188 7.32116 -0.0816073 7.8392 0.241981 8.15938L6.90045 14.7477C6.93858 14.787 6.98063 14.8224 7.02599 14.8536C7.35024 15.0766 7.80006 15.0452 8.08894 14.7593L14.7581 8.15933L14.8383 8.0674C15.0787 7.74658 15.051 7.2921 14.7555 7.00225C14.4306 6.68342 13.9049 6.68454 13.5813 7.00474L8.32931 12.2023L8.32285 0.818182V0.707159Z" fill="#0060f0"/>
</svg>
