<svg width="18" height="18" viewBox="0 0 18 18" fill="none" xmlns="http://www.w3.org/2000/svg">
<path d="M9.00035 17.401C13.963 17.401 18 13.3636 18 8.40103C18 6.07766 17.0988 3.85559 15.5077 2.18805C15.5077 2.18805 15.7395 1.66677 16.0265 1.02372C16.3127 0.380668 15.9006 -0.0731044 15.1055 0.00976354L10.4486 0.497613C9.65341 0.580658 9.38927 1.1725 9.85881 1.81956L12.6098 5.60941C13.0798 6.25635 13.6594 6.33392 13.905 5.78227L14.35 4.78385C15.0664 5.84395 15.4668 7.09856 15.4668 8.40103C15.4668 11.9673 12.566 14.8677 9.00041 14.8677C5.43432 14.8677 2.5333 11.9669 2.5333 8.40103C2.5333 7.27772 2.82522 6.17171 3.37828 5.20302C3.725 4.59534 3.51365 3.82187 2.90597 3.47521C2.29811 3.1282 1.52499 3.33984 1.17798 3.94787C0.407454 5.29801 0 6.83783 0 8.40097C0 13.3636 4.03758 17.401 9.00035 17.401Z" fill="#BABABA"/>
</svg>
