<svg width="480" height="382" viewBox="0 0 480 382" fill="none" xmlns="http://www.w3.org/2000/svg">
<path d="M5.84564 271.733L189.348 377.771C193.933 380.42 199.133 381.814 204.427 381.814C209.72 381.814 214.921 380.42 219.505 377.771L473.293 231.168C475.145 230.095 476.682 228.554 477.751 226.699C478.82 224.844 479.382 222.741 479.382 220.6C479.382 218.459 478.82 216.355 477.751 214.501C476.682 212.646 475.145 211.105 473.293 210.032L284.912 100.606C282.504 99.2113 279.771 98.4771 276.988 98.4771C274.206 98.4771 271.473 99.2113 269.065 100.606L5.84564 252.703C4.18387 253.673 2.80524 255.063 1.8471 256.732C0.888955 258.401 0.384766 260.293 0.384766 262.218C0.384766 264.143 0.888955 266.035 1.8471 267.704C2.80524 269.374 4.18387 270.763 5.84564 271.733Z" fill="#FDEAE3"/>
<path d="M390.547 215.156L313.319 243.936C313.319 243.936 321.143 252.091 351.613 270.196L420.832 229.503" fill="url(#paint0_linear)"/>
<path d="M235.935 247.181L175.849 274.053C175.849 274.053 185.18 279.747 215.679 297.908L279.193 260.133" fill="url(#paint1_linear)"/>
<path d="M116.175 273.896L56.0889 300.755C56.0889 300.755 65.4205 306.448 95.9189 324.61L152.008 289.354" fill="url(#paint2_linear)"/>
<path d="M212.364 105.587C212.364 105.587 201.71 109.26 202.25 96.1365C202.791 83.0134 214.427 82.928 214.427 82.928C214.427 82.928 217.272 101.275 212.364 105.587Z" fill="#35406E"/>
<path d="M211.995 86.6998C211.927 86.2978 211.717 85.9333 211.404 85.6722C211.091 85.4112 210.695 85.2708 210.288 85.2765C210.116 85.1081 209.905 84.9858 209.674 84.9211C209.443 84.8564 209.199 84.8513 208.965 84.9064C208.915 84.8341 208.858 84.7673 208.794 84.7072C208.663 84.5856 208.515 84.4848 208.353 84.4083C210.032 83.4689 208.453 80.8499 206.646 81.7182L205.622 82.2163C206.276 80.8926 204.925 78.9996 203.531 80.0671C200.195 82.5815 196.644 84.7963 192.919 86.6856C191.37 87.4296 189.934 88.3879 188.652 89.5323C187.383 90.9967 186.236 92.5629 185.223 94.215C183.986 95.8376 186.745 97.4318 187.969 95.8234C188.865 94.642 189.548 93.2614 190.543 92.1512L190.842 92.2793L190.771 92.3505C189.349 93.8877 191.44 95.8376 193.019 94.5993L194.441 93.5034C193.91 94.1201 193.384 94.7464 192.862 95.3822C191.824 96.6632 193.189 99.0117 194.782 97.873L197.414 96.0084C196.38 97.3084 195.399 98.6558 194.47 100.051C194.257 100.322 194.159 100.666 194.196 101.009C194.233 101.352 194.403 101.667 194.669 101.887C193.912 102.092 193.133 102.202 192.35 102.214C190.302 102.214 186.93 104.762 188.979 104.748C193.474 104.748 199.79 101.645 202.99 98.6843C206.447 95.4676 210.103 92.8344 212.436 88.721C212.63 88.3904 212.693 87.9987 212.611 87.624C212.529 87.2493 212.309 86.9193 211.995 86.6998Z" fill="#EF986C"/>
<path d="M249.449 246.925C249.449 243.01 249.634 239.096 249.663 235.182L232.464 238.541C232.464 238.541 233.318 245.202 231.44 247.594C229.563 249.985 215.224 256.988 213.517 259.208C211.81 261.428 211.298 265.599 221.369 265.214C231.44 264.83 239.463 257.842 241.682 257.329C243.901 256.817 248.453 256.205 249.904 255.166C249.819 252.433 249.435 249.657 249.449 246.925Z" fill="#2A343D"/>
<path d="M278.752 251.878C278.752 247.964 278.937 244.049 278.966 240.135L261.682 243.509C261.682 243.509 262.536 250.17 260.658 252.561C258.78 254.952 244.442 261.955 242.735 264.175C241.028 266.396 240.515 270.566 250.587 270.182C260.658 269.798 268.681 262.809 270.9 262.297C273.119 261.784 277.671 261.172 279.122 260.133C279.065 257.386 278.752 254.611 278.752 251.878Z" fill="#2A343D"/>
<path d="M270.815 84.0384L262.095 85.6183C262.193 84.5252 262.217 83.4267 262.166 82.3304C260.345 82.2307 258.524 82.0599 256.718 81.8322C251.625 81.2059 247.429 76.1389 242.649 74.2031C240.587 84.0811 240.032 105.687 237.614 121.358C234.555 141.214 225.224 233.36 227.87 241.004C227.87 241.004 227.77 243.765 243.674 244.647C243.674 244.647 247.472 246.825 253.048 238.954L258.738 140.829L256.149 246.156C260.957 250.568 268.183 252.632 281.455 245.985L287.842 112.605L270.815 84.0384Z" fill="#35406E"/>
<path d="M257.813 77.8042C259.207 77.956 260.606 78.0746 262.01 78.16C260.928 59.4574 255.11 17.6683 242.664 74.2174C247.51 76.15 252.615 77.3585 257.813 77.8042Z" fill="#35406E"/>
<path d="M383.028 145.981L382.063 145.734C380.343 145.293 378.592 146.331 378.151 148.052L358.388 225.296C357.947 227.017 358.985 228.769 360.705 229.21L361.669 229.457C363.389 229.898 365.141 228.86 365.581 227.139L385.345 149.895C385.785 148.174 384.748 146.421 383.028 145.981Z" fill="#D37E6A"/>
<path d="M391.045 155.49H390.049C388.273 155.49 386.834 156.93 386.834 158.706V238.441C386.834 240.218 388.273 241.658 390.049 241.658H391.045C392.82 241.658 394.259 240.218 394.259 238.441V158.706C394.259 156.93 392.82 155.49 391.045 155.49Z" fill="#D37E6A"/>
<path d="M401.759 145.487L400.788 145.707C399.057 146.101 397.972 147.824 398.366 149.557L416.02 227.31C416.414 229.043 418.136 230.128 419.868 229.735L420.839 229.514C422.57 229.12 423.655 227.397 423.261 225.664L405.606 147.911C405.213 146.178 403.491 145.093 401.759 145.487Z" fill="#D37E6A"/>
<path d="M391.002 183.116C408.459 183.116 422.61 175.125 422.61 165.268C422.61 155.41 408.459 147.419 391.002 147.419C373.545 147.419 359.394 155.41 359.394 165.268C359.394 175.125 373.545 183.116 391.002 183.116Z" fill="#CE4823"/>
<path d="M359.394 165.268V156.956H422.596V165.268" fill="#CE4823"/>
<path d="M391.002 174.804C408.459 174.804 422.61 166.813 422.61 156.956C422.61 147.098 408.459 139.107 391.002 139.107C373.545 139.107 359.394 147.098 359.394 156.956C359.394 166.813 373.545 174.804 391.002 174.804Z" fill="#D66449"/>
<path d="M380.276 111.281C379.281 111.751 378.968 113.487 378.655 114.412C378.128 115.935 377.517 117.415 376.933 118.91C372.666 129.713 368.598 140.53 366.307 151.945C365.781 154.536 365.127 156.714 367.303 158.721C371.187 162.307 377.261 163.631 382.268 164.499C392.379 166.284 402.793 164.964 412.14 160.713C413.693 159.988 414.925 158.718 415.604 157.144C416.283 155.57 416.362 153.801 415.825 152.173C411.685 139.691 401.87 110.669 400.049 110.441C397.73 110.114 390.746 106.328 380.276 111.281Z" fill="#68E1FD"/>
<path d="M390.319 116.263C396.431 116.263 401.386 114.459 401.386 112.235C401.386 110.01 396.431 108.207 390.319 108.207C384.207 108.207 379.252 110.01 379.252 112.235C379.252 114.459 384.207 116.263 390.319 116.263Z" fill="#CE4823"/>
<path d="M385.269 111.423C384.152 108.368 382.821 105.395 381.286 102.527H381.471C384.046 101.574 383.42 96.9904 382.965 94.9551C382.916 94.7996 382.824 94.6613 382.699 94.5566C382.574 94.4519 382.422 94.3852 382.261 94.3642C382.099 94.3433 381.935 94.369 381.787 94.4384C381.64 94.5078 381.516 94.6179 381.429 94.7558C380.583 96.2581 379.956 97.8732 379.565 99.5524C379.262 99.0495 378.949 98.5466 378.626 98.0437V97.9583C378.854 97.2893 379.082 96.6204 379.295 95.9514C379.402 95.6435 379.493 95.3299 379.565 95.012C380.125 93.1252 380.351 91.1552 380.234 89.1906C380.222 89.0452 380.179 88.9042 380.106 88.7778C380.016 88.5998 379.869 88.457 379.688 88.3719C379.508 88.2869 379.305 88.2644 379.11 88.3081C377.887 88.5358 377.318 90.3008 377.005 91.3398C376.689 92.5009 376.513 93.6954 376.478 94.8981C375.739 93.8259 374.933 92.7584 374.06 91.6956V91.596C374.843 89.2475 376.137 85.5184 374.402 83.2837C374.298 83.1789 374.168 83.1038 374.025 83.0662C373.883 83.0287 373.733 83.0301 373.591 83.0702C372.424 83.3549 372.168 84.5647 372.168 85.618C372.116 86.9738 372.187 88.3317 372.382 89.6745C371.168 88.2796 369.892 86.9322 368.555 85.6322C367.787 84.8779 366.592 86.0592 367.374 86.8136C368.157 87.568 368.712 88.1515 369.366 88.8347C367.559 88.365 365.795 88.3793 365.226 89.888C363.946 93.2755 370.732 92.8201 372.666 92.5923C373.14 93.1806 373.614 93.7784 374.089 94.3857C373.479 94.3315 372.866 94.4551 372.325 94.7416C372.019 94.8574 371.751 95.054 371.548 95.3105C371.345 95.5669 371.215 95.8736 371.173 96.1979C371.131 96.5222 371.177 96.8519 371.307 97.1518C371.437 97.4518 371.647 97.7109 371.912 97.9014C372.623 98.2613 373.427 98.3954 374.217 98.2857H376.834C377.275 98.9689 377.716 99.709 378.128 100.378C377.584 100.19 377.007 100.115 376.432 100.157C375.858 100.198 375.298 100.356 374.786 100.62C374.534 100.766 374.322 100.971 374.167 101.217C374.013 101.463 373.92 101.743 373.898 102.033C373.875 102.323 373.924 102.614 374.039 102.881C374.154 103.148 374.332 103.383 374.558 103.566C375.838 104.634 378.257 104.107 379.736 103.908C379.845 103.894 379.952 103.86 380.049 103.808C381.422 106.425 382.62 109.131 383.634 111.907C384.018 112.875 385.639 112.448 385.269 111.423Z" fill="#1A7A23"/>
<path d="M369.366 87.1268C369.366 87.1268 368.64 78.3733 361.443 78.231C361.443 78.231 359.366 86.5574 369.366 87.1268Z" fill="#1A7A23"/>
<path d="M393.975 111.153C395.174 107.911 396.6 104.757 398.242 101.716H398.043C395.312 100.705 395.981 95.8377 396.45 93.6884C396.5 93.5227 396.596 93.3748 396.728 93.2626C396.859 93.1505 397.02 93.0788 397.192 93.0562C397.363 93.0336 397.538 93.0612 397.694 93.1355C397.85 93.2098 397.981 93.3277 398.072 93.4749C398.968 95.0663 399.634 96.7772 400.049 98.5562C400.371 98.0154 400.703 97.484 401.045 96.9621V96.8625C400.803 96.1508 400.561 95.4391 400.348 94.7275C400.235 94.4009 400.14 94.0683 400.063 93.7311C399.47 91.7337 399.229 89.6482 399.352 87.5681C399.366 87.4122 399.414 87.2614 399.494 87.1269C399.591 86.9363 399.748 86.7836 399.942 86.6933C400.135 86.6029 400.353 86.5802 400.561 86.6287C401.856 86.8707 402.467 88.7352 402.794 89.8454C403.128 91.0764 403.314 92.3425 403.349 93.6173C404.165 92.4881 405.009 91.3779 405.881 90.2867V90.187C405.042 87.6962 403.676 83.7536 405.526 81.3766C405.637 81.2644 405.776 81.1842 405.928 81.1441C406.081 81.1041 406.242 81.1057 406.393 81.1489C407.617 81.4478 407.901 82.743 407.958 83.8532C408.016 85.2801 407.945 86.7093 407.745 88.1232C409.034 86.6429 410.386 85.2196 411.799 83.8532C412.624 83.0561 413.876 84.3087 413.051 85.1057C412.226 85.9028 411.628 86.5291 410.945 87.255C412.866 86.7568 414.729 86.771 415.327 88.3794C416.678 91.9804 409.48 91.4965 407.446 91.2261C406.943 91.8523 406.469 92.4833 406.024 93.1191C406.672 93.0576 407.324 93.1861 407.901 93.4892C408.223 93.6134 408.506 93.8221 408.719 94.0934C408.932 94.3646 409.069 94.6884 409.114 95.0306C409.159 95.3729 409.111 95.7209 408.975 96.0383C408.84 96.3556 408.621 96.6305 408.342 96.834C407.592 97.2149 406.744 97.3589 405.91 97.2468H403.136C402.666 97.9727 402.197 98.6701 401.713 99.4672C402.291 99.271 402.902 99.1926 403.51 99.2366C404.119 99.2806 404.712 99.4461 405.255 99.7234C405.52 99.8792 405.742 100.096 405.905 100.357C406.067 100.617 406.164 100.913 406.188 101.219C406.212 101.525 406.161 101.832 406.041 102.114C405.921 102.397 405.734 102.646 405.497 102.84C404.075 103.979 401.571 103.41 400.006 103.211C399.886 103.195 399.771 103.156 399.665 103.097C398.207 105.856 396.933 108.709 395.853 111.637C395.269 112.69 393.548 112.234 393.975 111.153Z" fill="#1A7A23"/>
<path d="M410.803 85.3903C410.803 85.3903 411.571 76.1102 419.196 75.9536C419.21 75.9536 421.415 84.7498 410.803 85.3903Z" fill="#1A7A23"/>
<path d="M389.309 110.37C390.037 106.326 390.48 102.235 390.632 98.1291H390.874C394.288 98.7269 396.564 93.3182 397.318 90.8274C397.369 90.6256 397.36 90.4133 397.292 90.2167C397.224 90.02 397.1 89.8476 396.935 89.7205C396.77 89.5935 396.572 89.5174 396.364 89.5017C396.157 89.4859 395.95 89.5311 395.768 89.6318C393.892 90.7314 392.182 92.0924 390.689 93.6741C390.689 92.9245 390.689 92.1796 390.689 91.4394L390.789 91.3683C391.472 90.7847 392.14 90.2012 392.795 89.6034C393.104 89.3352 393.398 89.0501 393.676 88.7493C395.484 87.0481 396.981 85.0444 398.1 82.8283C398.184 82.66 398.227 82.4751 398.228 82.2874C398.247 82.0352 398.179 81.7843 398.037 81.5751C397.895 81.3659 397.687 81.2107 397.446 81.1345C396.024 80.6079 394.217 82.1593 393.179 83.0987C392.093 84.1633 391.138 85.353 390.334 86.6428C390.182 84.9918 389.983 83.3454 389.736 81.7039L389.85 81.6185C392.211 79.5546 395.967 76.3094 395.54 72.7796C395.494 72.5974 395.4 72.431 395.267 72.2982C395.134 72.1653 394.968 72.071 394.786 72.0252C393.364 71.5982 392.282 72.7653 391.557 73.8613C390.637 75.3048 389.852 76.8293 389.21 78.416C388.774 76.1196 388.243 73.8376 387.617 71.5697C387.545 71.2979 387.368 71.0658 387.125 70.9243C386.883 70.7828 386.594 70.7436 386.322 70.8154C386.05 70.8871 385.818 71.0638 385.677 71.3067C385.536 71.5496 385.497 71.8388 385.568 72.1106C385.881 73.2635 386.18 74.4164 386.436 75.5835C384.757 73.9182 382.837 72.808 381.244 74.1602C377.702 77.0069 385.383 80.8641 387.631 81.8319C387.773 82.7713 387.901 83.725 388.015 84.6786C387.386 84.2292 386.639 83.9721 385.867 83.9385C384.117 83.8673 382.567 85.3618 383.406 87.1125C383.936 87.958 384.71 88.623 385.625 89.0198L388.47 90.6566C388.47 91.6956 388.541 92.7204 388.555 93.7595C388.083 93.2068 387.505 92.7546 386.855 92.4294C386.205 92.1042 385.497 91.9128 384.772 91.8664C384.397 91.8547 384.026 91.9361 383.691 92.1033C383.356 92.2704 383.068 92.5182 382.852 92.8243C382.636 93.1305 382.5 93.4854 382.455 93.8573C382.41 94.2292 382.458 94.6064 382.595 94.9551C383.321 96.9335 386.294 97.8871 388.029 98.6273C388.16 98.6812 388.3 98.7101 388.442 98.7127C388.276 102.441 387.863 106.155 387.204 109.829C387.019 111.167 389.068 111.793 389.309 110.37Z" fill="#1A7A23"/>
<path d="M387.417 73.7618C387.417 73.7618 392.197 63.7985 384.444 59.0303C384.444 59.0161 376.905 66.7875 387.417 73.7618Z" fill="#1A7A23"/>
<path d="M280.545 159.347C280.545 159.347 278.795 148.401 289.578 144.074C300.36 139.747 300.133 158.222 300.133 158.222L305.538 156.101C305.538 156.101 308.696 136.588 289.763 137.94C270.829 139.292 273.759 161.254 273.759 161.254L280.545 159.347Z" fill="#CE4823"/>
<path d="M295.382 132.318L295.239 131.634C295.286 131.409 295.286 131.177 295.239 130.951L292.978 114.569C292.959 114.318 292.865 114.079 292.707 113.883C292.55 113.687 292.336 113.544 292.096 113.473C292.034 112.511 291.876 111.557 291.626 110.626C291.033 109.998 290.252 109.578 289.402 109.43C288.551 109.281 287.675 109.411 286.903 109.8C286.107 108.932 284.371 108.79 284.144 110.284C283.878 112.059 283.622 113.833 283.376 115.608H283.29L283.148 115.038C283.105 114.849 283.023 114.67 282.908 114.514C282.793 114.357 282.647 114.226 282.479 114.127C282.081 112.804 281.768 111.466 281.455 110.142C280.986 108.149 277.913 108.989 278.397 110.982C278.558 111.646 278.724 112.31 278.895 112.974C277.771 112.647 276.377 113.458 276.918 114.811C278.812 119.575 280 124.591 280.445 129.699C279.691 132.802 279.023 135.933 278.525 139.093C278.212 141.043 277.799 143.704 280.26 144.373C280.666 144.479 281.096 144.422 281.46 144.214C281.824 144.007 282.093 143.666 282.209 143.263C282.683 141.138 283.077 138.998 283.39 136.844C283.627 137.631 283.874 138.419 284.13 139.207C284.608 140.873 285.187 142.508 285.865 144.103C286.278 144.985 286.847 145.754 287.942 145.725C288.255 145.742 288.568 145.682 288.853 145.55C289.138 145.419 289.387 145.22 289.578 144.971C289.759 145.422 290.107 145.786 290.549 145.987C290.992 146.189 291.494 146.212 291.953 146.053C293.376 145.64 293.703 144.16 293.675 142.623C297.743 140.858 296.05 135.719 295.382 132.318Z" fill="#EF986C"/>
<path d="M294.855 106.1C293.861 95.4683 292.199 84.9099 289.877 74.4877C288.098 66.147 286.178 52.2837 283.105 44.2846C280.701 38.0504 274.57 35.9723 267.614 34.8763C260.571 33.6313 253.429 33.0357 246.277 33.0972C245.986 33.1098 245.695 33.0613 245.423 32.9548C240.762 33.7002 236.555 36.1813 233.645 39.9007C227.059 48.1987 226.035 52.9954 220.089 61.6777C214.776 69.4262 208.365 76.3595 201.056 82.2591C206.675 84.3229 210.572 90.002 212.151 95.7096C213.025 98.9648 213.098 102.383 212.365 105.673C221.682 95.3538 239.392 74.0038 239.392 74.0038L239.933 93.1903C249.705 101.659 265.538 99.396 272.92 97.745L277.188 125.415C284.841 128.389 294.969 124.959 294.969 124.959C294.969 124.959 295.951 119.067 294.855 106.1Z" fill="#68E1FD"/>
<path d="M264.129 172.683C264.135 170.981 264.568 169.306 265.388 167.814C266.208 166.322 267.39 165.06 268.824 164.143C280.204 156.913 308.142 139.32 309.991 141.014C312.295 143.149 316.918 183.031 315.14 184.383C313.803 185.394 285.524 199.712 271.669 206.715C270.877 207.113 269.997 207.303 269.112 207.264C268.227 207.226 267.366 206.962 266.612 206.497C265.858 206.032 265.235 205.381 264.803 204.607C264.371 203.833 264.144 202.962 264.144 202.075L264.129 172.683Z" fill="#CE4823"/>
<path d="M245.438 32.9121C245.438 32.9121 243.19 47.3732 256.263 47.3732C269.336 47.3732 270.018 35.6592 270.018 35.6592C262.012 33.501 253.723 32.5747 245.438 32.9121Z" fill="#F2F2F2"/>
<path d="M264.001 31.375C264.001 31.375 260.317 35.0757 256.974 35.3604C254.129 35.6023 250.772 32.0298 249.776 30.8911C249.711 34.3933 250.275 37.8787 251.44 41.1818C251.995 42.1212 252.536 42.7475 252.863 42.6051C254.157 42.0927 256.59 38.634 256.59 38.634C256.59 38.634 259.307 42.7759 260.459 42.6336C261.611 42.4913 265.381 35.8016 265.381 35.8016L264.001 31.375Z" fill="#35406E"/>
<path d="M272.195 7.0786C271.412 6.01666 270.284 5.26001 269.005 4.93807C267.725 4.61613 266.374 4.7489 265.182 5.31367C265.136 5.20974 265.073 5.1137 264.997 5.029C263.575 3.42063 262.849 1.72687 260.559 1.08637C258.452 0.592409 256.252 0.671035 254.186 1.3141C252.204 1.81039 250.497 3.06842 249.435 4.8155C249.265 4.71028 249.066 4.66055 248.866 4.67317C246.632 4.76945 244.525 5.73894 242.998 7.37319C241.472 9.00743 240.647 11.1759 240.701 13.4124C240.886 17.2697 243.93 21.5966 247.927 21.867C249.84 22.5519 251.877 22.8188 253.902 22.6499C254.332 22.6099 254.745 22.455 255.095 22.2013C255.446 21.9475 255.722 21.6043 255.895 21.2074C256.068 20.8105 256.131 20.3744 256.078 19.9446C256.026 19.5149 255.858 19.1072 255.594 18.7642L255.879 18.5791L256.106 18.6645C256.424 19.0492 256.877 19.2975 257.371 19.3584C257.866 19.4193 258.365 19.2881 258.767 18.9919L259.094 18.7926C259.586 18.6699 260.063 18.4933 260.516 18.266L261.071 18.451L260.886 19.0204C260.754 19.5023 260.785 20.0141 260.972 20.4771C261.16 20.94 261.494 21.3284 261.924 21.5824C262.372 21.7838 262.856 21.8904 263.347 21.8955C262.295 23.4168 260.914 24.6816 259.307 25.5962C257.131 26.6921 258.368 29.61 260.36 29.7808C259.392 30.5067 259.762 34.9332 260.9 34.2927C263.73 32.7424 266.204 30.617 268.164 28.053C270.124 25.489 271.526 22.5431 272.28 19.4047C272.892 16.4299 274.201 9.61213 272.195 7.0786Z" fill="#2A343D"/>
<path d="M246.163 16.0598C245.608 15.9602 245.58 34.7766 253.276 35.9865C262.991 37.5521 266.633 26.0231 266.633 26.0231C266.633 26.0231 268.055 17.4831 261.995 14.6365C255.936 11.7898 253.148 17.3123 246.163 16.0598Z" fill="#EF986C"/>
<path d="M246.163 16.0597C246.163 16.0597 253.816 17.4831 257.913 16.0597C262.01 14.6364 256.135 27.8165 259.151 27.8165C262.166 27.8165 261.996 20.6998 264.314 23.3614C266.633 26.0231 260.815 34.2926 260.815 34.2926C260.815 34.2926 269.065 30.1365 270.972 23.0056C272.878 15.8747 263.774 9.09963 255.054 9.8113C246.334 10.523 246.163 16.0597 246.163 16.0597Z" fill="#2A343D"/>
<path d="M202.251 96.1366L202.635 95.9942C204.541 95.3253 203.744 92.2793 201.795 92.9341L201.098 93.1476C201.199 92.8748 201.225 92.5799 201.173 92.2937C201.121 92.0076 200.993 91.7407 200.803 91.521C200.612 91.3013 200.366 91.1368 200.09 91.0449C199.815 90.9529 199.519 90.9369 199.235 90.9983C197.977 91.2473 196.74 91.5947 195.536 92.0374C194.982 92.1228 194.427 92.2793 193.872 92.4217C192.089 92.8866 190.33 93.4322 188.595 94.0585L188.68 93.9162C189.477 92.3647 192.435 90.2724 190.643 88.963C188.154 87.1553 183.118 94.4001 182.478 95.8661C181.178 98.6162 178.959 100.826 176.205 102.115C174.697 102.869 178.836 101.204 180.188 101.36C180.331 101.583 180.52 101.772 180.742 101.915C180.883 102.145 181.074 102.34 181.3 102.486C181.527 102.631 181.784 102.723 182.051 102.755C182.083 102.972 182.161 103.18 182.28 103.364C182.399 103.548 182.556 103.704 182.742 103.822C182.927 103.939 183.135 104.016 183.352 104.045C183.569 104.075 183.79 104.057 184 103.993L184.768 103.737C183.905 104.382 183.052 105.042 182.208 105.716C180.856 106.797 182.407 108.833 183.858 108.335C184.097 108.556 184.397 108.7 184.719 108.748C185.042 108.797 185.371 108.747 185.664 108.605C188.708 107.201 191.705 105.697 194.655 104.093C196.287 103.335 197.844 102.425 199.306 101.374C199.567 101.363 199.823 101.3 200.06 101.189C201.413 100.717 202.573 99.8117 203.36 98.6132C203.469 98.3798 203.526 98.1258 203.528 97.8683C203.53 97.6108 203.477 97.3559 203.372 97.1209C203.266 96.8859 203.112 96.6764 202.918 96.5065C202.725 96.3367 202.497 96.2105 202.251 96.1366Z" fill="#CE4823"/>
<path d="M191.752 90.4431C191.696 90.1588 191.566 89.8946 191.374 89.6773C191.183 89.46 190.937 89.2974 190.662 89.2062C190.388 89.115 190.093 89.0985 189.81 89.1582C189.527 89.218 189.264 89.3519 189.05 89.5464C186.885 91.3946 185.147 93.6918 183.957 96.2787C183.848 96.6845 183.903 97.117 184.111 97.4821C184.319 97.8473 184.662 98.1156 185.067 98.2287C188.31 98.9404 191.07 95.0404 192.592 92.6777C192.732 92.4868 192.823 92.2637 192.856 92.0288C192.888 91.7938 192.862 91.5545 192.778 91.3324C192.695 91.1104 192.557 90.9128 192.378 90.7574C192.199 90.6021 191.984 90.494 191.752 90.4431Z" fill="#EF986C"/>
<path d="M196.788 100.663C196.431 100.577 196.056 100.612 195.721 100.762C195.622 100.544 195.478 100.349 195.3 100.19C195.121 100.031 194.911 99.9106 194.683 99.8371C194.278 99.7354 193.849 99.794 193.486 100.001C193.123 100.208 192.853 100.547 192.734 100.947C192.45 101.678 192.184 102.409 191.938 103.139C191.842 102.962 191.711 102.807 191.551 102.684C191.392 102.562 191.209 102.474 191.013 102.428C190.608 102.326 190.179 102.384 189.816 102.591C189.453 102.798 189.183 103.137 189.064 103.538L188.566 105.445C188.499 105.835 188.579 106.237 188.791 106.571C189.004 106.905 189.333 107.149 189.715 107.253C190.096 107.358 190.503 107.317 190.856 107.138C191.21 106.959 191.483 106.655 191.625 106.285V106.185C191.801 106.401 192.03 106.568 192.29 106.671C192.55 106.773 192.831 106.808 193.108 106.771C193.384 106.733 193.647 106.626 193.87 106.459C194.094 106.292 194.271 106.07 194.384 105.815C194.572 106.017 194.814 106.161 195.081 106.228C195.486 106.33 195.915 106.271 196.278 106.064C196.641 105.857 196.911 105.518 197.03 105.118L197.869 102.598C197.975 102.198 197.922 101.773 197.72 101.412C197.519 101.05 197.184 100.782 196.788 100.663Z" fill="#EF986C"/>
<path d="M134.582 275.59C134.454 270.794 129.048 270.537 127.583 267.25C127.147 265.954 127.025 264.573 127.228 263.222C126.942 263.22 126.659 263.16 126.398 263.046C126.136 262.931 125.9 262.763 125.706 262.554C125.511 262.345 125.361 262.098 125.266 261.828C125.17 261.558 125.131 261.272 125.151 260.987C125.291 258.56 125.77 256.165 126.573 253.87L119.105 247.01C119.105 247.01 113.116 256.575 112.562 258.653C112.007 260.731 111.58 276.672 112.064 278.209C112.547 279.746 115.236 279.376 116.587 279.035C117.939 278.693 116.587 266.509 117.882 267.15C119.176 267.79 119.959 278.252 121.68 280.586C123.401 282.92 133.885 281.924 133.885 281.924C133.885 281.924 134.724 280.387 134.582 275.59Z" fill="#273238"/>
<path d="M126.958 261.4C125.649 252.362 128.736 236.221 128.736 236.221L116.374 237.16L114.397 255.251C114.632 255.55 114.775 255.911 114.809 256.29C114.801 256.37 114.801 256.452 114.809 256.532L115.037 256.916C115.834 257.827 118.01 257.941 118.992 258.468C121.154 259.649 121.623 261.613 121.837 263.819C122.349 267.819 122.349 273.925 133.217 272.274C133.259 272.274 128.266 270.424 126.958 261.4Z" fill="#CE4823"/>
<path d="M152.377 282.978C152.008 278.195 146.602 278.195 144.995 274.978C144.496 273.708 144.306 272.337 144.44 270.979C144.153 270.993 143.867 270.947 143.599 270.846C143.331 270.744 143.086 270.588 142.881 270.388C142.675 270.188 142.513 269.947 142.405 269.682C142.296 269.416 142.243 269.131 142.249 268.844C142.279 266.433 142.643 264.038 143.33 261.727L135.535 255.194C135.535 255.194 130.016 265.029 129.561 267.136C129.105 269.242 129.447 285.184 130.016 286.693C130.585 288.201 133.231 287.703 134.568 287.305C135.905 286.906 134.013 274.793 135.293 275.363C136.573 275.932 137.911 286.351 139.746 288.6C141.581 290.849 152.008 289.34 152.008 289.34C152.008 289.34 152.733 287.76 152.377 282.978Z" fill="#273238"/>
<path d="M144.07 269.171C142.335 260.218 144.625 243.936 144.625 243.936L132.32 245.473L131.211 263.649C131.462 263.933 131.625 264.284 131.68 264.659C131.673 264.735 131.673 264.811 131.68 264.887L131.936 265.257C132.776 266.125 134.952 266.14 135.962 266.68C138.181 267.748 138.807 269.698 139.035 271.89C139.746 275.861 140.03 281.967 150.813 279.775C150.884 279.747 145.806 278.124 144.07 269.171Z" fill="#CE4823"/>
<path d="M116.658 79.5405C116.658 79.5405 109.546 81.6328 106.232 99.1114C102.917 116.59 101.025 126.411 104.695 131.62C108.365 136.83 121.139 145.427 121.139 145.427L136.189 125.215" fill="#FACA66"/>
<path d="M120.016 121.358C120.016 121.358 102.946 85.6465 116.659 79.5404C130.371 73.4343 147.356 82.3871 150.187 91.411C153.018 100.435 148.892 127.549 148.892 127.549C148.892 127.549 130.812 128.062 120.016 121.358Z" fill="#FACA66"/>
<path d="M147.882 87.2266C147.882 87.2266 159.732 107.153 168.85 104.406C177.968 101.659 180.472 97.56 180.472 97.56C180.472 97.56 188.225 105.773 186.859 115.352C186.859 115.352 176.902 125.187 166.944 126.553C156.986 127.92 144.525 115.167 144.525 115.167" fill="#FACA66"/>
<path d="M115.407 248.12C128.779 254.995 136.432 261.684 151.197 258.268C155.379 257.258 159.12 197.435 159.135 194.375C159.234 174.69 161.88 162.136 156.901 143.05C156.204 140.388 152.25 125.6 149.248 125.215L120.03 121.344C120.03 121.344 114.34 131.307 114.056 152.799C113.885 167.132 115.891 181.366 116.204 195.67C116.204 203.98 115.361 212.269 113.686 220.408C112.918 224.578 111.509 229.218 110.514 233.787C109.916 237.293 109.559 240.836 109.447 244.391C111.33 245.793 113.323 247.04 115.407 248.12Z" fill="#BC3B1D"/>
<path d="M121.068 82.245C120.485 81.9318 117.626 76.5516 121.467 75.1283C125.307 73.705 137.925 75.0714 137.925 77.4484C137.925 79.8253 137.925 83.3267 137.925 83.3267C135.188 84.2964 132.283 84.7005 129.386 84.5146C126.488 84.3287 123.659 83.5565 121.068 82.245Z" fill="#E5572C"/>
<path d="M120.414 119.935C116.533 110.846 114.33 101.129 113.913 91.2545C113.913 90.2013 112.22 90.2013 112.277 91.2545C112.718 101.416 114.998 111.413 119.006 120.76C119.432 121.757 120.855 120.888 120.414 119.935Z" fill="#CE4823"/>
<path d="M106.445 67.5134C103.031 73.4345 111.068 85.3478 103.059 88.6784C101.228 89.2991 99.3027 89.5977 97.3693 89.5609C95.3628 89.5476 93.3761 89.9592 91.5398 90.7687C89.7035 91.5782 88.0592 92.7673 86.7148 94.2579C82.4473 99.3392 82.746 107.708 86.5868 112.989C90.9681 119.01 98.422 119.792 104.837 116.932C120.001 110.185 110.314 81.3482 121.737 73.6195L122.292 60.6387C122.292 60.6387 110.812 59.9697 106.445 67.5134Z" fill="#ED913E"/>
<path d="M142.008 57.2795C142.008 57.2795 141.709 75.9537 138.053 78.3022C134.397 80.6507 124.297 77.1635 123.828 71.9826C123.359 66.8016 142.008 57.2795 142.008 57.2795Z" fill="#CE4823"/>
<path d="M131.709 48.3269C131.709 48.3269 125.265 45.7934 115.891 51.1736C106.516 56.5538 109.589 73.9469 120.528 77.5053C131.467 81.0636 134.255 70.3886 136.318 66.1186C138.38 61.8486 142.008 60.2972 141.937 58.3045C141.866 56.3118 141.709 48.028 131.709 48.3269Z" fill="#ED913E"/>
<path d="M173.487 122.81C163.103 130.425 148.992 119.28 143.345 110.612C142.847 109.843 141.609 110.612 142.121 111.323C148.153 120.589 163.146 132.133 174.213 124.034C174.91 123.493 174.156 122.255 173.487 122.81Z" fill="#CE4823"/>
<defs>
<linearGradient id="paint0_linear" x1="423.919" y1="190.432" x2="343.595" y2="255.76" gradientUnits="userSpaceOnUse">
<stop stop-color="#E3965D"/>
<stop offset="1" stop-color="#FDEAE3"/>
</linearGradient>
<linearGradient id="paint1_linear" x1="24088.8" y1="8964.21" x2="21603.1" y2="13086.2" gradientUnits="userSpaceOnUse">
<stop stop-color="#E3965D"/>
<stop offset="1" stop-color="#FDEAE3"/>
</linearGradient>
<linearGradient id="paint2_linear" x1="13621" y1="10115.8" x2="11266.3" y2="13741.8" gradientUnits="userSpaceOnUse">
<stop stop-color="#D37E6A"/>
<stop offset="1" stop-color="#FDEAE3"/>
</linearGradient>
</defs>
</svg>
