<svg width="220" height="169" viewBox="0 0 220 169" fill="none" xmlns="http://www.w3.org/2000/svg">
<path fill-rule="evenodd" clip-rule="evenodd" d="M30.4937 152.195C-12.7921 142.111 -5.90859 74.5986 25.6499 58.2486C55.7478 42.6553 69.4891 56.2554 97.1366 49.4719C107.752 46.8672 119.556 40.6453 132.142 33.7197C160.451 18.1421 215.696 25.8266 218.647 74.6284C220.47 104.79 223.5 148 191.718 143.061C163.639 157.172 123.789 134.469 106.902 132.522C69.6429 128.228 70.4854 161.513 30.4937 152.195Z" fill="white"/>
<path d="M0 111H219V149C219 160.046 210.046 169 199 169H0V111Z" fill="white"/>
<path d="M216.171 110.626H0.2121C0.0951729 110.626 0 110.531 0 110.414C0 110.297 0.0951729 110.202 0.2121 110.202H216.171C216.288 110.202 216.383 110.297 216.383 110.414C216.382 110.531 216.288 110.626 216.171 110.626Z" fill="black"/>
<path fill-rule="evenodd" clip-rule="evenodd" d="M29.769 92.4861C28.9766 91.9194 28.4382 91.6524 27.9526 91.0041C27.6459 90.5946 27.0253 90.9383 26.7262 91.1227C26.8997 90.8589 27.4881 90.2716 27.0139 89.899C25.9904 89.0941 25.8098 88.1652 25.3117 87.7769C24.0233 86.773 22.2988 86.4652 20.7238 86.3009C20.1473 86.2406 19.8939 86.2014 19.3114 86.1808C19.219 86.1775 19.1276 86.1748 19.0384 86.172C18.5528 86.1557 18.1063 86.4358 17.9088 86.8801C17.712 87.3239 17.8039 87.8433 18.1411 88.1924C18.1601 88.2087 18.177 88.2251 18.1933 88.2397C19.8683 89.7163 19.4534 90.4325 20.3942 91.9743C21.0691 93.0805 21.8757 93.5613 23.0079 94.3259C23.9553 94.966 24.6591 95.7089 25.3291 96.8124C25.7729 97.5439 25.9588 98.724 26.2531 99.5137C26.7224 100.775 27.9972 100.357 28.8086 100.12C28.6047 100.305 27.2603 101.111 27.7291 101.995C28.0684 102.634 28.5454 102.968 29.1561 103.366C31.4337 104.854 34.0404 105.342 36.4725 106.484C36.504 106.498 36.5415 106.517 36.5856 106.539C37.1447 106.813 37.8185 106.662 38.2084 106.176C38.5978 105.691 38.5989 105.001 38.2106 104.514C36.461 102.311 33.9719 101.198 32.8548 96.77C32.3436 94.7409 30.8371 93.2497 29.769 92.4861Z" fill="black"/>
<path d="M43.0846 122.63C43.0666 122.63 43.0487 122.628 43.0308 122.623C42.9176 122.593 42.8497 122.477 42.8796 122.364C43.9651 118.232 43.3739 116.844 42.6898 115.238C42.3064 114.339 41.9104 113.409 41.7451 111.938C41.1012 106.194 39.9896 104.847 38.8127 103.422C37.9094 102.328 36.9756 101.196 36.2294 98.0937C35.8096 96.3474 35.7552 95.2042 35.7117 94.2862C35.641 92.7928 35.6018 91.97 34.0111 90.097C33.9355 90.0078 33.9464 89.874 34.0356 89.7984C34.1247 89.7228 34.2585 89.7337 34.3341 89.8229C36.0184 91.8063 36.0625 92.7325 36.1353 94.2667C36.1783 95.1673 36.2316 96.2881 36.6417 97.9953C37.365 101.003 38.2672 102.096 39.1401 103.153C40.3583 104.628 41.5085 106.022 42.1666 111.891C42.3248 113.301 42.7088 114.202 43.0797 115.073C43.7649 116.681 44.4121 118.2 43.2896 122.473C43.2641 122.567 43.1781 122.63 43.0846 122.63Z" fill="black"/>
<path fill-rule="evenodd" clip-rule="evenodd" d="M47.4772 101.16C46.6571 100.319 47.4027 99.0329 48.3354 98.5706C49.2871 98.0991 50.7327 97.5341 52.2631 97.5852C53.2686 97.6189 54.1208 98.0703 55.1792 98.6114C55.7344 98.8953 56.9255 99.1515 57.3089 99.623C57.6118 99.995 56.9423 100.497 56.7998 100.818C57.3051 100.345 57.6803 99.8487 58.0654 99.9395C58.9779 100.156 59.8579 100.038 60.5252 100.466C62.1262 101.493 62.0338 103.895 62.9812 105.37C63.3765 105.985 63.7687 107.355 62.9882 107.63C62.2687 107.883 61.0315 106.137 59.5887 105.561C57.4693 104.716 55.3037 105.705 53.8565 103.944C53.5498 103.572 53.0723 103.493 52.8428 103.17C52.572 102.789 52.932 102.375 53.0875 102.137C52.7634 102.361 52.3729 103.079 51.7143 102.881C50.5576 102.532 49.5743 103.263 48.6878 103.267C47.7698 103.271 47.0628 102.695 47.4772 101.16Z" fill="black"/>
<path fill-rule="evenodd" clip-rule="evenodd" d="M44.218 94.873C44.0608 95.5191 43.5724 96.0341 42.935 96.225C42.2976 96.4159 41.607 96.2549 41.1202 95.8014C41.105 95.7878 41.0903 95.7736 41.0756 95.7595C37.9099 92.7825 39.3261 88.5313 38.0524 84.8375C37.4112 82.9781 35.8705 81.8724 34.4853 80.565C33.2045 79.356 30.8546 77.762 31.399 75.963C32.1054 73.6293 35.0444 75.0265 37.272 73.0382C35.6703 73.9992 32.1647 74.0987 30.9628 72.6401C29.4939 70.8568 31.6802 69.1785 32.4666 67.1201C33.9164 63.3229 33.2421 58.6763 32.4894 56.4536C32.348 56.0365 32.2262 55.6373 32.1218 55.2555C31.7993 54.0602 32.4595 52.8202 33.6309 52.4199C34.8024 52.0197 36.0837 52.5967 36.5595 53.7393C36.5606 53.7387 36.5606 53.7393 36.5606 53.7393C37.216 55.311 38.0682 56.6304 38.9775 58.0808C40.4714 60.4634 42.407 62.3647 42.9611 65.234C43.393 67.4676 43.4006 69.7653 43.406 72.0397C43.4087 73.1948 42.5353 73.21 42.1715 73.3966C42.5288 73.4118 43.4849 73.3944 43.6464 74.1204C44.1135 76.2213 45.0734 78.0807 45.905 80.0391C48.0836 85.1681 45.7434 89.3313 44.3849 94.2395C44.33 94.4407 44.2723 94.6533 44.218 94.873Z" fill="black"/>
<path fill-rule="evenodd" clip-rule="evenodd" d="M21.6233 76.4269C21.5581 76.0973 21.6625 75.7569 21.9007 75.5203C22.1394 75.2837 22.4804 75.1826 22.8089 75.2506C24.8097 75.6639 25.0474 77.6413 26.3591 78.7747C27.0194 79.3452 27.9232 79.4132 28.7994 79.5959C29.6712 79.7775 30.3651 80.2784 30.8937 80.9577C31.4441 81.6652 30.8605 82.2852 30.3934 82.7339C30.9884 82.4358 31.6013 82.2678 31.9553 82.7219C32.503 83.424 32.5187 84.1925 32.6558 85.3683C32.7999 86.605 33.8604 87.4316 34.488 88.4703C34.8399 89.0528 35.4533 90.0339 34.9998 90.7431C34.562 91.4278 33.4955 90.9655 33.2372 90.7023C32.6493 90.103 32.2077 89.4221 31.5121 89.0729C30.3695 88.4992 28.9984 88.497 28.1718 87.5154C27.3299 86.5158 26.8916 85.2448 26.066 84.2333C25.4683 83.5012 24.633 83.033 23.8683 82.469C21.8664 80.9914 22.0541 78.8318 21.6571 76.6129C21.6473 76.5525 21.6358 76.4905 21.6233 76.4269Z" fill="black"/>
<path d="M33.7931 89.372C33.7278 89.372 33.6631 89.3421 33.6218 89.285C33.2008 88.7091 32.6336 88.1636 31.9821 87.7079C31.3066 87.2353 30.5289 86.4853 30.002 85.9627C29.4238 85.3889 29.1568 84.6939 28.8985 84.0222C28.6701 83.4278 28.4542 82.8666 28.0376 82.3679C27.509 81.7354 26.8047 81.3248 26.0591 80.8891C25.3227 80.4595 24.5613 80.0146 23.9859 79.3381C23.9103 79.2489 23.9212 79.1151 24.0104 79.0395C24.0996 78.9639 24.2334 78.9748 24.309 79.064C24.8371 79.6856 25.5343 80.093 26.2723 80.5237C27.0168 80.9582 27.7863 81.4074 28.3623 82.0965C28.824 82.649 29.0627 83.2701 29.2933 83.8705C29.5468 84.5296 29.786 85.1523 30.2994 85.6625C30.815 86.1742 31.5753 86.9073 32.2241 87.3614C32.9132 87.8438 33.5146 88.423 33.9628 89.0359C34.0318 89.1306 34.0112 89.2633 33.9166 89.3323C33.8801 89.359 33.8366 89.372 33.7931 89.372Z" fill="white"/>
<path fill-rule="evenodd" clip-rule="evenodd" d="M47.9912 64.8843C47.3984 63.0902 49.2241 61.9345 50.1274 60.2078C51.4702 57.6408 53.2746 55.5302 55.76 54.2065C56.4937 53.8154 57.6385 53.2694 58.7196 52.6288C59.3527 52.2502 60.1505 52.2851 60.7482 52.7174C61.3458 53.1492 61.6292 53.8959 61.4688 54.6154C61.4709 54.616 61.4709 54.616 61.4709 54.616C60.492 59.0059 60.8809 60.6032 60.6546 62.4876C60.3805 64.7668 59.3032 67.3131 58.4433 69.4461C57.6858 71.3262 56.6916 73.116 56.2984 75.1336C55.9542 76.9017 57.6455 78.1705 56.6579 80.0293C55.4272 82.3445 51.7388 81.2285 50.4999 80.7004C52.7346 82.2754 54.7702 81.582 55.5283 83.0237C56.1782 84.2588 55.8873 85.8702 54.8572 87.4925C52.2707 91.567 50.6832 93.21 47.741 96.9647C45.0947 100.341 46.1742 102.067 44.8157 103.386C43.2885 104.868 41.0425 104.694 40.4486 102.13C39.9396 99.9324 44.6487 93.1447 45.0196 89.3688C45.4677 84.8114 43.6812 80.9256 43.7263 76.6227C43.7503 74.3505 44.5106 72.843 45.6945 70.8378C46.37 69.6935 46.4695 68.6608 46.9584 67.8243C47.8161 66.3565 49.3486 66.6861 51.7312 66.6736C50.3167 66.0775 48.6237 66.797 47.9912 64.8843Z" fill="black"/>
<path d="M42.1111 97.4585L41.7272 97.2785L41.8174 97.0865C41.9708 96.7596 42.1285 96.4268 42.2884 96.0912C43.4403 93.6662 44.6308 91.1586 44.8091 89.3481C45.0539 86.8589 44.6166 84.5318 44.1935 82.2814C43.8498 80.4546 43.4947 78.5653 43.5153 76.6199C43.5262 75.5649 43.691 74.6295 44.0336 73.6756L44.1054 73.476L44.5046 73.6196L44.4328 73.8191C44.107 74.7268 43.9499 75.6182 43.9395 76.6243C43.9194 78.5278 44.2707 80.3959 44.6106 82.2025C45.0392 84.4823 45.4824 86.8393 45.2317 89.3889C45.0463 91.2728 43.8395 93.8142 42.6724 96.2724C42.513 96.6079 42.3553 96.9396 42.2025 97.266L42.1111 97.4585Z" fill="white"/>
<path d="M39.5969 123.102C39.5094 123.102 39.4278 123.047 39.3968 122.96C39.0221 121.893 39.1863 120.729 39.3457 119.602C39.3886 119.298 39.4294 119.011 39.4582 118.73C39.4833 118.489 39.5181 118.25 39.5545 117.997C39.7013 116.983 39.8683 115.834 39.4517 114.098C39.0988 112.628 39.1336 111.465 39.1646 110.44C39.2108 108.905 39.244 107.797 37.9855 106.474C37.905 106.39 37.9083 106.255 37.9931 106.175C38.078 106.094 38.2123 106.097 38.2928 106.182C39.6731 107.633 39.6339 108.94 39.5888 110.453C39.5588 111.452 39.5246 112.584 39.8645 114C40.3001 115.814 40.1272 117.006 39.9749 118.058C39.939 118.307 39.9047 118.542 39.8803 118.775C39.8503 119.064 39.809 119.354 39.7655 119.663C39.6132 120.738 39.4561 121.851 39.7965 122.821C39.8351 122.931 39.7775 123.052 39.6665 123.091C39.6442 123.099 39.6203 123.102 39.5969 123.102ZM41.217 122.433C41.2159 122.433 41.2143 122.433 41.2132 122.433C41.0963 122.431 41.0033 122.334 41.0055 122.217C41.0207 121.411 41.1382 120.503 41.2518 119.626C41.3584 118.804 41.4677 117.961 41.4982 117.176C40.987 118.528 40.6803 119.994 40.8597 121.694C40.8722 121.81 40.7874 121.915 40.671 121.927C40.5552 121.939 40.4502 121.855 40.4377 121.738C40.2071 119.554 40.7363 117.759 41.4824 116.106C41.3981 114.714 41.1904 113.862 41.0055 113.105C40.801 112.268 40.6248 111.546 40.7183 110.399C40.7743 109.71 40.9424 109.277 41.1371 108.775C41.3524 108.219 41.5966 107.589 41.7544 106.41C41.8593 105.624 41.8724 104.891 41.8849 104.183C41.9055 103.01 41.9235 101.997 42.3645 101.166C42.4195 101.063 42.5478 101.024 42.6512 101.078C42.7545 101.133 42.7942 101.262 42.7393 101.365C42.3461 102.106 42.3287 103.072 42.3091 104.19C42.2971 104.878 42.283 105.657 42.1747 106.467C42.0105 107.696 41.7565 108.351 41.5325 108.928C41.3497 109.399 41.192 109.806 41.1409 110.434C41.0528 111.511 41.2138 112.171 41.4172 113.005C41.564 113.606 41.738 114.32 41.8446 115.343C42.0676 114.894 42.3004 114.453 42.5321 114.015C43.1906 112.768 43.8128 111.59 44.1919 110.285C44.3964 109.58 44.5475 108.679 44.7074 107.725C45.1811 104.898 45.7712 101.379 48.2549 100.549C48.3659 100.512 48.4861 100.571 48.5231 100.682C48.56 100.793 48.5002 100.914 48.3893 100.951C46.147 101.7 45.5808 105.079 45.1257 107.795C44.9636 108.762 44.8108 109.675 44.5992 110.403C44.2082 111.751 43.5469 113.003 42.9073 114.213C42.5658 114.86 42.2204 115.513 41.9115 116.189C41.9148 116.248 41.9181 116.308 41.9208 116.369C41.9681 117.395 41.8174 118.558 41.6717 119.682C41.5542 120.588 41.4433 121.443 41.4286 122.226C41.427 122.34 41.3323 122.433 41.217 122.433Z" fill="black"/>
<path d="M59.4946 102.869C59.4473 102.869 59.3994 102.853 59.3597 102.82C58.5847 102.182 57.6107 101.96 56.5796 101.725C55.9416 101.579 55.282 101.429 54.6761 101.17C54.3509 101.032 54.0262 100.866 53.7119 100.706C52.9342 100.311 52.1304 99.902 51.2602 99.8623C50.8159 99.8427 50.2198 100.092 49.6428 100.334C49.1751 100.53 48.7335 100.715 48.3626 100.762C48.2468 100.776 48.1402 100.694 48.1255 100.578C48.1108 100.462 48.1929 100.356 48.3093 100.341C48.6231 100.301 49.0386 100.127 49.4786 99.9422C50.0986 99.6823 50.7387 99.4141 51.2793 99.4381C52.2402 99.4821 53.0859 99.9118 53.9039 100.328C54.2258 100.491 54.5304 100.646 54.8425 100.78C55.413 101.023 56.0542 101.17 56.6742 101.311C57.708 101.547 58.7767 101.791 59.6295 102.492C59.7197 102.567 59.7328 102.7 59.6583 102.791C59.6164 102.843 59.5555 102.869 59.4946 102.869ZM45.9338 93.9376C45.8827 93.9376 45.831 93.9191 45.7902 93.8816C45.7037 93.8022 45.6983 93.6684 45.7772 93.5819C49.1387 89.9213 48.6133 84.3034 48.4159 82.1884L48.4067 82.0894C48.2767 80.6906 48.4942 79.3163 49.0353 78.1144C49.5651 76.9386 50.0512 76.2121 50.5217 75.5094C51.1014 74.6431 51.6491 73.8251 52.1543 72.2561C52.5954 70.8862 52.6704 69.4586 52.7427 68.0783C52.7988 67.014 52.8564 65.9133 53.0788 64.8288C53.5955 62.3114 54.9567 60.4944 56.3979 58.5708C56.5964 58.306 56.7966 58.0389 56.9962 57.7676C57.0658 57.6735 57.1985 57.6528 57.2926 57.7224C57.3866 57.792 57.4073 57.9247 57.3377 58.0188C57.1376 58.2913 56.9363 58.5588 56.7373 58.8248C55.3255 60.7098 53.992 62.4898 53.4943 64.9142C53.2784 65.9671 53.2213 67.0515 53.1664 68.1006C53.0924 69.5086 53.0163 70.964 52.5584 72.3867C52.0347 74.0117 51.4712 74.8541 50.8741 75.7454C50.4135 76.4334 49.937 77.1453 49.422 78.2885C48.9108 79.4235 48.7058 80.7238 48.8292 82.0497L48.8385 82.1481C49.0408 84.3143 49.5786 90.0687 46.0899 93.868C46.048 93.9148 45.9909 93.9376 45.9338 93.9376ZM42.0029 85.9893C41.998 85.9893 41.9936 85.9893 41.9887 85.9888C41.8718 85.9812 41.7837 85.88 41.7913 85.7631C41.9039 84.0766 41.9164 81.9083 41.012 80.1006C40.6618 79.4012 40.1989 78.7317 39.7508 78.0845C39.0688 77.0985 38.3629 76.0794 38.0056 74.8949C37.4563 73.0746 37.5836 71.1701 37.7065 69.3286C37.769 68.3899 37.8338 67.4186 37.8082 66.4723C37.756 64.5732 37.2557 62.4288 36.3213 60.0974C36.1647 59.7069 35.9586 59.2582 35.7405 58.7829C35.3571 57.947 34.922 56.9996 34.581 56.0001C34.5435 55.8891 34.6022 55.7689 34.7132 55.7308C34.8241 55.6928 34.9443 55.7521 34.9824 55.863C35.3163 56.8425 35.7465 57.7795 36.1261 58.6062C36.3463 59.0864 36.5546 59.5399 36.7151 59.9397C37.6684 62.3174 38.1786 64.5112 38.2324 66.4609C38.2591 67.4273 38.1932 68.4084 38.1302 69.3574C38.004 71.244 37.8849 73.0262 38.4119 74.773C38.7501 75.8934 39.4359 76.8848 40.0994 77.8441C40.5557 78.5033 41.0278 79.1853 41.3911 79.9118C42.3412 81.811 42.3303 84.0521 42.2139 85.7924C42.2068 85.9034 42.1138 85.9893 42.0029 85.9893Z" fill="white"/>
<path fill-rule="evenodd" clip-rule="evenodd" d="M55.3298 121.033H28.0424L34.8644 148.06H48.5078L55.3298 121.033Z" fill="#FFA500"/>
<path fill-rule="evenodd" clip-rule="evenodd" d="M55.5756 120.421H27.7965V128.954H55.5756V120.421Z" fill="#FFA500"/>
<path d="M48.6139 129.166H44.6373C44.5204 129.166 44.4252 129.071 44.4252 128.954C44.4252 128.837 44.5204 128.742 44.6373 128.742H48.6139C48.7308 128.742 48.826 128.837 48.826 128.954C48.826 129.071 48.7308 129.166 48.6139 129.166ZM42.0274 129.166H27.7966C27.6796 129.166 27.5845 129.071 27.5845 128.954C27.5845 128.837 27.6796 128.742 27.7966 128.742H42.0274C42.1443 128.742 42.2395 128.837 42.2395 128.954C42.2395 129.071 42.1443 129.166 42.0274 129.166Z" fill="white"/>
<path d="M36.0902 104.671C36.0483 104.671 36.0059 104.659 35.9689 104.633C35.1646 104.072 34.4239 103.655 33.7702 103.287C32.3339 102.478 31.1994 101.839 30.3695 100.267C30.0497 99.6621 29.8474 99.0122 29.6516 98.3836C29.3694 97.477 29.1029 96.621 28.5139 95.8944C28.1169 95.4044 27.6312 94.9758 27.1619 94.5614C26.6229 94.0861 26.066 93.5945 25.6201 92.9951C25.3172 92.5883 25.086 92.1293 24.862 91.6856C24.5215 91.0101 24.2001 90.3722 23.6497 89.9099C23.1657 89.5036 22.6251 89.2981 22.053 89.08C21.3716 88.8206 20.6667 88.5525 20.0897 87.9216C20.0109 87.8351 20.0168 87.7013 20.1033 87.6219C20.1898 87.5431 20.3236 87.5491 20.403 87.6355C20.9115 88.1919 21.5391 88.4312 22.2042 88.6841C22.7839 88.9049 23.3832 89.1333 23.9227 89.5852C24.54 90.103 24.8962 90.8105 25.241 91.4947C25.4564 91.9221 25.6794 92.3643 25.9605 92.7417C26.3804 93.3051 26.9204 93.7821 27.4431 94.2433C27.9254 94.6691 28.4247 95.1096 28.844 95.6273C29.4841 96.417 29.7751 97.353 30.0568 98.2574C30.2466 98.8676 30.4429 99.4984 30.7447 100.069C31.5165 101.53 32.5492 102.112 33.9784 102.917C34.6403 103.29 35.3903 103.713 36.2115 104.285C36.3077 104.352 36.3311 104.484 36.2642 104.581C36.2229 104.64 36.1571 104.671 36.0902 104.671Z" fill="white"/>
<path fill-rule="evenodd" clip-rule="evenodd" d="M101.395 29.6589H28.6748V35.3328H101.395V29.6589Z" fill="white"/>
<path d="M101.395 35.5449H28.6749C28.5579 35.5449 28.4628 35.4498 28.4628 35.3328V29.6589C28.4628 29.542 28.5579 29.4468 28.6749 29.4468H101.396C101.513 29.4468 101.608 29.542 101.608 29.6589V35.3328C101.607 35.4498 101.513 35.5449 101.395 35.5449ZM28.887 35.1207H101.184V29.871H28.887V35.1207Z" fill="black"/>
<path fill-rule="evenodd" clip-rule="evenodd" d="M36.5122 35.4019H33.1947C33.1947 35.4019 33.1947 38.1809 33.1947 40.0496C33.1947 40.4896 33.3693 40.9116 33.6804 41.2227C33.9914 41.5337 34.4135 41.7083 34.8534 41.7083C35.2934 41.7083 35.7154 41.5337 36.0265 41.2227C36.3376 40.9116 36.5122 40.4896 36.5122 40.0496C36.5122 38.1815 36.5122 35.4019 36.5122 35.4019Z" fill="black"/>
<path fill-rule="evenodd" clip-rule="evenodd" d="M34.8377 39.2219C35.127 39.2219 35.3625 39.4568 35.3625 39.7467C35.3625 40.036 35.1275 40.2715 34.8377 40.2715C34.5484 40.2715 34.3129 40.0365 34.3129 39.7467C34.3129 39.4573 34.5478 39.2219 34.8377 39.2219Z" fill="white"/>
<path fill-rule="evenodd" clip-rule="evenodd" d="M96.8752 35.4862H93.5577C93.5577 35.4862 93.5577 38.2652 93.5577 40.1339C93.5577 40.5739 93.7323 40.9959 94.0434 41.307C94.3545 41.618 94.7765 41.7926 95.2165 41.7926C95.6564 41.7926 96.0785 41.618 96.3895 41.307C96.7006 40.9959 96.8752 40.5739 96.8752 40.1339C96.8752 38.2658 96.8752 35.4862 96.8752 35.4862Z" fill="black"/>
<path fill-rule="evenodd" clip-rule="evenodd" d="M95.2007 39.3067C95.49 39.3067 95.7255 39.5416 95.7255 39.8315C95.7255 40.1208 95.4906 40.3563 95.2007 40.3563C94.9114 40.3563 94.6759 40.1214 94.6759 39.8315C94.6759 39.5416 94.9114 39.3067 95.2007 39.3067Z" fill="white"/>
<path fill-rule="evenodd" clip-rule="evenodd" d="M36.9663 29.6241H33.4786V10.4405H36.9663V29.6241Z" fill="white"/>
<path fill-rule="evenodd" clip-rule="evenodd" d="M36.9663 29.6241H41.3024V6.6825H36.9663V29.6241Z" fill="white"/>
<path fill-rule="evenodd" clip-rule="evenodd" d="M45.614 29.6241H41.3024V6.6825H45.614V29.6241Z" fill="white"/>
<path fill-rule="evenodd" clip-rule="evenodd" d="M51.7709 28.8594L49.0484 29.3723L45.6738 11.4542L48.3963 10.9419L51.7709 28.8594Z" fill="white"/>
<path fill-rule="evenodd" clip-rule="evenodd" d="M55.8138 28.8817L54.1659 29.4153L48.8167 12.9008L50.4645 12.3668L55.8138 28.8817Z" fill="white"/>
<path fill-rule="evenodd" clip-rule="evenodd" d="M36.9663 13.8814H41.3024V11.4227H36.9663V13.8814Z" fill="#FFA500"/>
<path fill-rule="evenodd" clip-rule="evenodd" d="M49.4493 16.5332L46.7273 17.046L46.5239 15.9665L49.2464 15.4536L49.4493 16.5332Z" fill="#FFA500"/>
<path d="M36.9664 29.8362H33.4787C33.3618 29.8362 33.2666 29.741 33.2666 29.6241V10.4405C33.2666 10.3236 33.3618 10.2284 33.4787 10.2284H36.9664C37.0833 10.2284 37.1785 10.3236 37.1785 10.4405V29.6241C37.1785 29.741 37.0838 29.8362 36.9664 29.8362ZM33.6908 29.412H36.7548V10.6526H33.6908V29.412Z" fill="black"/>
<path d="M41.3025 29.8362H36.9664C36.8494 29.8362 36.7543 29.741 36.7543 29.6241V6.6825C36.7543 6.56557 36.8494 6.4704 36.9664 6.4704H41.3025C41.4194 6.4704 41.5145 6.56557 41.5145 6.6825V29.6241C41.5145 29.741 41.4194 29.8362 41.3025 29.8362ZM37.1785 29.412H41.0904V6.8946H37.1785V29.412Z" fill="black"/>
<path d="M45.614 29.8362H41.3024C41.1855 29.8362 41.0903 29.741 41.0903 29.6241V6.6825C41.0903 6.56557 41.1855 6.4704 41.3024 6.4704H45.614C45.731 6.4704 45.8261 6.56557 45.8261 6.6825V29.6241C45.8261 29.741 45.7315 29.8362 45.614 29.8362ZM41.5145 29.412H45.4025V6.8946H41.5145V29.412Z" fill="black"/>
<path d="M49.0484 29.5844C49.006 29.5844 48.9641 29.5719 48.9287 29.5474C48.8825 29.5159 48.8504 29.4669 48.8401 29.4114L45.4655 11.4934C45.4552 11.4379 45.4672 11.3808 45.4987 11.3346C45.5303 11.2883 45.5792 11.2562 45.6347 11.2459L48.3572 10.7331C48.4719 10.7113 48.5829 10.7869 48.6046 10.9022L51.9792 28.8203C52.0009 28.9356 51.9253 29.046 51.81 29.0677L49.0875 29.5806C49.075 29.5833 49.062 29.5844 49.0484 29.5844ZM45.9213 11.6233L49.2175 29.1248L51.5234 28.6903L48.2272 11.1888L45.9213 11.6233Z" fill="black"/>
<path d="M54.1659 29.6273C54.0768 29.6273 53.9935 29.5702 53.9642 29.4805L48.6149 12.9656C48.579 12.8541 48.6399 12.7344 48.7514 12.6985L50.3993 12.1645C50.4526 12.1471 50.5108 12.152 50.5608 12.1775C50.6108 12.2031 50.6489 12.2477 50.6663 12.301L56.0156 28.8159C56.033 28.8692 56.0281 28.9274 56.0025 28.9775C55.9769 29.0275 55.9324 29.0656 55.8791 29.083L54.2312 29.6165C54.2094 29.6241 54.1877 29.6273 54.1659 29.6273ZM49.0837 13.0368L54.3024 29.1482L55.5468 28.7452L50.3286 12.6338L49.0837 13.0368Z" fill="black"/>
<path fill-rule="evenodd" clip-rule="evenodd" d="M98.596 14.1528H80.6475V29.6241H98.596V14.1528Z" fill="white"/>
<path d="M98.5959 29.8362H80.6474C80.5305 29.8362 80.4353 29.741 80.4353 29.6241V14.1528C80.4353 14.0358 80.5305 13.9407 80.6474 13.9407H98.5959C98.7129 13.9407 98.808 14.0358 98.808 14.1528V29.6235C98.808 29.741 98.7129 29.8362 98.5959 29.8362ZM80.859 29.412H98.3838V14.3649H80.859V29.412Z" fill="black"/>
<path fill-rule="evenodd" clip-rule="evenodd" d="M92.9443 16.9112C92.9443 16.3173 92.463 15.836 91.8691 15.836C90.6318 15.836 88.6109 15.836 87.3736 15.836C86.7798 15.836 86.2985 16.3173 86.2985 16.9112C86.2985 17.505 86.7798 17.9863 87.3736 17.9863C88.6109 17.9863 90.6318 17.9863 91.8691 17.9863C92.463 17.9869 92.9443 17.5056 92.9443 16.9112C92.9443 16.9117 92.9443 16.9117 92.9443 16.9112Z" fill="black"/>
<path fill-rule="evenodd" clip-rule="evenodd" d="M100.062 11.0724H79.1807V14.1756H100.062V11.0724Z" fill="white"/>
<path d="M100.062 14.3877H79.1812C79.0643 14.3877 78.9691 14.2925 78.9691 14.1756V11.0724C78.9691 10.9555 79.0643 10.8603 79.1812 10.8603H100.062C100.179 10.8603 100.274 10.9555 100.274 11.0724V14.1756C100.274 14.2925 100.179 14.3877 100.062 14.3877ZM79.3928 13.9635H99.8501V11.284H79.3928V13.9635Z" fill="black"/>
<path fill-rule="evenodd" clip-rule="evenodd" d="M63.0551 22.4845C61.9359 20.5489 60.1113 14.7863 60.1287 12.1498C60.1325 11.6081 60.5605 8.8693 60.9896 8.75781C61.0646 8.73824 61.2664 9.96896 61.3828 10.4851C61.652 11.6826 61.9108 12.8611 62.1251 14.0598C62.5151 16.2433 63.4026 21.92 63.0551 22.4845Z" fill="black"/>
<path fill-rule="evenodd" clip-rule="evenodd" d="M66.2164 19.1028C66.1952 19.1295 65.9989 14.8946 66.9256 11.0001C67.6864 7.80066 69.9619 5.79822 69.9619 5.79822C69.672 10.1724 66.7652 18.7537 66.2164 19.1028Z" fill="black"/>
<path fill-rule="evenodd" clip-rule="evenodd" d="M65.6034 21.1689C63.7407 20.1324 59.7342 9.13037 61.35 5.96899C63.5444 9.72968 65.6306 18.4078 65.6034 21.1689Z" fill="black"/>
<path d="M65.6036 21.381C65.5687 21.381 65.5334 21.3723 65.5008 21.3544C64.4278 20.7572 62.9126 17.4191 61.9707 14.4296C61.5068 12.9585 60.0781 7.99318 61.162 5.87273C61.2153 5.76831 61.3431 5.72698 61.4469 5.78028C61.5514 5.83357 61.5927 5.96138 61.5394 6.06525C60.8574 7.39985 61.1696 10.4786 62.3747 14.3018C63.4271 17.6394 64.8596 20.512 65.7069 20.9835C65.8091 21.0406 65.8461 21.1695 65.789 21.2717C65.7504 21.3413 65.6781 21.381 65.6036 21.381Z" fill="white"/>
<path fill-rule="evenodd" clip-rule="evenodd" d="M65.6144 20.6126C64.673 18.3393 64.3836 16.3466 63.9458 13.8107C63.5146 11.3106 63.3378 7.63696 64.0628 5.23697C64.4462 3.96655 64.6855 2.5395 65.5018 1.40721C65.5404 1.35337 66.2887 0.463096 66.3676 0.504972C66.41 0.527269 66.273 1.40395 66.2414 1.74548C66.143 2.81305 66.2599 3.8915 66.354 4.95743C66.5965 7.71473 67.1583 10.5525 66.8554 13.3038C66.726 14.4774 65.9929 19.2943 65.6144 20.6126Z" fill="black"/>
<path d="M65.6144 20.8247C65.529 20.8247 65.4518 20.7736 65.4186 20.6936C64.5468 18.5884 64.2216 16.68 63.8442 14.4709C63.8094 14.2664 63.7735 14.0582 63.737 13.8466C63.067 9.96408 63.3846 6.74887 63.8599 5.17553C63.9437 4.89708 64.0193 4.617 64.0998 4.32006C64.3809 3.27588 64.6719 2.19634 65.3299 1.28323C65.3599 1.24189 65.5676 0.994444 65.7623 0.778538C66.162 0.334216 66.2953 0.226535 66.4666 0.317357C66.6248 0.400565 66.614 0.484317 66.5106 1.28431C66.4862 1.47248 66.4633 1.65087 66.453 1.76507C66.3654 2.71245 66.4535 3.69083 66.5384 4.63658L66.5656 4.93895C66.6297 5.66988 66.7184 6.42202 66.8043 7.14969C67.0441 9.18258 67.2916 11.2845 67.067 13.3272C66.9397 14.4829 66.2034 19.3335 65.8189 20.6719C65.7938 20.7583 65.7172 20.8198 65.6269 20.8252C65.622 20.8247 65.6182 20.8247 65.6144 20.8247ZM66.1169 1.01837C65.9276 1.22667 65.7215 1.46813 65.6726 1.53231C65.0607 2.38125 64.7801 3.42271 64.5087 4.42991C64.4315 4.71707 64.3516 5.01346 64.2656 5.29789C63.5739 7.58802 63.7115 11.2051 64.1547 13.7743C64.1911 13.9864 64.227 14.1947 64.2618 14.3997C64.6104 16.4429 64.8938 18.1006 65.5665 19.9116C65.9613 18.0924 66.534 14.2844 66.6444 13.2805C66.8641 11.2856 66.6189 9.20814 66.3823 7.19863C66.2964 6.46825 66.2072 5.71285 66.1424 4.97539L66.1158 4.6741C66.0293 3.70932 65.9396 2.71191 66.0304 1.72592C66.0418 1.60409 66.0652 1.42245 66.0902 1.22993C66.0979 1.16576 66.1076 1.09234 66.1169 1.01837Z" fill="white"/>
<path fill-rule="evenodd" clip-rule="evenodd" d="M66.6237 21.4245C66.7303 20.5495 67.2448 17.6557 67.39 16.7839C67.855 13.9967 68.6762 11.389 69.9472 8.65016C70.1152 8.28741 71.2899 6.26757 71.6119 6.39592C71.9431 6.52807 71.7696 8.93296 71.7413 9.22609C71.4449 12.2776 70.0053 15.5135 68.4331 18.329C67.954 19.1866 66.5884 21.3696 66.6237 21.4245Z" fill="black"/>
<path d="M66.6238 21.6361C66.6151 21.6361 66.6064 21.6356 66.5977 21.6345C66.4813 21.6203 66.3987 21.5148 66.4128 21.3984C66.4933 20.7393 66.8055 18.9294 67.0121 17.7318C67.0834 17.3185 67.1438 16.9688 67.1807 16.7486C67.6495 13.9358 68.4675 11.334 69.7542 8.56042C69.9125 8.21889 71.066 6.43453 71.5152 6.20612C71.6196 6.15336 71.7474 6.1947 71.8002 6.29911C71.8529 6.40353 71.8116 6.53134 71.7072 6.58409C71.4244 6.72766 70.3263 8.33418 70.1387 8.73826C68.8683 11.476 68.0612 14.0435 67.5984 16.8176C67.5614 17.0384 67.5011 17.3887 67.4298 17.8031C67.2237 18.9968 66.9126 20.8002 66.8338 21.449C66.8207 21.5572 66.7293 21.6361 66.6238 21.6361Z" fill="white"/>
<path fill-rule="evenodd" clip-rule="evenodd" d="M68.3597 21.4011C68.5474 15.5532 71.6598 12.2939 72.3744 11.0295C72.3793 11.0208 73.4452 9.41479 73.4452 9.41479C73.4452 9.41479 73.4017 10.7597 73.2652 11.6864C73.1102 12.7399 72.5327 14.5259 71.9018 15.8349C70.4367 18.8744 68.3657 21.4506 68.3597 21.4011Z" fill="black"/>
<path d="M68.3597 21.6132C68.3575 21.6132 68.3553 21.6132 68.3526 21.6132C68.2357 21.6094 68.1438 21.5115 68.1476 21.3946C68.3047 16.4989 70.4741 13.4099 71.6396 11.7501C71.8805 11.4069 72.0709 11.1361 72.19 10.9256C72.1949 10.9163 72.1987 10.9098 73.2684 9.29785C73.3331 9.20051 73.4648 9.17386 73.5621 9.23858C73.6595 9.30329 73.6861 9.4349 73.6214 9.53225C73.2701 10.0614 72.6071 11.061 72.5554 11.1399C72.4266 11.3666 72.2319 11.644 71.986 11.9937C70.8461 13.6171 68.7241 16.6387 68.5707 21.4082C68.568 21.5224 68.4739 21.6132 68.3597 21.6132Z" fill="white"/>
<path fill-rule="evenodd" clip-rule="evenodd" d="M61.8314 29.6671L59.8649 18.1914H72.3189L70.3529 29.6671H61.8314Z" fill="#FFA500"/>
<path fill-rule="evenodd" clip-rule="evenodd" d="M72.2286 27.9702H59.9551C59.9551 27.9702 59.9551 28.0339 59.9551 28.1377C59.9551 29.0753 60.7154 29.8362 61.6535 29.8362C63.9948 29.8362 68.1889 29.8362 70.5301 29.8362C71.4683 29.8362 72.2286 29.0759 72.2286 28.1377C72.2286 28.0339 72.2286 27.9702 72.2286 27.9702Z" fill="black"/>
<path d="M72.0128 19.3449L70.7842 20.122L69.5562 19.3459C69.4871 19.3024 69.399 19.3024 69.3294 19.3459L68.1014 20.1226L66.8734 19.3465C66.8043 19.303 66.7162 19.303 66.6466 19.3465L65.4197 20.1231L64.1917 19.347C64.1226 19.3035 64.034 19.3035 63.9649 19.347L62.7375 20.1236L61.5095 19.3476C61.4404 19.3041 61.3518 19.3041 61.2827 19.3476L60.1814 20.0448L60.2592 20.4973L61.3964 19.7778L62.6244 20.5538C62.6934 20.5973 62.7821 20.5973 62.8511 20.5538L64.0786 19.7772L65.3066 20.5533C65.3757 20.5968 65.4638 20.5968 65.5334 20.5533L66.7603 19.7767L67.9883 20.5527C68.0574 20.5962 68.1455 20.5962 68.2151 20.5527L69.4431 19.7761L70.6711 20.5522C70.7402 20.5957 70.8283 20.5957 70.8979 20.5522L72.0383 19.8311L72.127 19.3128C72.0873 19.3117 72.0481 19.3226 72.0128 19.3449Z" fill="white"/>
<path fill-rule="evenodd" clip-rule="evenodd" d="M95.9338 116.985C94.0145 122.35 92.3237 127.263 89.8329 133.205C88.798 135.674 84.2471 135.234 85.1912 131.95C86.9315 125.898 88.8371 120.456 90.6944 115.024L95.9338 116.985Z" fill="black"/>
<path fill-rule="evenodd" clip-rule="evenodd" d="M96.6086 130.325C94.5632 138.069 91.5324 144.768 90.0422 150.383C89.2276 153.453 85.133 153.44 79.6825 154.216C76.0524 154.733 72.451 155.35 72.2982 154.253C72.1796 153.399 80.0045 150.154 81.4468 145.745C83.3655 139.879 84.272 135.038 85.3619 130.311L96.6086 130.325Z" fill="#FFA500"/>
<path fill-rule="evenodd" clip-rule="evenodd" d="M86.2494 153.248C86.226 153.167 86.2053 153.085 86.1868 153.001C85.6767 150.715 87.1038 148.326 89.3716 147.671C89.8866 147.523 90.4006 147.476 90.8938 147.519C90.5757 148.503 90.2885 149.457 90.0427 150.383C89.6093 152.016 88.2486 152.777 86.2494 153.248ZM73.8165 152.958C73.8698 153.11 73.9144 153.267 73.9503 153.429C74.0575 153.909 74.0792 154.393 74.0259 154.864C73.0187 154.869 72.3612 154.709 72.2976 154.253C72.2639 154.008 72.8822 153.567 73.8165 152.958Z" fill="black"/>
<path fill-rule="evenodd" clip-rule="evenodd" d="M104.689 132.721C102.643 140.465 99.6123 147.164 98.1222 152.779C97.3075 155.849 93.2129 155.836 87.7625 156.613C84.1323 157.129 80.531 157.746 80.3782 156.649C80.2596 155.796 88.0845 152.55 89.5267 148.141C91.4454 142.276 92.352 137.434 93.4419 132.707L104.689 132.721Z" fill="#FFA500"/>
<path d="M83.8837 154.255C83.8201 154.255 83.7575 154.225 83.7195 154.168C83.6586 154.077 83.6825 153.954 83.7733 153.893C84.687 153.279 85.4473 152.719 86.0982 152.183C87.8451 150.746 88.905 149.403 89.3379 148.079C90.8515 143.451 91.7281 139.49 92.576 135.658C92.8039 134.627 93.0192 133.653 93.2476 132.663C93.2721 132.556 93.3787 132.49 93.4848 132.514C93.5913 132.539 93.6577 132.645 93.6332 132.751C93.4054 133.741 93.19 134.713 92.9621 135.743C92.1121 139.584 91.2332 143.556 89.7137 148.202C89.2564 149.6 88.1562 151.002 86.3495 152.489C85.6887 153.032 84.9181 153.599 83.9936 154.221C83.9604 154.245 83.9218 154.255 83.8837 154.255Z" fill="black"/>
<path fill-rule="evenodd" clip-rule="evenodd" d="M94.3289 155.644C94.3055 155.563 94.2849 155.481 94.2664 155.398C93.7563 153.111 95.1833 150.723 97.4511 150.067C97.9662 149.919 98.4801 149.872 98.9734 149.915C98.6552 150.899 98.3681 151.853 98.1222 152.779C97.6888 154.412 96.3281 155.173 94.3289 155.644ZM81.8966 155.355C81.9499 155.506 81.9945 155.663 82.0304 155.826C82.1375 156.305 82.1593 156.789 82.106 157.26C81.0988 157.265 80.4413 157.105 80.3777 156.649C80.3439 156.404 80.9623 155.963 81.8966 155.355Z" fill="black"/>
<path fill-rule="evenodd" clip-rule="evenodd" d="M160.236 113.159C160.52 118.85 160.765 124.467 161.43 130.876C161.706 133.538 166.172 133.336 166.187 130.593C166.22 124.295 166.025 118.535 165.819 112.798L160.236 113.159Z" fill="black"/>
<path fill-rule="evenodd" clip-rule="evenodd" d="M135.75 118.118C135.58 123.813 135.377 129.433 135.53 135.874C135.593 138.55 140.061 138.705 140.294 135.971C140.828 129.695 141.092 123.938 141.344 118.203L135.75 118.118Z" fill="black"/>
<path fill-rule="evenodd" clip-rule="evenodd" d="M88.7131 116.234C88.8365 117.197 89.6409 117.928 90.6111 117.96C99.7896 118.261 143.387 119.688 143.387 119.688C143.387 119.688 161.946 116.152 166.992 115.19C167.755 115.045 168.362 114.466 168.545 113.711C170.906 103.949 186.496 39.4862 189.677 26.3333C189.817 25.7579 189.691 25.1504 189.334 24.6773C188.978 24.2041 188.429 23.9159 187.837 23.8909C178.396 23.4928 144.268 22.0543 141.628 21.9428C141.534 21.939 141.449 22.0021 141.427 22.0935C140.657 25.2532 128.568 74.8497 128.568 74.8497C118.868 72.8141 97.1503 70.3168 87.5047 70.7426C78.8548 71.1244 77.3065 80.2425 84.0839 80.2071C84.085 80.2082 87.7755 108.936 88.7131 116.234Z" fill="#FFA500"/>
<path d="M147.449 103.749C147.447 103.749 147.445 103.749 147.442 103.749L93.711 102.079C93.6017 102.076 93.5157 101.984 93.5195 101.875C93.5228 101.766 93.6125 101.679 93.7235 101.684L147.455 103.353C147.564 103.356 147.65 103.448 147.646 103.557C147.644 103.664 147.555 103.749 147.449 103.749Z" fill="white"/>
<path fill-rule="evenodd" clip-rule="evenodd" d="M117.881 73.048L128.641 74.8263L141.575 22.05C126.841 9.21085 116.307 22.6378 125.551 36.9263L117.881 73.048Z" fill="#FFA500"/>
<path fill-rule="evenodd" clip-rule="evenodd" d="M142.617 13.6997C144.307 13.6687 145.704 15.0153 145.735 16.705C145.766 18.3947 144.42 19.7919 142.73 19.8229C141.04 19.8539 139.643 18.5073 139.612 16.8176C139.581 15.1279 140.928 13.7307 142.617 13.6997Z" fill="black"/>
<path d="M143.044 20.0143C141.069 20.0143 139.444 18.4258 139.407 16.4424C139.389 15.4711 139.751 14.5509 140.426 13.8504C141.101 13.1499 142.007 12.7545 142.978 12.7371C143.953 12.7197 144.87 13.0814 145.57 13.7558C146.27 14.4307 146.666 15.3373 146.684 16.3086C146.702 17.2799 146.34 18.2001 145.665 18.9005C144.99 19.6005 144.084 19.9958 143.112 20.0138C143.089 20.0143 143.067 20.0143 143.044 20.0143ZM142.986 13.1325C142.12 13.1483 141.313 13.5007 140.711 14.125C140.11 14.7488 139.787 15.5695 139.803 16.4347C139.836 18.2229 141.315 19.6489 143.105 19.6179C143.97 19.6021 144.779 19.2497 145.38 18.6254C145.982 18.0016 146.304 17.1809 146.288 16.3156C146.273 15.4504 145.92 14.6422 145.296 14.0407C144.671 13.4392 143.85 13.1195 142.986 13.1325ZM142.982 12.9351H142.983H142.982Z" fill="black"/>
<path fill-rule="evenodd" clip-rule="evenodd" d="M124.157 59.913L123.303 82.0524L132.716 81.7419L132.802 59.3648L124.157 59.913Z" fill="white"/>
<path fill-rule="evenodd" clip-rule="evenodd" d="M123.206 60.4933C123.133 50.9227 127.801 40.2824 144.934 40.1518C159.695 40.0393 167.475 48.706 167.212 63.2506L155.531 64.7592L155.128 83.5317L128.302 81.7315L128.743 60.9904L123.206 60.4933Z" fill="white"/>
<path d="M128.333 79.4153C128.332 79.4153 128.33 79.4153 128.328 79.4153C128.219 79.4126 128.133 79.3217 128.135 79.2124L128.703 56.0925C128.706 55.9832 128.799 55.8989 128.906 55.8994C129.015 55.9021 129.102 55.993 129.099 56.1023L128.531 79.2222C128.529 79.3299 128.44 79.4153 128.333 79.4153Z" fill="black"/>
<path d="M128.638 61.0132C128.634 61.0132 128.63 61.0132 128.625 61.0127L123.245 60.6543C123.136 60.6472 123.054 60.5526 123.061 60.4438C123.068 60.3345 123.162 60.2518 123.271 60.2594L128.651 60.6178C128.76 60.6249 128.842 60.7195 128.835 60.8283C128.829 60.9333 128.742 61.0132 128.638 61.0132Z" fill="black"/>
<path fill-rule="evenodd" clip-rule="evenodd" d="M138.121 18.0135C143.91 17.4191 148.407 22.1652 147.949 27.8511C147.547 32.8518 144.013 36.5162 139.205 36.5695C134.396 36.6228 130.446 32.5935 130.391 27.5776C130.335 22.5612 132.876 18.5519 138.121 18.0135Z" fill="black"/>
<path fill-rule="evenodd" clip-rule="evenodd" d="M131.078 25.6888C130.332 33.4712 133.033 37.09 136.885 37.804C137.072 39.1919 137.131 40.1942 137.289 41.7594C137.478 43.6232 139.361 44.0931 140.946 44.0262C143.116 43.9343 145.265 42.3364 145.237 40.3699C145.184 36.6881 145.036 33.5436 144.699 30.8869C144.245 27.3089 143.448 24.6152 142.078 22.6835C139.068 18.4366 131.522 21.0449 131.078 25.6888Z" fill="white"/>
<path d="M140.637 44.2307C138.566 44.2307 137.249 43.3279 137.092 41.7796C137.082 41.6708 137.161 41.574 137.269 41.5626C137.379 41.5517 137.475 41.6311 137.486 41.7393C137.695 43.8043 140.181 43.8603 140.937 43.8282C142.425 43.7652 143.901 42.9646 144.608 41.8367C144.901 41.3695 145.046 40.8768 145.039 40.3726C145.037 40.2633 145.125 40.1736 145.234 40.172C145.346 40.1725 145.433 40.2579 145.435 40.3672C145.443 40.9491 145.278 41.5142 144.944 42.0471C144.171 43.2806 142.567 44.1556 140.954 44.2242C140.846 44.2285 140.741 44.2307 140.637 44.2307Z" fill="black"/>
<path fill-rule="evenodd" clip-rule="evenodd" d="M108.679 102.222C107.109 115.57 97.6616 131.782 93.84 140.471L79.0175 139.652C85.1466 119.112 87.0245 97.862 93.1786 89.7962C100.137 80.677 120.664 77.4922 139.684 80.3828C144.685 81.1431 147.035 85.2333 146.837 89.3394C146.647 93.2997 144.087 97.2746 139.251 98.2884C130.538 100.115 118.138 103.795 108.679 102.222Z" fill="white"/>
<path d="M93.8399 140.669C93.8361 140.669 93.8329 140.669 93.8291 140.668L79.0066 139.85C78.9462 139.846 78.8907 139.815 78.8554 139.766C78.8206 139.716 78.8102 139.653 78.8276 139.596C81.1662 131.759 82.9163 123.676 84.4602 116.543C86.9984 104.82 89.1901 94.6968 93.0209 89.676C94.727 87.4397 97.2836 85.4944 100.62 83.8933C103.773 82.3803 107.558 81.2018 111.872 80.3915C120.286 78.81 130.174 78.7377 139.714 80.1876C145.036 80.9968 147.226 85.372 147.035 89.3497C146.935 91.4283 146.192 93.4498 144.942 95.0421C143.554 96.8091 141.6 97.999 139.291 98.483C137.725 98.8115 136.047 99.1977 134.271 99.6072C127.957 101.062 120.414 102.8 113.671 102.8C112.005 102.8 110.389 102.694 108.852 102.451C107.585 112.718 101.692 124.72 97.382 133.499C96.0496 136.213 94.8983 138.557 94.0216 140.551C93.9895 140.622 93.9183 140.669 93.8399 140.669ZM79.2785 139.468L93.7143 140.265C94.5872 138.291 95.7195 135.985 97.0263 133.323C101.353 124.511 107.278 112.444 108.483 102.199C108.489 102.145 108.517 102.096 108.561 102.064C108.604 102.031 108.659 102.018 108.712 102.027C116.43 103.31 126.273 101.042 134.182 99.2205C135.96 98.811 137.64 98.4238 139.21 98.0947C141.427 97.6298 143.301 96.4893 144.63 94.7963C145.83 93.2687 146.543 91.3271 146.639 89.3296C146.822 85.5297 144.732 81.3497 139.654 80.578C130.157 79.1347 120.317 79.2065 111.945 80.7798C107.666 81.5841 103.913 82.7512 100.791 84.2495C97.512 85.8234 95.0038 87.7296 93.3358 89.9159C89.5582 94.8665 87.3752 104.95 84.8469 116.627C83.3176 123.693 81.5855 131.692 79.2785 139.468Z" fill="black"/>
<path fill-rule="evenodd" clip-rule="evenodd" d="M146.226 27.018C140.88 28.7583 133.721 26.6906 132.276 21.8378C134.072 16.624 142.809 17.5529 145.446 23.2203C145.818 24.0203 146.133 26.0331 146.226 27.018Z" fill="black"/>
<path fill-rule="evenodd" clip-rule="evenodd" d="M129.739 27.9915C129.966 28.3515 130.443 28.4592 130.803 28.2324C132.955 26.8967 133.511 23.3916 132.67 21.5659C129.929 21.4653 128.245 25.6627 129.739 27.9915Z" fill="black"/>
<path fill-rule="evenodd" clip-rule="evenodd" d="M142.746 27.9322L143.653 31.2034C145.09 31.2251 146.637 29.6708 146.096 28.2313C145.539 26.7509 143.845 26.9886 142.746 27.9322Z" fill="white"/>
<path fill-rule="evenodd" clip-rule="evenodd" d="M145.408 29.9439C145.679 30.0048 145.85 30.2729 145.789 30.5421C145.729 30.8113 145.46 30.9804 145.189 30.9195C144.918 30.8586 144.747 30.5905 144.808 30.3213C144.868 30.0521 145.138 29.8829 145.408 29.9439Z" fill="#FFA500"/>
<path d="M143.609 28.6452C143.553 28.6452 143.496 28.6207 143.457 28.5739C143.387 28.4902 143.398 28.3651 143.482 28.2955C143.963 27.8941 144.777 27.6934 145.304 28.0513C145.394 28.1127 145.418 28.2357 145.357 28.3259C145.295 28.4162 145.172 28.4401 145.082 28.3787C144.725 28.1367 144.098 28.2971 143.736 28.5995C143.699 28.6299 143.655 28.6452 143.609 28.6452Z" fill="black"/>
<path fill-rule="evenodd" clip-rule="evenodd" d="M136.904 28.3966C137.107 28.4037 137.263 28.6468 137.253 28.9388C137.243 29.2309 137.07 29.462 136.867 29.455C136.663 29.4479 136.507 29.2048 136.517 28.9127C136.527 28.6207 136.701 28.3896 136.904 28.3966Z" fill="black"/>
<path fill-rule="evenodd" clip-rule="evenodd" d="M132.277 29.1145C132.48 29.1216 132.636 29.3647 132.626 29.6567C132.616 29.9488 132.443 30.1799 132.24 30.1728C132.036 30.1658 131.88 29.9227 131.89 29.6306C131.9 29.3386 132.074 29.1069 132.277 29.1145Z" fill="black"/>
<path d="M136.041 34.8287C135.933 34.8287 135.845 34.7428 135.843 34.6345C135.841 34.5252 135.928 34.4349 136.037 34.4328C136.428 34.4251 136.81 34.1831 137.034 33.8014C137.301 33.3451 137.294 32.7838 137.014 32.2612C136.962 32.1649 136.999 32.0447 137.095 31.9936C137.191 31.9419 137.312 31.9784 137.363 32.0746C137.709 32.7213 137.713 33.4239 137.375 34.002C137.082 34.5018 136.573 34.8183 136.044 34.8292C136.043 34.8287 136.042 34.8287 136.041 34.8287Z" fill="black"/>
<path fill-rule="evenodd" clip-rule="evenodd" d="M136.885 37.8041C138.222 38.0966 140.709 37.5321 142.142 36.2666C141.865 38.1913 139.898 40.0773 137.116 39.9104C137.052 39.2191 136.988 38.5703 136.885 37.8041Z" fill="black"/>
<path d="M135.394 33.1183C135.391 33.1183 135.387 33.1183 135.384 33.1177L134.56 33.0748C134.321 33.0623 134.095 32.9508 133.939 32.7686C133.784 32.5864 133.709 32.3455 133.735 32.1073L134.059 29.077L134.453 29.1189L134.128 32.1492C134.114 32.2797 134.155 32.4118 134.24 32.5114C134.325 32.6114 134.449 32.6723 134.58 32.6794L135.404 32.7224C135.513 32.7278 135.597 32.8214 135.591 32.9301C135.586 33.0362 135.498 33.1183 135.394 33.1183ZM131.417 28.6376C131.327 28.6376 131.246 28.5756 131.224 28.4842C131.2 28.3776 131.266 28.2715 131.372 28.2465L132.767 27.924C132.873 27.8996 132.979 27.9659 133.004 28.0725C133.029 28.1791 132.962 28.2851 132.856 28.3102L131.462 28.6327C131.447 28.6354 131.432 28.6376 131.417 28.6376ZM136.082 27.9039C135.992 27.9039 135.911 27.8419 135.89 27.7505C135.865 27.6439 135.932 27.5379 136.038 27.5129L137.432 27.1904C137.539 27.1659 137.645 27.2323 137.669 27.3389C137.694 27.4454 137.628 27.5515 137.522 27.5765L136.127 27.899C136.112 27.9017 136.097 27.9039 136.082 27.9039Z" fill="black"/>
<path d="M132.039 22.3382C131.963 22.3382 131.892 22.2947 131.858 22.2212C131.572 21.585 130.846 21.0645 129.964 20.8633C129.857 20.8388 129.791 20.7327 129.815 20.6262C129.839 20.5196 129.945 20.4532 130.052 20.4771C130.7 20.6251 131.277 20.9312 131.694 21.3315C131.645 20.6724 131.702 19.9143 131.827 19.3949C131.853 19.2888 131.96 19.2236 132.066 19.2491C132.172 19.2747 132.238 19.3818 132.212 19.4879C132.041 20.1965 132.01 21.4539 132.226 22.0755C132.26 22.1756 132.21 22.2849 132.112 22.324C132.088 22.3338 132.063 22.3382 132.039 22.3382Z" fill="black"/>
<path d="M142.75 25.5115C139.436 25.5115 136.248 24.1965 134.371 22.0374C134.299 21.9548 134.308 21.8302 134.391 21.7584C134.473 21.6867 134.598 21.6954 134.67 21.778C136.532 23.9197 139.749 25.1988 143.061 25.1123C143.169 25.1091 143.261 25.1955 143.264 25.3049C143.267 25.4142 143.181 25.505 143.072 25.5077C142.964 25.5099 142.857 25.5115 142.75 25.5115Z" fill="white"/>
<path fill-rule="evenodd" clip-rule="evenodd" d="M119.962 102.836C117.834 116.392 107.558 133.159 103.366 142.095L88.5417 141.856C95.5399 120.847 98.4365 99.2879 104.941 90.8888C112.295 81.3927 132.974 77.3579 151.919 79.5246C156.9 80.094 159.086 84.137 158.717 88.2957C158.362 92.3072 155.631 96.4273 150.74 97.645C141.932 99.8372 129.379 104.051 119.962 102.836Z" fill="white"/>
<path d="M103.366 142.292C103.365 142.292 103.364 142.292 103.363 142.292L96.6239 142.184C96.576 142.207 96.5184 142.211 96.4645 142.19C96.4574 142.187 96.4509 142.184 96.4449 142.18L88.5385 142.053C88.4754 142.052 88.4167 142.021 88.3803 141.969C88.3438 141.918 88.334 141.853 88.3542 141.793C90.9956 133.862 93.0916 125.7 94.9412 118.499C98.0379 106.44 100.712 96.0249 104.785 90.7664C108.318 86.2041 114.976 82.7017 124.04 80.6389C132.532 78.7061 142.441 78.24 151.943 79.3266C154.329 79.5996 156.247 80.6792 157.487 82.4494C158.602 84.0396 159.11 86.122 158.915 88.3121C158.729 90.4146 157.902 92.4844 156.585 94.1399C155.124 95.977 153.12 97.255 150.789 97.8353C149.198 98.2313 147.493 98.6908 145.688 99.1775C138.904 101.007 130.597 103.247 123.513 103.247C122.879 103.247 122.256 103.229 121.644 103.192C121.127 103.16 120.618 103.114 120.128 103.055C118.448 113.407 112.03 125.706 107.335 134.702C105.831 137.584 104.532 140.074 103.545 142.177C103.512 142.248 103.443 142.292 103.366 142.292ZM96.8343 141.792L103.241 141.895C104.225 139.809 105.505 137.354 106.985 134.52C111.695 125.494 118.145 113.133 119.767 102.805C119.784 102.699 119.881 102.626 119.988 102.64C120.528 102.709 121.094 102.763 121.668 102.798C129.058 103.254 138.222 100.782 145.585 98.7968C147.391 98.3096 149.098 97.8495 150.693 97.4525C152.938 96.8934 154.869 95.6632 156.275 93.8946C157.544 92.299 158.341 90.3042 158.521 88.2778C158.862 84.4344 156.946 80.2979 151.898 79.7209C142.44 78.6392 132.578 79.1026 124.128 81.0256C119.809 82.0089 116.001 83.3386 112.811 84.9777C109.459 86.7006 106.863 88.7297 105.098 91.0095C101.076 96.2033 98.4109 106.581 95.3252 118.598C93.494 125.728 91.4214 133.799 88.8153 141.662L96.4129 141.785C98.5007 136.468 101.062 129.134 103.54 122.039C104.508 119.269 105.508 116.405 106.475 113.677C107.073 111.987 107.608 110.323 108.125 108.714C110.218 102.201 112.027 96.5752 116.648 93.5846C122.163 90.0159 130.074 89.2834 137.053 88.6367C139.256 88.4328 141.338 88.2397 143.293 87.9705C143.4 87.9558 143.501 88.0314 143.516 88.1397C143.531 88.2479 143.455 88.3479 143.347 88.3626C141.383 88.6329 139.298 88.8265 137.09 89.031C130.156 89.6733 122.297 90.4015 116.863 93.9169C112.359 96.8308 110.572 102.394 108.501 108.835C107.983 110.447 107.447 112.113 106.847 113.809C105.881 116.537 104.881 119.4 103.914 122.17C101.455 129.207 98.9151 136.48 96.8343 141.792Z" fill="black"/>
<path fill-rule="evenodd" clip-rule="evenodd" d="M130.294 64.5498C130.26 63.4143 129.38 62.4848 128.247 62.3897C122.639 61.9182 106.7 60.5781 100.606 60.0653C99.993 60.0136 99.3877 60.2263 98.9412 60.6488C98.4947 61.0719 98.2499 61.6647 98.2679 62.2798C98.4387 68.0212 98.8601 82.2253 98.951 85.2845C98.9607 85.6189 99.2202 85.8925 99.5535 85.9202C103.9 86.2857 131.007 88.5649 131.007 88.5649C131.007 88.5649 130.475 70.636 130.294 64.5498Z" fill="black"/>
<path fill-rule="evenodd" clip-rule="evenodd" d="M130.694 78.0198C130.694 78.0198 140.87 78.277 144.905 78.3793C145.331 78.3901 145.735 78.5718 146.026 78.884C146.317 79.1961 146.469 79.6122 146.45 80.0385C146.424 80.6107 146.4 81.1154 146.4 81.1154L131.007 88.5655C128.99 85.39 128.639 81.9186 130.694 78.0198Z" fill="black"/>
<path d="M144.698 79.5572C144.653 79.4572 144.536 79.412 144.436 79.4561L131.923 84.975C131.858 85.0033 131.814 85.0642 131.806 85.1338C131.799 85.204 131.829 85.2725 131.885 85.3149C131.918 85.3389 131.939 85.3552 131.978 85.3552C132.003 85.3552 132.035 85.3487 132.081 85.3334L132.082 85.3372L132.138 85.3128C132.237 85.2752 132.388 85.21 132.627 85.1061C132.971 84.9565 133.461 84.7417 134.048 84.4828C135.223 83.9662 136.786 83.2755 138.349 82.5848C141.475 81.2029 144.597 79.8183 144.597 79.8183C144.696 79.7737 144.742 79.6568 144.698 79.5572Z" fill="white"/>
<path d="M113.384 71.2375C112.771 71.1804 112.15 71.3849 111.637 71.8123C110.976 72.3638 110.548 73.2269 110.464 74.1797C110.309 75.9363 111.366 77.4749 112.819 77.6103C112.887 77.6168 112.954 77.6195 113.022 77.6195C113.568 77.6195 114.109 77.4161 114.566 77.0354C115.227 76.484 115.655 75.6209 115.739 74.6681C115.894 72.912 114.838 71.3729 113.384 71.2375ZM115.345 74.6333C115.27 75.4822 114.894 76.2468 114.313 76.7314C113.875 77.0963 113.371 77.2638 112.856 77.216C111.619 77.1007 110.723 75.7541 110.859 74.2145C110.934 73.3656 111.31 72.6009 111.891 72.1163C112.28 71.7922 112.721 71.6236 113.176 71.6236C113.233 71.6236 113.29 71.6263 113.348 71.6318C114.585 71.7465 115.481 73.0931 115.345 74.6333Z" fill="white"/>
<path d="M130.802 76.3388C130.8 76.3388 130.798 76.3388 130.796 76.3388C130.687 76.342 130.601 76.4334 130.604 76.5427L130.898 86.4227C130.901 86.5299 130.989 86.6147 131.096 86.6147C131.098 86.6147 131.1 86.6147 131.102 86.6147C131.211 86.6115 131.297 86.5201 131.294 86.4108L131 76.5307C130.997 76.4236 130.909 76.3388 130.802 76.3388Z" fill="white"/>
<path fill-rule="evenodd" clip-rule="evenodd" d="M134.548 119.379C137.029 106.568 139.089 93.3399 143.011 81.055C144.695 75.7781 147.548 74.4266 152.115 73.6005C157.238 72.6738 162.294 72.2121 167.315 72.0011L174.22 38.8695C165.18 24.897 175.053 11.7484 189.273 23.1795C189.868 23.6592 190.133 24.4396 189.954 25.183C187.562 35.0816 170.986 103.62 168.545 113.712C168.363 114.467 167.756 115.045 166.993 115.191C162.339 116.077 146.194 119.154 143.71 119.627C143.496 119.668 143.278 119.685 143.06 119.677C141.461 119.621 134.548 119.379 134.548 119.379Z" fill="#FFA500"/>
<path d="M134.548 119.577C134.536 119.577 134.523 119.576 134.511 119.573C134.404 119.553 134.334 119.449 134.354 119.342C134.842 116.825 135.321 114.246 135.785 111.752C137.694 101.489 139.668 90.8774 142.823 80.9946C144.507 75.7182 147.376 74.2564 152.081 73.4053C156.7 72.5694 161.632 72.0473 167.153 71.8096L174.01 38.9086C171.048 34.2979 169.913 29.3516 170.897 25.3272C170.923 25.2211 171.031 25.1559 171.137 25.182C171.243 25.2081 171.308 25.3152 171.282 25.4213C170.319 29.3609 171.451 34.2234 174.387 38.7623C174.415 38.8058 174.425 38.8591 174.415 38.9102L167.509 72.0418C167.491 72.1305 167.415 72.1952 167.324 72.199C161.759 72.4329 156.796 72.955 152.152 73.7952C147.496 74.6376 144.833 76.001 143.201 81.1154C140.053 90.9742 138.082 101.574 136.175 111.824C135.711 114.319 135.231 116.898 134.744 119.417C134.724 119.511 134.641 119.577 134.548 119.577Z" fill="white"/>
<path d="M144.948 114.314C144.936 114.314 144.923 114.313 144.911 114.31C144.804 114.289 144.733 114.186 144.754 114.078C146.141 106.837 147.719 100.14 149.389 93.0484C149.831 91.1716 150.288 89.2306 150.738 87.2935C150.76 87.1988 150.845 87.133 150.945 87.1406C153.159 87.3016 154.746 86.2988 155.189 84.4562C155.867 81.6315 153.661 79.0248 151.242 78.0057C151.141 77.9632 151.094 77.8474 151.136 77.7463C151.179 77.6456 151.294 77.5983 151.395 77.6407C152.971 78.3042 154.203 79.3734 154.958 80.732C155.638 81.9556 155.862 83.3468 155.574 84.5487C155.101 86.5168 153.389 87.6546 151.086 87.5453C150.648 89.4291 150.204 91.3141 149.774 93.1387C148.105 100.226 146.529 106.919 145.142 114.152C145.124 114.248 145.041 114.314 144.948 114.314Z" fill="white"/>
<path d="M92.5576 82.3455C92.4575 82.3455 92.371 82.2694 92.3607 82.1677C92.2443 81.0196 92.091 79.9385 91.9061 78.9552C91.1354 74.8639 89.8171 72.4356 88.0942 71.9336C87.9893 71.9032 87.9289 71.7933 87.9599 71.6883C87.9904 71.5834 88.1002 71.5236 88.2052 71.5535C90.107 72.1077 91.4835 74.5729 92.2949 78.8812C92.4825 79.8759 92.637 80.968 92.7545 82.1275C92.7653 82.2362 92.6865 82.333 92.5777 82.3444C92.5712 82.345 92.5641 82.3455 92.5576 82.3455Z" fill="white"/>
<path d="M119.85 103.719C119.839 103.719 119.829 103.718 119.819 103.716C119.711 103.7 119.637 103.598 119.654 103.49C119.792 102.617 119.895 101.879 119.981 101.168C119.994 101.059 120.092 100.982 120.201 100.995C120.31 101.008 120.387 101.107 120.374 101.215C120.288 101.931 120.183 102.673 120.045 103.552C120.03 103.65 119.946 103.719 119.85 103.719Z" fill="black"/>
<path d="M167.414 63.2604C167.4 63.1522 167.3 63.0755 167.193 63.0896L150.936 65.1889L150.811 56.8979C150.809 56.7886 150.717 56.7032 150.61 56.7032C150.501 56.7049 150.414 56.7946 150.416 56.9039L150.544 65.4167C150.545 65.4733 150.57 65.5266 150.613 65.5636C150.649 65.5951 150.695 65.612 150.742 65.612C150.75 65.612 150.759 65.6114 150.768 65.6103L151.898 65.4646L152.175 67.758C151.264 67.4284 149.848 66.9384 148.154 66.6056C148.114 66.5969 148.074 66.5871 148.034 66.5784C148.02 66.5751 148.005 66.574 147.991 66.574C147.111 66.4082 146.161 66.2863 145.168 66.2521C141.215 66.1145 137.896 67.3936 135.305 70.0514C134.447 70.9308 133.547 71.2293 132.622 71.4806C131.669 71.7395 131.333 72.3817 131.425 72.8685C131.54 73.4803 132.125 73.8784 132.861 73.8784C132.95 73.8784 133.041 73.8724 133.134 73.8605C133.43 73.8224 133.708 73.7686 133.976 73.6984C133.795 74.1079 133.602 74.5234 133.384 74.9427C132.892 75.8917 132.354 76.8815 131.658 77.6386C131.627 77.6723 131.583 77.8354 131.575 77.867C131.494 78.1857 131.543 78.4951 131.716 78.7469C131.862 78.9601 132.1 79.0971 132.403 79.1428C132.475 79.1537 132.55 79.1591 132.625 79.1591C133.004 79.1591 133.411 79.027 133.692 78.8035C134.732 77.9774 135.218 77.0735 135.716 75.8607C135.897 76.4312 136.167 76.9381 136.513 77.3155C136.959 77.8039 137.507 78.0622 138.096 78.0628C138.1 78.0628 138.104 78.0628 138.107 78.0622C138.349 78.295 138.61 78.4407 138.877 78.4897C138.963 78.5054 139.047 78.5131 139.128 78.5131C139.57 78.5131 139.938 78.283 140.168 77.8572C140.376 78.0133 140.594 78.1057 140.811 78.1269C141.06 78.1509 141.328 78.0687 141.538 77.9159C141.651 77.8338 141.776 77.669 141.819 77.5961C142.094 77.1273 142.039 76.4715 141.774 76.1424C141.565 75.883 141.419 75.5779 141.332 75.2315C141.265 74.946 141.239 74.6681 141.242 74.4043C142.904 74.4973 145.457 75.7476 148.155 77.0691C151.582 78.748 155.373 80.6047 158.332 80.6041C159.094 80.6041 159.801 80.4812 160.433 80.2001C162.683 79.1989 164.441 76.9006 165.516 73.5532C166.42 70.7377 166.779 67.3207 166.499 64.1784C166.484 64.0163 166.457 63.7683 166.436 63.5851L167.244 63.4806C167.352 63.4681 167.428 63.3686 167.414 63.2604ZM134.156 73.234C133.818 73.3416 133.467 73.4183 133.083 73.4678C132.436 73.551 131.902 73.2682 131.812 72.7951C131.728 72.3475 132.226 71.9978 132.725 71.8624C133.676 71.604 134.604 71.2951 135.506 70.407C135.065 71.1494 134.719 71.9624 134.363 72.7983C134.303 72.9408 134.241 73.0844 134.179 73.2291C134.171 73.2307 134.163 73.2318 134.156 73.234ZM132.985 76.4851C133.217 76.8581 133.103 77.2693 132.865 77.5282C132.685 77.7239 132.394 77.8708 132.101 77.7343C132.427 77.353 132.718 76.9277 132.985 76.4851ZM166.103 64.2148C166.378 67.3066 166.026 70.6665 165.138 73.4335C164.413 75.691 162.98 78.6349 160.271 79.84C159.69 80.0984 159.035 80.212 158.324 80.212C155.467 80.212 151.717 78.3749 148.328 76.7151C145.597 75.3772 143.012 74.1117 141.265 74.0117C141.341 73.3547 141.567 72.8272 141.699 72.5672C141.748 72.4699 141.709 72.3508 141.611 72.3013C141.514 72.2523 141.395 72.2915 141.345 72.3888C141.203 72.6711 140.959 73.2416 140.874 73.9556C140.867 74.0176 140.848 74.1759 140.847 74.1917C140.845 74.2287 140.843 74.2656 140.842 74.3026C140.83 74.6947 140.87 75.0558 140.958 75.3854C140.959 75.3908 140.96 75.3963 140.961 75.4012C140.962 75.4023 140.963 75.4034 140.963 75.4044C141.066 75.7759 141.233 76.106 141.464 76.3921C141.63 76.5982 141.672 77.1431 141.429 77.4694C141.417 77.4857 141.36 77.5494 141.345 77.5624C141.324 77.5815 141.301 77.5994 141.277 77.6157C141.151 77.7016 140.986 77.7479 140.847 77.7348C140.497 77.7011 140.108 77.3568 139.807 76.813C139.452 76.1718 139.247 75.3169 139.231 74.4049C139.229 74.2955 139.141 74.2053 139.03 74.2107C138.921 74.2123 138.834 74.3026 138.836 74.4119C138.853 75.3876 139.075 76.3083 139.461 77.005C139.584 77.2269 139.72 77.4205 139.866 77.5815C139.86 77.5896 139.855 77.5983 139.851 77.6076C139.66 78.0116 139.357 78.1781 138.948 78.103C138.635 78.0454 138.309 77.7762 138.029 77.3449C137.465 76.4747 137.199 75.157 137.411 74.2792C137.437 74.1732 137.372 74.066 137.265 74.0405C137.159 74.0149 137.052 74.0802 137.027 74.1862C136.787 75.1744 137.07 76.5933 137.697 77.5602C137.713 77.5842 137.728 77.6076 137.744 77.6304C137.4 77.5526 137.085 77.3585 136.804 77.0507C136.126 76.3094 135.762 75.0069 135.875 73.7327C135.885 73.6239 135.805 73.5276 135.696 73.5178C135.587 73.5086 135.491 73.5885 135.481 73.6973C135.436 74.2063 135.463 74.7203 135.551 75.2081C135.55 75.2119 135.547 75.2152 135.546 75.219C134.991 76.6308 134.545 77.6217 133.445 78.4957C133.192 78.6963 132.787 78.8029 132.461 78.7534C132.327 78.7333 132.145 78.6773 132.041 78.525C131.942 78.3814 131.922 78.2297 131.935 78.0959C132.066 78.1574 132.2 78.1857 132.331 78.1857C132.649 78.1857 132.948 78.0231 133.156 77.7979C133.549 77.3699 133.675 76.6732 133.202 76.1147C133.388 75.7873 133.564 75.4539 133.733 75.126C134.118 74.3826 134.427 73.6571 134.726 72.955C135.44 71.2745 136.058 69.823 137.431 68.7777C137.446 68.7663 137.459 68.7521 137.469 68.7374C140.958 66.3423 144.895 66.382 147.957 66.9683C149.249 67.2489 150.539 67.6285 151.792 68.0968C154.565 69.1328 156.736 70.4554 157.842 71.3474C157.878 71.3767 157.922 71.3914 157.966 71.3914C158.024 71.3914 158.081 71.3664 158.12 71.3174C158.189 71.2326 158.175 71.1081 158.09 71.039C157.577 70.6251 155.736 69.2454 152.598 67.9848L152.288 65.4145L166.04 63.6389C166.062 63.8124 166.089 64.0587 166.103 64.2148Z" fill="black"/>
<path d="M133.083 73.4678C133.466 73.4183 133.818 73.3416 134.156 73.234C134.164 73.2318 134.172 73.2307 134.179 73.2291C134.241 73.0844 134.303 72.9408 134.363 72.7983C134.719 71.9619 135.065 71.1494 135.506 70.407C134.604 71.2951 133.676 71.604 132.725 71.8624C132.226 71.9978 131.729 72.3475 131.812 72.7951C131.901 73.2682 132.436 73.551 133.083 73.4678Z" fill="white"/>
<path d="M166.103 64.2148C166.089 64.0587 166.062 63.8124 166.042 63.6373L152.289 65.4129L152.599 67.9831C155.737 69.2443 157.579 70.6235 158.092 71.0374C158.177 71.1059 158.19 71.2304 158.122 71.3158C158.083 71.3642 158.026 71.3898 157.967 71.3898C157.924 71.3898 157.88 71.3756 157.843 71.3457C156.737 70.4538 154.566 69.1317 151.794 68.0952C150.541 67.6269 149.251 67.2473 147.959 66.9667C144.897 66.3804 140.96 66.3407 137.471 68.7358C137.46 68.7505 137.448 68.7646 137.432 68.776C136.059 69.8213 135.442 71.2728 134.727 72.9533C134.429 73.6554 134.12 74.3815 133.735 75.1244C133.565 75.4523 133.389 75.7851 133.203 76.1131C133.677 76.6716 133.551 77.3677 133.157 77.7963C132.95 78.0214 132.65 78.184 132.332 78.184C132.202 78.184 132.068 78.1558 131.936 78.0943C131.924 78.2281 131.944 78.3798 132.042 78.5234C132.147 78.6757 132.328 78.7317 132.462 78.7518C132.789 78.8013 133.194 78.6947 133.447 78.494C134.547 77.6201 134.993 76.6292 135.547 75.2174C135.549 75.2135 135.551 75.2103 135.553 75.2065C135.464 74.7186 135.437 74.2047 135.483 73.6957C135.493 73.5869 135.589 73.507 135.698 73.5162C135.806 73.526 135.887 73.6223 135.877 73.731C135.763 75.0052 136.128 76.3078 136.805 77.049C137.087 77.3568 137.402 77.551 137.746 77.6288C137.73 77.6059 137.715 77.5825 137.699 77.5586C137.071 76.5916 136.79 75.1722 137.028 74.1846C137.054 74.0785 137.162 74.0133 137.267 74.0388C137.373 74.0644 137.438 74.1715 137.413 74.2776C137.2 75.1554 137.466 76.4731 138.031 77.3432C138.311 77.7745 138.636 78.0437 138.949 78.1014C139.358 78.1764 139.662 78.01 139.853 77.6059C139.857 77.5967 139.862 77.588 139.867 77.5798C139.722 77.4188 139.585 77.2252 139.463 77.0033C139.076 76.3067 138.855 75.3859 138.838 74.4103C138.836 74.301 138.923 74.2107 139.032 74.2091C139.142 74.2036 139.231 74.2944 139.233 74.4032C139.249 75.3152 139.453 76.1702 139.808 76.8114C140.11 77.3552 140.499 77.7 140.848 77.7332C140.988 77.7462 141.152 77.7 141.279 77.6141C141.303 77.5978 141.326 77.5798 141.347 77.5608C141.361 77.5483 141.418 77.4841 141.431 77.4678C141.673 77.142 141.632 76.5971 141.466 76.3904C141.234 76.1044 141.067 75.7737 140.965 75.4028C140.964 75.4017 140.964 75.4006 140.963 75.3995C140.961 75.3941 140.961 75.3887 140.96 75.3838C140.871 75.0542 140.831 74.6931 140.844 74.301C140.845 74.2645 140.847 74.2276 140.849 74.19C140.85 74.1737 140.868 74.016 140.876 73.954C140.96 73.2405 141.205 72.67 141.347 72.3872C141.397 72.2898 141.515 72.2507 141.613 72.2996C141.71 72.3491 141.75 72.4677 141.701 72.5656C141.569 72.8255 141.342 73.353 141.267 74.01C143.013 74.1101 145.598 75.3756 148.329 76.7135C151.718 78.3733 155.469 80.2104 158.326 80.2104C159.037 80.2104 159.691 80.0967 160.272 79.8384C162.981 78.6332 164.414 75.6894 165.139 73.4319C166.027 70.6665 166.379 67.306 166.103 64.2148Z" fill="white"/>
</svg>
