  <svg
              width="16"
              height="16"
              viewBox="0 0 16 16"
              fill="none"
              xmlns="http://www.w3.org/2000/svg"
            >
              <path
                d="M10.1733 14.8333H5.82665C2.55332 14.8333 1.15332 13.4333 1.15332 10.16V10.0733C1.15332 7.11334 2.31999 5.68667 4.93332 5.44001C5.19999 5.42001 5.45332 5.62001 5.47999 5.89334C5.50665 6.16667 5.30665 6.41334 5.02665 6.44001C2.93332 6.63334 2.15332 7.62001 2.15332 10.08V10.1667C2.15332 12.88 3.11332 13.84 5.82665 13.84H10.1733C12.8867 13.84 13.8467 12.88 13.8467 10.1667V10.08C13.8467 7.60667 13.0533 6.62001 10.92 6.44001C10.6467 6.41334 10.44 6.17334 10.4667 5.90001C10.4933 5.62667 10.7267 5.42001 11.0067 5.44667C13.66 5.67334 14.8467 7.10667 14.8467 10.0867V10.1733C14.8467 13.4333 13.4467 14.8333 10.1733 14.8333Z"
                fill="black"
              />
              <path
                d="M8 10.42C7.72667 10.42 7.5 10.1933 7.5 9.92V1.33333C7.5 1.05999 7.72667 0.833328 8 0.833328C8.27333 0.833328 8.5 1.05999 8.5 1.33333V9.92C8.5 10.2 8.27333 10.42 8 10.42Z"
                fill="black"
              />
              <path
                d="M7.99998 11.1667C7.87331 11.1667 7.74664 11.12 7.64664 11.02L5.41331 8.78666C5.21998 8.59333 5.21998 8.27333 5.41331 8.08C5.60664 7.88666 5.92664 7.88666 6.11998 8.08L7.99998 9.96L9.87998 8.08C10.0733 7.88666 10.3933 7.88666 10.5866 8.08C10.78 8.27333 10.78 8.59333 10.5866 8.78666L8.35331 11.02C8.25331 11.12 8.12664 11.1667 7.99998 11.1667Z"
                fill="black"
              />
            </svg>