<!-- <svg width="49" height="49" viewBox="0 0 49 49" fill="none" xmlns="http://www.w3.org/2000/svg">
<g opacity="0.3">
<path d="M16.8076 9.00957C16.8076 13.3166 13.3166 16.8091 9.00812 16.8091C4.69967 16.8091 1.21002 13.3166 1.21002 9.00957C1.21002 4.70252 4.70106 1.21008 9.00951 1.21008C13.318 1.21008 16.8076 4.70112 16.8076 9.00957Z" fill="black" stroke="black" stroke-width="1.55962" stroke-miterlimit="56" stroke-linecap="round" stroke-linejoin="round"/>
<path d="M17.7796 31.4304L36.3001 12.9086L48 24.6071V48H34.3519L17.7796 31.4304Z" fill="black" stroke="black" stroke-width="1.55962" stroke-miterlimit="56" stroke-linecap="round" stroke-linejoin="round"/>
<path d="M1.21008 34.3504L10.9549 24.6056L34.352 47.9999H1.21287L1.21008 34.3504Z" stroke="black" stroke-width="1.55962" stroke-miterlimit="56" stroke-linecap="round" stroke-linejoin="round"/>
</g>
</svg> -->
<svg width="36" height="36" viewBox="0 0 36 36" fill="none" xmlns="http://www.w3.org/2000/svg">
<rect x="2" y="2" width="32" height="32" rx="16" fill="#E3EEFD"/>
<path d="M20.0002 25.1666H16.0002C12.3802 25.1666 10.8335 23.62 10.8335 20V16C10.8335 12.38 12.3802 10.8333 16.0002 10.8333H20.0002C23.6202 10.8333 25.1668 12.38 25.1668 16V20C25.1668 23.62 23.6202 25.1666 20.0002 25.1666ZM16.0002 11.8333C12.9268 11.8333 11.8335 12.9266 11.8335 16V20C11.8335 23.0733 12.9268 24.1666 16.0002 24.1666H20.0002C23.0735 24.1666 24.1668 23.0733 24.1668 20V16C24.1668 12.9266 23.0735 11.8333 20.0002 11.8333H16.0002Z" fill="#0060F0"/>
<path d="M15.9998 17.1667C14.9865 17.1667 14.1665 16.3467 14.1665 15.3333C14.1665 14.32 14.9865 13.5 15.9998 13.5C17.0132 13.5 17.8332 14.32 17.8332 15.3333C17.8332 16.3467 17.0132 17.1667 15.9998 17.1667ZM15.9998 14.5C15.5398 14.5 15.1665 14.8733 15.1665 15.3333C15.1665 15.7933 15.5398 16.1667 15.9998 16.1667C16.4598 16.1667 16.8332 15.7933 16.8332 15.3333C16.8332 14.8733 16.4598 14.5 15.9998 14.5Z" fill="#0060F0"/>
<path d="M11.7802 23.1334C11.6202 23.1334 11.4602 23.0534 11.3668 22.9134C11.2135 22.6867 11.2735 22.3734 11.5068 22.22L14.7935 20.0134C15.5135 19.5267 16.5068 19.5867 17.1602 20.14L17.3802 20.3334C17.7135 20.62 18.2802 20.62 18.6068 20.3334L21.3802 17.9534C22.0868 17.3467 23.2002 17.3467 23.9135 17.9534L25.0002 18.8867C25.2068 19.0667 25.2335 19.38 25.0535 19.5934C24.8735 19.8 24.5602 19.8267 24.3468 19.6467L23.2602 18.7134C22.9268 18.4267 22.3602 18.4267 22.0268 18.7134L19.2535 21.0934C18.5468 21.7 17.4335 21.7 16.7202 21.0934L16.5002 20.9C16.1935 20.64 15.6868 20.6134 15.3468 20.8467L12.0602 23.0534C11.9735 23.1067 11.8735 23.1334 11.7802 23.1334Z" fill="#0060F0"/>
<rect x="2" y="2" width="32" height="32" rx="16" stroke="#F2F7FE" stroke-width="4"/>
</svg>
