<svg
  width="21"
  height="18"
  viewBox="0 0 21 18"
  fill="none"
  xmlns="http://www.w3.org/2000/svg"
>
<path
    d="M8.20049 11.3904C7.60995 10.8009 7.25049 9.99983 7.25049 9.10118C7.25049 7.3008 8.70065 5.84961 10.5 5.84961C11.3904 5.84961 12.21 6.2101 12.7903 6.79961"
    stroke="#BEB3AB"
    stroke-width="1.54054"
    stroke-linecap="round"
    stroke-linejoin="round"
  />
<path
    d="M13.6891 9.67773C13.4508 11.0026 12.4073 12.0481 11.0835 12.2884"
    stroke="#BEB3AB"
    stroke-width="1.54054"
    stroke-linecap="round"
    stroke-linejoin="round"
  />
<path
    d="M5.01055 14.5802C3.38065 13.3005 2.00033 11.4313 1 9.10098C2.0106 6.76038 3.40017 4.88092 5.04033 3.59097C6.67022 2.30102 8.55071 1.60059 10.5 1.60059C12.4606 1.60059 14.3401 2.31129 15.9802 3.61048"
    stroke="#BEB3AB"
    stroke-width="1.54054"
    stroke-linecap="round"
    stroke-linejoin="round"
  />
<path
    d="M18.1492 5.86914C18.8558 6.80784 19.4771 7.89136 19.9999 9.10017C17.9797 13.7803 14.4097 16.5995 10.4999 16.5995C9.61352 16.5995 8.73952 16.4558 7.89941 16.1754"
    stroke="#BEB3AB"
    stroke-width="1.54054"
    stroke-linecap="round"
    stroke-linejoin="round"
  />
<path
    d="M18.6007 1L2.40039 17.2004"
    stroke="#BEB3AB"
    stroke-width="1.54054"
    stroke-linecap="round"
    stroke-linejoin="round"
  />
</svg>
