<svg width="16" height="16" viewBox="0 0 16 16" fill="none" xmlns="http://www.w3.org/2000/svg">
<path d="M8.00032 0.833293C11.9537 0.833292 15.167 4.04663 15.167 7.99996C15.167 11.9533 11.9537 15.1666 8.00033 15.1666C4.04699 15.1666 0.833659 11.9533 0.833659 7.99996C0.833659 4.04663 4.04699 0.833293 8.00032 0.833293ZM8.00033 14.1666C11.4003 14.1666 14.167 11.4 14.167 7.99996C14.167 4.59996 11.4003 1.83329 8.00032 1.83329C4.60033 1.83329 1.83366 4.59996 1.83366 7.99996C1.83366 11.4 4.60033 14.1666 8.00033 14.1666Z" fill="#93C5FD"/>
<path d="M8.00049 6.83329C8.27382 6.83329 8.50049 7.05996 8.50049 7.33329L8.50049 10.6666C8.50049 10.94 8.27382 11.1666 8.00049 11.1666C7.72716 11.1666 7.50049 10.94 7.50049 10.6666L7.50049 7.33329C7.50049 7.05996 7.72715 6.83329 8.00049 6.83329Z" fill="#93C5FD"/>
<path d="M8.00033 4.6667C8.08699 4.6667 8.17366 4.6867 8.25366 4.72004C8.33366 4.75337 8.40699 4.80004 8.47366 4.86004C8.53366 4.9267 8.58033 4.99337 8.61366 5.08004C8.64699 5.16004 8.66699 5.2467 8.66699 5.33337C8.66699 5.42004 8.64699 5.5067 8.61366 5.5867C8.58033 5.6667 8.53366 5.74004 8.47366 5.8067C8.40699 5.8667 8.33366 5.91337 8.25366 5.9467C8.09366 6.01337 7.90699 6.01337 7.74699 5.9467C7.66699 5.91337 7.59366 5.8667 7.52699 5.8067C7.46699 5.74004 7.42033 5.6667 7.38699 5.5867C7.35366 5.5067 7.33366 5.42004 7.33366 5.33337C7.33366 5.2467 7.35366 5.16004 7.38699 5.08004C7.42033 4.99337 7.46699 4.9267 7.52699 4.86004C7.59366 4.80004 7.66699 4.75337 7.74699 4.72004C7.82699 4.6867 7.91366 4.6667 8.00033 4.6667Z" fill="#93C5FD"/>
</svg>
