<svg width="15" height="15" viewBox="0 0 15 15" fill="none" xmlns="http://www.w3.org/2000/svg">
<path d="M13.4521 0.809086H2.04809C1.86526 0.804186 1.6833 0.835885 1.51294 0.902485C1.34259 0.968985 1.18729 1.06899 1.05623 1.19659C0.925169 1.32419 0.820998 1.47669 0.749868 1.64519C0.678737 1.81369 0.64209 1.99469 0.64209 2.17759C0.64209 2.36049 0.678737 2.54159 0.749868 2.71009C0.820998 2.87859 0.925169 3.03109 1.05623 3.15869C1.18729 3.28619 1.34259 3.38619 1.51294 3.45279C1.6833 3.51929 1.86526 3.55109 2.04809 3.54609H13.4481C13.6309 3.55109 13.8129 3.51929 13.9832 3.45279C14.1536 3.38619 14.3089 3.28619 14.4399 3.15869C14.571 3.03109 14.6752 2.87859 14.7463 2.71009C14.8174 2.54159 14.8541 2.36049 14.8541 2.17759C14.8541 1.99469 14.8174 1.81369 14.7463 1.64519C14.6752 1.47669 14.571 1.32419 14.4399 1.19659C14.3089 1.06899 14.1536 0.968985 13.9832 0.902485C13.8129 0.835885 13.6309 0.804186 13.4481 0.809086H13.4521Z" fill="#343434"/>
<path d="M13.4521 6.13113H2.04809C1.86526 6.12613 1.6833 6.15793 1.51294 6.22443C1.34259 6.29103 1.18729 6.39103 1.05623 6.51853C0.925169 6.64613 0.820998 6.79862 0.749868 6.96712C0.678737 7.13562 0.64209 7.31673 0.64209 7.49963C0.64209 7.68243 0.678737 7.86353 0.749868 8.03203C0.820998 8.20053 0.925169 8.35302 1.05623 8.48062C1.18729 8.60812 1.34259 8.70823 1.51294 8.77473C1.6833 8.84133 1.86526 8.87302 2.04809 8.86812H13.4481C13.6309 8.87302 13.8129 8.84133 13.9832 8.77473C14.1536 8.70823 14.3089 8.60812 14.4399 8.48062C14.571 8.35302 14.6752 8.20053 14.7463 8.03203C14.8174 7.86353 14.8541 7.68243 14.8541 7.49963C14.8541 7.31673 14.8174 7.13562 14.7463 6.96712C14.6752 6.79862 14.571 6.64613 14.4399 6.51853C14.3089 6.39103 14.1536 6.29103 13.9832 6.22443C13.8129 6.15793 13.6309 6.12613 13.4481 6.13113H13.4521Z" fill="#343434"/>
<path d="M13.4521 11.4531H2.04809C1.86526 11.4482 1.6833 11.4799 1.51294 11.5465C1.34259 11.613 1.18729 11.713 1.05623 11.8406C0.925169 11.9682 0.820998 12.1207 0.749868 12.2892C0.678737 12.4577 0.64209 12.6387 0.64209 12.8216C0.64209 13.0045 0.678737 13.1855 0.749868 13.354C0.820998 13.5225 0.925169 13.6751 1.05623 13.8026C1.18729 13.9302 1.34259 14.0302 1.51294 14.0968C1.6833 14.1633 1.86526 14.1951 2.04809 14.1901H13.4481C13.6309 14.1951 13.8129 14.1633 13.9832 14.0968C14.1536 14.0302 14.3089 13.9302 14.4399 13.8026C14.571 13.6751 14.6752 13.5225 14.7463 13.354C14.8174 13.1855 14.8541 13.0045 14.8541 12.8216C14.8541 12.6387 14.8174 12.4577 14.7463 12.2892C14.6752 12.1207 14.571 11.9682 14.4399 11.8406C14.3089 11.713 14.1536 11.613 13.9832 11.5465C13.8129 11.4799 13.6309 11.4482 13.4481 11.4531H13.4521Z" fill="#343434"/>
</svg>
