<svg width="7" height="13" viewBox="0 0 7 13" fill="none" xmlns="http://www.w3.org/2000/svg">
<path d="M4.78278 11.934C5.12537 12.3257 5.72059 12.3654 6.11223 12.0228C6.50387 11.6802 6.54363 11.085 6.20104 10.6934L1.70425 5.55278C1.36166 5.16114 0.766441 5.12138 0.374801 5.46397C-0.0168391 5.80657 -0.0566087 6.40178 0.285991 6.79343L4.78278 11.934Z" fill="#FF6A6A"/>
<path d="M0.239615 5.40907C-0.106955 5.79721 -0.0732656 6.3928 0.314865 6.73936C0.703005 7.08593 1.29859 7.05223 1.64515 6.6641L6.19409 1.5696C6.54066 1.1815 6.50696 0.585904 6.11883 0.239304C5.7307 -0.107296 5.13511 -0.0735959 4.78854 0.314604L0.239615 5.40907Z" fill="#FF6A6A"/>
</svg>
