<svg width="12" height="15" viewBox="0 0 12 15" fill="none" xmlns="http://www.w3.org/2000/svg">
<path d="M9.844 5.625H9.375V3.75C9.375 2.75544 8.9799 1.80161 8.2767 1.09835C7.57339 0.395088 6.61956 0 5.625 0C4.63044 0 3.67661 0.395088 2.97335 1.09835C2.27009 1.80161 1.875 2.75544 1.875 3.75V5.625H1.406C1.03327 5.62553 0.67595 5.77383 0.41239 6.03739C0.14883 6.30095 0.00053 6.65827 0 7.031V13.594C0.00053 13.9667 0.14883 14.324 0.41239 14.5876C0.67595 14.8512 1.03327 14.9995 1.406 15H9.844C10.2167 14.9995 10.574 14.8512 10.8376 14.5876C11.1012 14.324 11.2495 13.9667 11.25 13.594V7.031C11.2495 6.65827 11.1012 6.30095 10.8376 6.03739C10.574 5.77383 10.2167 5.62553 9.844 5.625ZM3.125 3.75C3.125 3.08696 3.38839 2.45107 3.85723 1.98223C4.32607 1.51339 4.96196 1.25 5.625 1.25C6.28804 1.25 6.92393 1.51339 7.39277 1.98223C7.86161 2.45107 8.125 3.08696 8.125 3.75V5.625H3.125V3.75ZM6.25 10.45V11.874C6.25 12.0398 6.18415 12.1987 6.06694 12.3159C5.94973 12.4332 5.79076 12.499 5.625 12.499C5.45924 12.499 5.30027 12.4332 5.18306 12.3159C5.06585 12.1987 5 12.0398 5 11.874V10.451C4.7617 10.3134 4.57545 10.101 4.47015 9.84682C4.36485 9.5926 4.34637 9.31074 4.41759 9.04494C4.48881 8.77915 4.64574 8.54429 4.86405 8.37678C5.08235 8.20926 5.34983 8.11847 5.625 8.11847C5.90017 8.11847 6.16765 8.20926 6.38595 8.37678C6.60426 8.54429 6.76119 8.77915 6.83241 9.04494C6.90363 9.31074 6.88515 9.5926 6.77985 9.84682C6.67455 10.101 6.4883 10.3134 6.25 10.451V10.45Z" fill="#343434"/>
</svg>
