<svg width="15" height="20" viewBox="0 0 15 20" fill="none" xmlns="http://www.w3.org/2000/svg">
<path d="M13.1253 7.5H12.5V5C12.5 3.67392 11.9732 2.40215 11.0356 1.46447C10.0979 0.526784 8.82608 0 7.5 0C6.17392 0 4.90215 0.526784 3.96447 1.46447C3.02679 2.40215 2.5 3.67392 2.5 5V7.5H1.87467C1.37769 7.50071 0.901267 7.69844 0.549853 8.04985C0.19844 8.40127 0.000706667 8.87769 0 9.37467V18.1253C0.000706667 18.6223 0.19844 19.0987 0.549853 19.4501C0.901267 19.8016 1.37769 19.9993 1.87467 20H13.1253C13.6223 19.9993 14.0987 19.8016 14.4501 19.4501C14.8016 19.0987 14.9993 18.6223 15 18.1253V9.37467C14.9993 8.87769 14.8016 8.40127 14.4501 8.04985C14.0987 7.69844 13.6223 7.50071 13.1253 7.5ZM4.16667 5C4.16667 4.11595 4.51785 3.26809 5.14297 2.64297C5.76809 2.01785 6.61595 1.66667 7.5 1.66667C8.38405 1.66667 9.23191 2.01785 9.85703 2.64297C10.4821 3.26809 10.8333 4.11595 10.8333 5V7.5H4.16667V5ZM8.33333 13.9333V15.832C8.33333 16.0531 8.24553 16.2649 8.08925 16.4212C7.93297 16.5776 7.72101 16.6653 7.5 16.6653C7.27899 16.6653 7.06703 16.5776 6.91075 16.4212C6.75447 16.2649 6.66667 16.0531 6.66667 15.832V13.9347C6.34893 13.7512 6.1006 13.468 5.9602 13.1291C5.8198 12.7901 5.79516 12.4143 5.89012 12.0599C5.98508 11.7055 6.19432 11.3924 6.4854 11.169C6.77647 10.9457 7.13311 10.8246 7.5 10.8246C7.86689 10.8246 8.22353 10.9457 8.5146 11.169C8.80568 11.3924 9.01492 11.7055 9.10988 12.0599C9.20484 12.4143 9.1802 12.7901 9.0398 13.1291C8.8994 13.468 8.65107 13.7512 8.33333 13.9347V13.9333Z" fill="#F1F1F1"/>
</svg>
