<svg width="19" height="19" viewBox="0 0 19 19" fill="none" xmlns="http://www.w3.org/2000/svg">
<path d="M18.997 8.39739C18.9809 8.24248 18.9018 8.10161 18.7782 8.00805L17.2732 6.86238L17.8209 5.04616C17.8659 4.89749 17.8473 4.73635 17.7702 4.60172C17.6926 4.46709 17.5634 4.3704 17.4129 4.33505L15.5743 3.90361L15.3395 2.02085C15.3203 1.86646 15.2381 1.72716 15.113 1.63567C14.9878 1.54418 14.8306 1.50883 14.6785 1.53846L12.8244 1.89609L11.8475 0.271681C11.7673 0.138609 11.636 0.0445227 11.4849 0.0122943C11.3334 -0.0199341 11.1757 0.0117745 11.049 0.100662L9.5 1.18551L7.95053 0.101182C7.8233 0.0122943 7.66556 -0.0199341 7.51455 0.0128141C7.36301 0.0450425 7.23217 0.139129 7.152 0.2722L6.17557 1.89661L4.32148 1.53898C4.16943 1.50987 4.01221 1.5447 3.88705 1.63619C3.76189 1.72768 3.68018 1.86698 3.66052 2.02137L3.42572 3.90413L1.58715 4.33557C1.43665 4.37092 1.30736 4.46761 1.22978 4.60224C1.1522 4.73687 1.1341 4.89749 1.17909 5.04668L1.72679 6.8629L0.221795 8.00857C0.0987059 8.10265 0.0195774 8.24352 0.00302766 8.39791C-0.0130049 8.55281 0.0350928 8.7072 0.13646 8.82467L1.37149 10.2599L0.460215 11.9217C0.385741 12.0579 0.370225 12.219 0.418323 12.3667C0.465904 12.5143 0.57296 12.6359 0.712598 12.702L2.42188 13.5082L2.26207 15.3993C2.24914 15.5542 2.30034 15.7075 2.40378 15.8234C2.50721 15.9388 2.65357 16.0064 2.80821 16.0095L4.69592 16.0475L5.31498 17.8403C5.36567 17.9874 5.47479 18.1064 5.61598 18.1699C5.75717 18.2333 5.91853 18.2348 6.06076 18.1745L7.80055 17.4374L9.09143 18.8222C9.19745 18.9355 9.34485 19 9.49948 19C9.65412 19 9.80203 18.9355 9.90754 18.8222L11.1984 17.4374L12.9382 18.1745C13.081 18.2348 13.2418 18.2333 13.383 18.1699C13.5242 18.1064 13.6333 17.9874 13.684 17.8403L14.3031 16.0475L16.1908 16.0095C16.3454 16.0064 16.4918 15.9393 16.5952 15.8234C16.6986 15.708 16.7498 15.5547 16.7369 15.3993L16.5771 13.5082L18.2864 12.702C18.4265 12.6359 18.5331 12.5143 18.5806 12.3667C18.6282 12.219 18.6132 12.0579 18.5388 11.9217L17.6275 10.2599L18.8625 8.82467C18.9649 8.70668 19.013 8.55229 18.997 8.39739Z" fill="#0060f0"/>
</svg>
