 <svg
                width="36"
                height="36"
                viewBox="0 0 36 36"
                fill="none"
                xmlns="http://www.w3.org/2000/svg"
              >
                <rect
                  x="2"
                  y="2"
                  width="32"
                  height="32"
                  rx="16"
                  fill="#E3EEFD"
                />
                <path
                  d="M11.3333 16.5C11.0599 16.5 10.8333 16.2733 10.8333 16V14.3333C10.8333 12.4 12.4066 10.8333 14.3333 10.8333H15.9999C16.2733 10.8333 16.4999 11.06 16.4999 11.3333C16.4999 11.6067 16.2733 11.8333 15.9999 11.8333H14.3333C12.9533 11.8333 11.8333 12.9533 11.8333 14.3333V16C11.8333 16.2733 11.6066 16.5 11.3333 16.5Z"
                  fill="#0060F0"
                />
                <path
                  d="M24.6667 16.5C24.3933 16.5 24.1667 16.2733 24.1667 16V14.3333C24.1667 12.9533 23.0467 11.8333 21.6667 11.8333H20C19.7267 11.8333 19.5 11.6067 19.5 11.3333C19.5 11.06 19.7267 10.8333 20 10.8333H21.6667C23.5933 10.8333 25.1667 12.4 25.1667 14.3333V16C25.1667 16.2733 24.94 16.5 24.6667 16.5Z"
                  fill="#0060F0"
                />
                <path
                  d="M21.6667 25.1667H20.6667C20.3934 25.1667 20.1667 24.94 20.1667 24.6667C20.1667 24.3933 20.3934 24.1667 20.6667 24.1667H21.6667C23.0467 24.1667 24.1667 23.0467 24.1667 21.6667V20.6667C24.1667 20.3933 24.3934 20.1667 24.6667 20.1667C24.9401 20.1667 25.1667 20.3933 25.1667 20.6667V21.6667C25.1667 23.6 23.5934 25.1667 21.6667 25.1667Z"
                  fill="#0060F0"
                />
                <path
                  d="M15.9999 25.1667H14.3333C12.4066 25.1667 10.8333 23.6 10.8333 21.6667V20C10.8333 19.7267 11.0599 19.5 11.3333 19.5C11.6066 19.5 11.8333 19.7267 11.8333 20V21.6667C11.8333 23.0467 12.9533 24.1667 14.3333 24.1667H15.9999C16.2733 24.1667 16.4999 24.3933 16.4999 24.6667C16.4999 24.94 16.2733 25.1667 15.9999 25.1667Z"
                  fill="#0060F0"
                />
                <path
                  d="M19.3334 22.1667H16.6667C15.0534 22.1667 14.1667 21.28 14.1667 19.6667V16.3333C14.1667 14.72 15.0534 13.8333 16.6667 13.8333H19.3334C20.9467 13.8333 21.8334 14.72 21.8334 16.3333V19.6667C21.8334 21.28 20.9467 22.1667 19.3334 22.1667ZM16.6667 14.8333C15.6134 14.8333 15.1667 15.28 15.1667 16.3333V19.6667C15.1667 20.72 15.6134 21.1667 16.6667 21.1667H19.3334C20.3867 21.1667 20.8334 20.72 20.8334 19.6667V16.3333C20.8334 15.28 20.3867 14.8333 19.3334 14.8333H16.6667Z"
                  fill="#0060F0"
                />
                <path
                  d="M22.6666 18.5H13.3333C13.0599 18.5 12.8333 18.2733 12.8333 18C12.8333 17.7267 13.0599 17.5 13.3333 17.5H22.6666C22.9399 17.5 23.1666 17.7267 23.1666 18C23.1666 18.2733 22.9399 18.5 22.6666 18.5Z"
                  fill="#0060F0"
                />
                <rect
                  x="2"
                  y="2"
                  width="32"
                  height="32"
                  rx="16"
                  stroke="#F2F7FE"
                  stroke-width="4"
                />
              </svg>