<svg width="13" height="12" viewBox="0 0 13 12" fill="none" xmlns="http://www.w3.org/2000/svg">
<path d="M7.41843 2.0056L0.808927 8.61558C0.775675 8.64893 0.751665 8.69104 0.740231 8.7363L0.00763079 11.6768C-0.0142834 11.7653 0.0117278 11.8595 0.076327 11.9241C0.125205 11.9729 0.191805 12 0.25993 12C0.280796 12 0.302138 11.9974 0.322909 11.9922L3.26341 11.2595C3.30924 11.248 3.35088 11.2241 3.38413 11.1909L9.99421 4.58137L7.41843 2.0056Z" fill="white"/>
<path d="M11.6317 1.10437L10.896 0.368623C10.4042 -0.123112 9.54719 -0.122636 9.05603 0.368623L8.15479 1.26987L10.7305 3.84555L11.6317 2.9443C11.8773 2.69877 12.0126 2.37196 12.0126 2.02438C12.0126 1.6768 11.8773 1.35 11.6317 1.10437Z" fill="white"/>
</svg>
