<svg width="12" height="12" viewBox="0 0 12 12" fill="none" xmlns="http://www.w3.org/2000/svg">
<path d="M10.2403 4.43927C10.9909 4.43927 11.5993 5.04775 11.5993 5.79836C11.5993 6.48641 11.088 7.05504 10.4247 7.14503L10.2403 7.15744H1.35909C0.608483 7.15744 0 6.54896 0 5.79836C0 5.1103 0.511295 4.54167 1.17467 4.45168L1.35909 4.43927H10.2403Z" fill="white"/>
<path d="M5.79903 0C6.48708 0 7.05571 0.511295 7.14571 1.17467L7.15811 1.35909V10.2403C7.15811 10.9909 6.54963 11.5993 5.79903 11.5993C5.11097 11.5993 4.54234 11.088 4.45235 10.4247L4.43994 10.2403V1.35909C4.43994 0.608483 5.04842 0 5.79903 0Z" fill="white"/>
</svg>
