<svg width="16" height="16" viewBox="0 0 16 16" fill="none" xmlns="http://www.w3.org/2000/svg">
<path d="M7.99964 16C7.17153 16 6.50012 15.3279 6.50012 14.4998V9.49988H1.49988C0.671759 9.49988 0 8.82847 0 8C0 7.17153 0.671759 6.49977 1.49988 6.49977H6.50012V1.49952C6.50012 0.672115 7.17153 0 7.99964 0C8.82847 0 9.49988 0.67176 9.49988 1.49952V6.49977H14.4998C15.3282 6.49977 15.9996 7.17117 15.9996 8C15.9996 8.82847 15.3282 9.49988 14.4998 9.49988H9.49988V14.4998C9.49988 15.3279 8.82847 16 7.99964 16Z" fill="white"/>
</svg>
