<svg width="18" height="20" viewBox="0 0 18 20" fill="none" xmlns="http://www.w3.org/2000/svg">
<path d="M8.95252 0C6.09536 0 3.75977 2.33559 3.75977 5.19275C3.75977 8.04991 6.09536 10.3855 8.95252 10.3855C11.8097 10.3855 14.1453 8.04991 14.1453 5.19275C14.1453 2.33559 11.8097 0 8.95252 0Z" fill="#BABABA"/>
<path d="M17.8642 14.5353C17.7281 14.1951 17.5467 13.8777 17.3426 13.5829C16.2995 12.0409 14.6896 11.0205 12.8755 10.7711C12.6488 10.7484 12.3994 10.7937 12.2179 10.9298C11.2655 11.6328 10.1318 11.9956 8.95261 11.9956C7.77345 11.9956 6.63968 11.6328 5.68729 10.9298C5.50587 10.7937 5.25643 10.7257 5.0297 10.7711C3.21564 11.0205 1.583 12.0409 0.562599 13.5829C0.358519 13.8777 0.177095 14.2178 0.041071 14.5353C-0.0269412 14.6713 -0.00428496 14.8301 0.0637272 14.9661C0.245151 15.2836 0.471887 15.6011 0.675967 15.8732C0.993415 16.304 1.33356 16.6895 1.71907 17.0523C2.03651 17.3697 2.39932 17.6645 2.76216 17.9593C4.55353 19.2972 6.70774 20.0001 8.92996 20.0001C11.1522 20.0001 13.3064 19.2972 15.0978 17.9593C15.4606 17.6872 15.8234 17.3697 16.1409 17.0523C16.5037 16.6895 16.8665 16.304 17.184 15.8732C17.4107 15.5784 17.6148 15.2836 17.7962 14.9661C17.9095 14.8301 17.9322 14.6713 17.8642 14.5353Z" fill="#BABABA"/>
</svg>
