<svg width="24" height="24" viewBox="0 0 24 24" fill="none" xmlns="http://www.w3.org/2000/svg">
<path d="M14.7501 0H22.2501C23.215 0 24 0.784973 24 1.74994V6.24994C24 7.21509 23.215 8.00006 22.2501 8.00006H14.7501C13.7849 8.00006 12.9999 7.21509 12.9999 6.24994V1.74994C12.9999 0.784973 13.7849 0 14.7501 0Z" fill="#F1F1F1"/>
<path d="M14.7501 9.99994H22.2501C23.215 9.99994 24 10.7849 24 11.7501V22.2501C24 23.215 23.215 24 22.2501 24H14.7501C13.7849 24 12.9999 23.215 12.9999 22.2501V11.7501C12.9999 10.7849 13.7849 9.99994 14.7501 9.99994Z" fill="#F1F1F1"/>
<path d="M1.74988 15.9999H9.24988C10.215 15.9999 11 16.7849 11 17.7501V22.2501C11 23.215 10.215 24 9.24988 24H1.74988C0.784912 24 -6.10352e-05 23.215 -6.10352e-05 22.2501V17.7501C-6.10352e-05 16.7849 0.784912 15.9999 1.74988 15.9999Z" fill="#F1F1F1"/>
<path d="M1.74988 0H9.24988C10.215 0 11 0.784973 11 1.74994V12.2499C11 13.2151 10.215 14.0001 9.24988 14.0001H1.74988C0.784912 14.0001 -6.10352e-05 13.2151 -6.10352e-05 12.2499V1.74994C-6.10352e-05 0.784973 0.784912 0 1.74988 0V0Z" fill="#F1F1F1"/>
</svg>
