<svg width="14" height="8" viewBox="0 0 14 8" fill="none" xmlns="http://www.w3.org/2000/svg">
<path d="M-8.48547e-07 6.79748C-8.21752e-07 6.49098 0.121049 6.18288 0.363151 5.9486L6.1172 0.353033C6.35101 0.126771 6.66773 3.12667e-07 6.99938 3.4166e-07C7.32936 3.70509e-07 7.64609 0.126771 7.8799 0.353033L13.6373 5.9486C14.1215 6.41877 14.1215 7.1794 13.6339 7.64957C13.1464 8.11814 12.3588 8.11654 11.8746 7.64636L6.99938 2.9077L2.12419 7.64636C1.63999 8.11654 0.853987 8.11814 0.366468 7.64957C0.121051 7.41529 -8.75482e-07 7.10558 -8.48547e-07 6.79748Z" fill="#C6CCD6"/>
</svg>
