<svg width="24" height="21" viewBox="0 0 24 21" fill="none" xmlns="http://www.w3.org/2000/svg">
<path d="M21.5138 2.3212H10.7672L10.3332 1.48056C9.93322 0.579956 9.04392 0 8.06287 0H2.48625C1.11311 5.9777e-05 0 1.11902 0 2.49951V8.92763V14.3468V18.7932C0 20.0121 0.982774 21 2.19519 21H21.8048C23.0172 21 24 20.0121 24 18.7932V14.3468V8.92763V4.82065C24 3.44028 22.8869 2.3212 21.5138 2.3212ZM8.05562 2.51069C8.0747 2.55343 8.09504 2.59557 8.1165 2.63712L8.55051 3.47782C8.98006 4.30968 9.83475 4.83177 10.7671 4.83177L21.5026 4.83189V6.72072H2.49737V2.51063H8.05562V2.51069Z" fill="#F1F1F1"/>
</svg>
