<svg
  width="20"
  height="20"
  viewBox="0 0 20 20"
  fill="none"
  xmlns="http://www.w3.org/2000/svg"
>
<path
    d="M19.9998 9.94365C20.0128 12.2367 19.2372 14.4646 17.8029 16.2542C16.3688 18.0433 14.3631 19.2854 12.1224 19.7722C9.88147 20.2589 7.54137 19.9605 5.49439 18.9273C3.44712 17.8941 1.81714 16.1887 0.877649 14.097C-0.0618371 12.0053 -0.253664 9.65409 0.334035 7.43748C0.921688 5.22101 2.2533 3.27368 4.10581 1.92199C5.95831 0.570442 8.21904 -0.103368 10.5094 0.0133057C12.7995 0.130017 14.98 1.03027 16.6856 2.56327V0H18.8955V5.52448C18.8955 5.81747 18.779 6.09843 18.5718 6.30559C18.3646 6.51294 18.0837 6.62928 17.7905 6.62928H12.2663V4.41949H15.4602H15.46C13.7442 2.74538 11.3486 1.96205 8.975 2.29957C6.60142 2.63695 4.51897 4.05673 3.33808 6.14298C2.15686 8.22905 2.01072 10.7451 2.94261 12.954C3.87452 15.1627 5.77882 16.8141 8.09747 17.4237C10.4161 18.0336 12.8863 17.5327 14.7842 16.0681C16.6822 14.6035 17.793 12.3412 17.7909 9.94369L19.9998 9.94365Z"
    fill="#0060f0"
  />
</svg>
