<svg
  width="16"
  height="16"
  viewBox="0 0 16 16"
  fill="none"
  xmlns="http://www.w3.org/2000/svg"
>
<path
    d="M15.2126 14.567L11.4046 10.606C12.3489 9.47995 12.8808 8.06547 12.9125 6.59623C12.9442 5.12698 12.4737 3.69088 11.5789 2.52517C10.684 1.35945 9.41825 0.533867 7.99072 0.184799C6.56319 -0.164268 5.0593 -0.0159336 3.72747 0.605298C2.39565 1.22653 1.31558 2.28349 0.665693 3.60157C0.015807 4.91965 -0.165014 6.41998 0.153102 7.85473C0.471218 9.28947 1.26924 10.5728 2.41533 11.4926C3.56142 12.4125 4.98701 12.9139 6.4566 12.914C7.78128 12.9172 9.07422 12.5087 10.1566 11.745L13.9936 15.736C14.1486 15.8977 14.3615 15.9911 14.5854 15.9958C14.8093 16.0005 15.0259 15.916 15.1876 15.761C15.3492 15.606 15.4427 15.3931 15.4474 15.1692C15.4521 14.9453 15.3676 14.7287 15.2126 14.567ZM6.4566 1.67901C7.401 1.67901 8.3242 1.95905 9.10944 2.48374C9.89469 3.00842 10.5067 3.75417 10.8681 4.62669C11.2295 5.49921 11.3241 6.4593 11.1398 7.38556C10.9556 8.31182 10.5008 9.16264 9.83303 9.83044C9.16524 10.4982 8.31441 10.953 7.38815 11.1373C6.46189 11.3215 5.5018 11.2269 4.62928 10.8655C3.75677 10.5041 3.01101 9.8921 2.48633 9.10685C1.96165 8.32161 1.6816 7.39841 1.6816 6.45401C1.68292 5.188 2.18642 3.97423 3.08162 3.07903C3.97682 2.18383 5.19059 1.68033 6.4566 1.67901Z"
    fill="#aaaeb9"
  />
</svg>
