<svg width="16" height="16" viewBox="0 0 16 16" fill="none" xmlns="http://www.w3.org/2000/svg">
<path fill-rule="evenodd" clip-rule="evenodd" d="M7.68923 0C3.44259 0 0 3.36655 0 7.51941C0 11.6723 3.44259 15.0388 7.68923 15.0388C9.5055 15.0388 11.1747 14.423 12.4904 13.3932L14.9896 15.831L15.0561 15.887C15.2882 16.0549 15.6171 16.0358 15.8271 15.8299C16.0581 15.6035 16.0576 15.2368 15.826 15.0109L13.3561 12.6019C14.6119 11.2635 15.3785 9.479 15.3785 7.51941C15.3785 3.36655 11.9359 0 7.68923 0ZM7.68926 1.1582C11.2818 1.1582 14.1941 4.00622 14.1941 7.51942C14.1941 11.0326 11.2818 13.8806 7.68926 13.8806C4.09671 13.8806 1.18438 11.0326 1.18438 7.51942C1.18438 4.00622 4.09671 1.1582 7.68926 1.1582Z" fill="#AAAEB9"/>
</svg>
