<svg
                width="36"
                height="36"
                viewBox="0 0 36 36"
                fill="none"
                xmlns="http://www.w3.org/2000/svg"
              >
                <rect
                  x="2"
                  y="2"
                  width="32"
                  height="32"
                  rx="16"
                  fill="#D9E7FD"
                />
                <path
                  d="M17.9999 25.1733C17.2733 25.1733 16.5533 24.96 15.9866 24.54L13.1199 22.4C12.3599 21.8333 11.7666 20.6467 11.7666 19.7067V14.7467C11.7666 13.72 12.5199 12.6267 13.4866 12.2667L16.8133 11.02C17.4733 10.7733 18.5133 10.7733 19.1733 11.02L22.4999 12.2667C23.4666 12.6267 24.2199 13.72 24.2199 14.7467V19.7C24.2199 20.6467 23.6266 21.8267 22.8666 22.3933L19.9999 24.5333C19.4466 24.96 18.7266 25.1733 17.9999 25.1733ZM17.1666 11.96L13.8399 13.2067C13.2733 13.42 12.7733 14.14 12.7733 14.7533V19.7067C12.7733 20.34 13.2199 21.2267 13.7199 21.6L16.5866 23.74C17.3533 24.3133 18.6466 24.3133 19.4199 23.74L22.2866 21.6C22.7933 21.22 23.2333 20.34 23.2333 19.7067V14.7467C23.2333 14.14 22.7333 13.42 22.1666 13.2L18.8399 11.9533C18.3866 11.7933 17.6133 11.7933 17.1666 11.96Z"
                  fill="#0060F0"
                />
                <rect
                  x="2"
                  y="2"
                  width="32"
                  height="32"
                  rx="16"
                  stroke="#E5EFFD"
                  stroke-width="4"
                />
              </svg>