<svg width="14" height="11" viewBox="0 0 14 11" fill="none" xmlns="http://www.w3.org/2000/svg">
<path d="M6.33595 9.95953C6.18503 10.1105 6.00586 10.2302 5.80867 10.3119C5.61147 10.3936 5.40012 10.4356 5.18667 10.4356C4.97323 10.4356 4.76187 10.3936 4.56467 10.3119C4.36748 10.2302 4.18831 10.1105 4.0374 9.95953L0.476045 6.39815C0.171239 6.09334 0 5.67994 0 5.24888C0 5.03544 0.0420401 4.82409 0.12372 4.6269C0.2054 4.4297 0.32512 4.25053 0.476045 4.0996C0.62697 3.94868 0.806141 3.82896 1.00334 3.74728C1.20053 3.6656 1.41188 3.62356 1.62532 3.62356C2.05639 3.62356 2.46979 3.79479 2.7746 4.0996L4.89897 6.22164C4.97607 6.29852 5.08051 6.34169 5.18939 6.34169C5.29827 6.34169 5.40272 6.29852 5.47982 6.22164L11.2254 0.476045C11.3763 0.32512 11.5555 0.2054 11.7527 0.123721C11.9499 0.0420402 12.1612 3.11035e-09 12.3747 0C12.5881 -3.11035e-09 12.7995 0.0420402 12.9967 0.123721C13.1939 0.2054 13.373 0.32512 13.524 0.476045C13.6749 0.62697 13.7946 0.806144 13.8763 1.00334C13.958 1.20053 14 1.41188 14 1.62532C14 1.83876 13.958 2.05011 13.8763 2.2473C13.7946 2.4445 13.6749 2.62367 13.524 2.77459L6.33595 9.95953Z" fill="white"/>
</svg>
