<svg width="22" height="16" viewBox="0 0 22 16" fill="none" xmlns="http://www.w3.org/2000/svg">
<path d="M9.71431 15.27C9.48293 15.5014 9.20822 15.685 8.90588 15.8102C8.60354 15.9355 8.2795 16 7.95224 16C7.62498 16 7.30093 15.9355 6.99858 15.8102C6.69625 15.685 6.42155 15.5014 6.19016 15.27L0.729876 9.80968C0.262544 9.34235 0 8.70852 0 8.04761C0 7.72036 0.0644562 7.39632 0.189689 7.09399C0.31492 6.79165 0.498476 6.51694 0.729876 6.28553C0.961274 6.05414 1.23598 5.87059 1.53832 5.74535C1.84066 5.62012 2.16471 5.55567 2.49195 5.55567C3.15286 5.55567 3.7867 5.8182 4.25403 6.28553L7.51112 9.53905C7.62934 9.65693 7.78947 9.72312 7.95641 9.72312C8.12334 9.72312 8.28348 9.65693 8.4017 9.53905L17.2109 0.729876C17.4423 0.498477 17.717 0.31492 18.0193 0.189689C18.3216 0.0644563 18.6457 4.76881e-09 18.9729 0C19.3002 -4.76881e-09 19.6242 0.0644563 19.9266 0.189689C20.2289 0.31492 20.5036 0.498477 20.735 0.729876C20.9664 0.961274 21.15 1.23598 21.2752 1.53833C21.4005 1.84066 21.4649 2.1647 21.4649 2.49195C21.4649 2.81919 21.4005 3.14325 21.2752 3.44558C21.15 3.74792 20.9664 4.02263 20.735 4.25402L9.71431 15.27Z" fill="#86CD74"/>
</svg>
