 <svg
                width="36"
                height="36"
                viewBox="0 0 36 36"
                fill="none"
                xmlns="http://www.w3.org/2000/svg"
              >
                <rect
                  x="2"
                  y="2"
                  width="32"
                  height="32"
                  rx="16"
                  fill="#E3EEFD"
                />
                <path
                  d="M17.9998 25.1667C17.8398 25.1667 17.6798 25.1467 17.5265 25.1001C14.0665 24.1467 11.5598 20.9134 11.5598 17.4067V14.48C11.5598 13.7334 12.0998 12.9267 12.7932 12.6401L16.5065 11.12C17.4732 10.7267 18.5331 10.7267 19.4931 11.12L23.2065 12.6401C23.8998 12.9267 24.4398 13.7334 24.4398 14.48V17.4067C24.4398 20.9067 21.9265 24.1401 18.4731 25.1001C18.3198 25.1467 18.1598 25.1667 17.9998 25.1667ZM17.9998 11.8334C17.6198 11.8334 17.2465 11.9067 16.8865 12.0534L13.1732 13.5734C12.8532 13.7067 12.5598 14.14 12.5598 14.4867V17.4134C12.5598 20.4734 14.7598 23.3001 17.7932 24.1401C17.9265 24.1801 18.0731 24.1801 18.2065 24.1401C21.2398 23.3001 23.4398 20.4734 23.4398 17.4134V14.4867C23.4398 14.14 23.1465 13.7067 22.8265 13.5734L19.1132 12.0534C18.7532 11.9067 18.3798 11.8334 17.9998 11.8334Z"
                  fill="#0060F0"
                />
                <path
                  d="M18.0001 18.8333C16.9867 18.8333 16.1667 18.0133 16.1667 17C16.1667 15.9867 16.9867 15.1667 18.0001 15.1667C19.0134 15.1667 19.8334 15.9867 19.8334 17C19.8334 18.0133 19.0134 18.8333 18.0001 18.8333ZM18.0001 16.1667C17.5401 16.1667 17.1667 16.54 17.1667 17C17.1667 17.46 17.5401 17.8333 18.0001 17.8333C18.4601 17.8333 18.8334 17.46 18.8334 17C18.8334 16.54 18.4601 16.1667 18.0001 16.1667Z"
                  fill="#0060F0"
                />
                <path
                  d="M18 20.8333C17.7267 20.8333 17.5 20.6067 17.5 20.3333V18.3333C17.5 18.06 17.7267 17.8333 18 17.8333C18.2733 17.8333 18.5 18.06 18.5 18.3333V20.3333C18.5 20.6067 18.2733 20.8333 18 20.8333Z"
                  fill="#0060F0"
                />
                <rect
                  x="2"
                  y="2"
                  width="32"
                  height="32"
                  rx="16"
                  stroke="#F2F7FE"
                  stroke-width="4"
                />
              </svg>