<svg width="296" height="200" viewBox="0 0 296 200" fill="none" xmlns="http://www.w3.org/2000/svg">
<path d="M147.665 223.003C66.2266 223.003 0.207397 194.193 0.207397 158.654C0.207397 123.114 66.2266 94.3042 147.665 94.3042C229.104 94.3042 295.124 123.114 295.124 158.654C295.124 194.193 229.104 223.003 147.665 223.003Z" fill="#81BEFE"/>
<path opacity="0.48" d="M171.114 220.55L231.73 201.466L152.364 157.382L132.622 146.406L82.6846 166.951C88.3845 170.45 165.514 216.933 171.114 220.55Z" fill="url(#paint0_linear)"/>
<path opacity="0.48" d="M161.374 150.185L177.752 127.457L199.082 119.98L231.73 134.402L282.605 166.292L231.73 201.466L163.25 163.109" fill="url(#paint1_linear)"/>
<path d="M138.205 67.572L135.075 70.2056L135.553 150.212L132.775 152.015L128.951 149.625L125.127 67.554C128.591 67.545 134.732 67.7434 138.205 67.572Z" fill="#F2F2F2"/>
<path d="M170.907 105.154L199.082 119.981L199.921 126.943L170.104 110.114" fill="#E27623"/>
<path d="M169.762 93.7902L158.154 135.647L160.283 136.873C160.834 136.583 161.365 136.255 161.87 135.89C162.492 135.412 176.932 91.9053 176.932 91.9053" fill="#E27623"/>
<path d="M196.529 85.6279L204.448 110.349L203.772 159.781L201.995 160.953L199.542 159.42L197.711 110.322L190.568 85.6279" fill="#E27623"/>
<path d="M165.423 82.6606C165.423 82.6606 164.522 88.1351 166.434 91.1834C168.346 94.2318 173.315 86.674 173.315 86.674" fill="#0060f0"/>
<path d="M191.677 52.7812L190.568 72.8031L195.817 75.5268L196.782 54.0619" fill="#CA6B00"/>
<path d="M224.641 67.5271L228.168 94.5836L231.73 134.402L229.439 135.755L227.166 134.33L222.089 95.2059L218.68 67.5271" fill="#E27623"/>
<path d="M221.079 70.9003C222.558 71.3512 225.732 69.0244 226.679 67.5272C231.883 59.3472 230.386 48.245 221.016 43.0591C216.867 40.7683 212.583 38.4866 208.461 36.1236C204.8 34.0313 200.913 32.2455 197.359 29.9638C196.899 29.6431 196.406 29.3711 195.889 29.1521C194.085 28.4576 191.686 29.4768 190.559 30.9558" fill="#0060f0"/>
<path d="M221.467 70.5483C223.974 70.4581 225.408 67.1392 226.147 65.1821C228.186 59.7708 228.573 49.6066 222.459 46.5402C222.341 46.4889 222.24 46.4078 222.164 46.3049C222.088 46.202 222.04 46.081 222.026 45.9539L210.301 39.1718L201.219 33.9318C199.632 33.0299 198.126 31.9747 196.538 31.0458C194.951 30.1169 193.391 29.0526 191.641 30.1439C189.72 31.2983 189.459 33.4719 189.161 35.5011C188.373 40.1784 188.619 44.9716 189.883 49.5434C190.839 52.5828 193.247 54.6661 195.916 56.2174L204.349 61.1056L219.987 70.1244C220.24 70.2866 220.513 70.414 220.799 70.5032C221.018 70.5502 221.243 70.5654 221.467 70.5483Z" fill="#FCBD4C"/>
<path d="M223.18 92.2207L223.658 92.4913C224.98 93.1442 226.168 94.0407 227.157 95.1338C229.529 98.11 227.239 101.51 224.885 103.593C218.526 109.248 208.885 113.875 200.254 111.783C192.751 109.979 185.743 106.452 179.159 102.493C173.748 99.2464 167.011 95.3322 165.631 88.6403C164.982 85.5468 166.181 82.6337 168.192 80.3068C181.721 64.6141 200.786 79.3508 214.188 87.0259L223.18 92.2207Z" fill="#0060f0"/>
<path d="M227.87 92.834C227.979 92.9332 228.583 97.2712 228.15 98.57C227.261 100.676 225.937 102.569 224.263 104.126C222.684 105.397 223.631 96.5407 223.631 96.5407" fill="#0060f0"/>
<path d="M223.18 88.4868L223.658 88.7574C224.98 89.4103 226.168 90.3069 227.157 91.3999C229.529 94.3762 227.239 97.7763 224.885 99.8596C218.526 105.514 208.885 110.141 200.254 108.049C192.751 106.245 185.743 102.719 179.159 98.7593C173.748 95.5125 167.011 91.5983 165.631 84.9064C164.982 81.8129 166.181 78.8998 168.192 76.573C181.721 60.8802 200.786 75.617 214.188 83.292L223.18 88.4868Z" fill="#FCBD4C"/>
<path d="M210.96 114.641L209.914 191.302L207.136 193.105L203.312 190.715L200.498 115.228C203.991 115.089 207.478 114.894 210.96 114.641Z" fill="#F2F2F2"/>
<path d="M92.1006 90.8949L89.2867 166.419L85.4627 168.809L82.6849 167.005L82.1348 84.9334C85.6792 84.8793 88.7275 91.7607 92.1006 90.8949Z" fill="#F2F2F2"/>
<path d="M141.172 165.453C142.913 164.089 144.808 162.933 146.818 162.008C148.901 161.106 154.89 154.108 155.34 153.404C155.791 152.701 156.811 149.373 157.884 149.147C158.957 148.922 161.383 150.194 161.383 150.194C161.383 150.194 164.765 146.721 167.696 147.822C167.696 147.822 170.402 149.265 170.348 156.994C170.437 157.049 170.522 157.113 170.6 157.183C170.766 158.379 170.862 159.584 170.889 160.791C169.835 162.583 168.263 164.013 166.379 164.894C164.017 166.139 158.876 170.486 155.557 171.361C152.238 172.236 145.681 171.893 143.481 171.045C142.784 170.81 142.166 170.385 141.697 169.818C141.229 169.25 140.928 168.563 140.829 167.834C140.654 167.025 140.776 166.18 141.172 165.453Z" fill="#E05E00"/>
<path d="M160.68 149.896C160.68 149.896 164.648 146.622 167.669 147.822C170.691 149.021 170.312 155.939 170.312 155.939C170.312 155.939 170.312 159.898 165.505 162.252C160.698 164.606 161.51 166.617 155.241 168.565C148.973 170.513 142.317 168.953 141.1 167.059C139.882 165.165 143.806 163.515 144.076 163.271C144.347 163.028 149.974 159.573 151.246 157.86C152.518 156.146 154.791 153.161 155.593 151.682C156.396 150.203 156.693 148.895 158.227 148.976C159.116 149.041 159.968 149.36 160.68 149.896Z" fill="#FFC019"/>
<path d="M149.036 159.646C149.859 159.474 150.695 159.371 151.534 159.339C151.366 158.84 151.204 158.338 151.047 157.833C151.261 157.615 151.462 157.386 151.652 157.147L151.706 157.193C152.316 157.079 152.934 157.022 153.555 157.021L153.023 156.047C152.971 155.964 152.952 155.864 152.968 155.768C152.971 155.696 152.996 155.627 153.04 155.571C153.083 155.514 153.144 155.473 153.212 155.452C153.282 155.418 153.36 155.402 153.437 155.407C154.15 155.272 154.862 155.154 155.575 155.064C155.352 154.697 155.115 154.343 154.862 154C154.538 153.549 155.277 153.098 155.602 153.567C155.93 154.018 156.231 154.488 156.504 154.974C157.78 154.848 159.068 154.927 160.319 155.208C160.86 155.335 160.625 156.164 160.093 156.038C159.059 155.801 157.995 155.719 156.937 155.795C157.29 156.482 157.589 157.197 157.83 157.932C158.253 158.185 157.83 158.834 157.343 158.645C156.613 158.315 155.842 158.085 155.052 157.959C155.244 158.338 155.431 158.717 155.611 159.095C155.712 159.283 155.803 159.475 155.882 159.673C155.901 159.727 155.929 159.779 155.963 159.826C156.057 159.873 156.131 159.952 156.17 160.05C156.21 160.147 156.213 160.255 156.179 160.355C156.145 160.454 156.076 160.537 155.984 160.59C155.893 160.642 155.786 160.659 155.683 160.638C154.725 160.382 153.742 160.228 152.752 160.178C152.992 160.869 153.242 161.561 153.501 162.252C153.522 162.334 153.519 162.421 153.492 162.502C153.464 162.582 153.414 162.653 153.346 162.705C153.279 162.757 153.198 162.788 153.113 162.794C153.028 162.8 152.943 162.781 152.869 162.739C151.618 161.904 150.307 161.162 148.946 160.52H148.82C148.763 160.535 148.703 160.538 148.645 160.528C148.587 160.518 148.532 160.497 148.483 160.464C148.434 160.432 148.392 160.39 148.36 160.341C148.328 160.291 148.306 160.236 148.297 160.178C148.558 160.051 148.811 159.844 149.036 159.646ZM156.801 157.553C156.596 156.978 156.352 156.418 156.071 155.876C155.413 155.948 154.754 156.056 154.105 156.173L154.592 157.075C155.347 157.151 156.091 157.311 156.81 157.553H156.801ZM154.817 159.601C154.691 159.276 154.583 158.951 154.466 158.699C154.348 158.446 154.186 158.149 154.042 157.878C153.371 157.85 152.7 157.896 152.04 158.013C152.178 158.452 152.322 158.891 152.472 159.33C153.263 159.358 154.05 159.448 154.826 159.601H154.817ZM152.247 161.35C152.109 160.965 151.973 160.584 151.841 160.205C151.353 160.212 150.865 160.245 150.38 160.304C151.029 160.638 151.652 160.98 152.256 161.35H152.247Z" fill="#E05E00"/>
<path d="M155.358 168.908C157.1 167.543 158.994 166.387 161.004 165.463C163.087 164.561 169.076 157.562 169.527 156.859C169.978 156.155 170.997 152.827 172.07 152.602C173.143 152.376 175.57 153.648 175.57 153.648C175.57 153.648 178.952 150.176 181.883 151.276C181.883 151.276 184.588 152.719 184.534 160.448C184.624 160.504 184.708 160.567 184.787 160.638C184.952 161.834 185.049 163.038 185.075 164.245C184.021 166.037 182.449 167.468 180.566 168.349C178.203 169.593 173.062 173.94 169.743 174.815C166.424 175.69 159.868 175.347 157.667 174.5C156.97 174.264 156.352 173.839 155.884 173.272C155.416 172.705 155.115 172.018 155.016 171.289C154.841 170.48 154.963 169.635 155.358 168.908Z" fill="#E05E00"/>
<path d="M174.857 153.351C174.857 153.351 178.826 150.077 181.847 151.276C184.868 152.476 184.489 159.393 184.489 159.393C184.489 159.393 184.489 163.352 179.682 165.706C174.875 168.06 175.687 170.071 169.419 172.02C163.151 173.968 156.495 172.407 155.277 170.513C154.06 168.619 157.983 166.969 158.254 166.725C158.524 166.482 164.152 163.028 165.424 161.314C166.695 159.601 168.968 156.615 169.771 155.136C170.573 153.657 170.871 152.349 172.404 152.431C173.293 152.495 174.145 152.814 174.857 153.351Z" fill="#FFC019"/>
<path d="M163.241 163.1C164.064 162.928 164.9 162.825 165.739 162.793C165.571 162.294 165.409 161.792 165.252 161.287C165.465 161.069 165.667 160.84 165.857 160.602L165.947 160.638C166.557 160.524 167.175 160.467 167.796 160.466L167.264 159.492C167.212 159.409 167.193 159.309 167.209 159.213C167.212 159.141 167.237 159.072 167.281 159.016C167.324 158.959 167.384 158.918 167.453 158.897C167.523 158.863 167.601 158.847 167.678 158.852C168.391 158.717 169.103 158.599 169.816 158.509C169.593 158.142 169.356 157.788 169.103 157.445C168.779 156.994 169.518 156.543 169.843 157.012C170.17 157.463 170.472 157.933 170.745 158.419C172.021 158.293 173.309 158.373 174.56 158.653C175.101 158.78 174.866 159.609 174.334 159.483C173.3 159.246 172.236 159.164 171.178 159.24C171.517 159.941 171.801 160.667 172.025 161.413C172.449 161.666 172.025 162.315 171.538 162.126C170.809 161.797 170.038 161.566 169.248 161.44C169.44 161.819 169.626 162.198 169.807 162.577C169.908 162.764 169.998 162.956 170.077 163.154C170.097 163.209 170.124 163.26 170.159 163.307C170.253 163.354 170.326 163.433 170.366 163.531C170.406 163.628 170.409 163.736 170.375 163.836C170.341 163.935 170.272 164.019 170.18 164.071C170.089 164.123 169.982 164.14 169.879 164.119C168.921 163.863 167.938 163.709 166.948 163.659C167.188 164.35 167.438 165.042 167.696 165.733C167.718 165.816 167.715 165.902 167.687 165.983C167.66 166.063 167.609 166.134 167.542 166.186C167.475 166.238 167.394 166.269 167.309 166.275C167.224 166.281 167.139 166.262 167.065 166.22C165.814 165.385 164.503 164.643 163.142 164.002H163.016C162.959 164.016 162.899 164.019 162.841 164.009C162.783 163.999 162.728 163.978 162.679 163.945C162.629 163.913 162.587 163.871 162.555 163.822C162.523 163.772 162.502 163.717 162.493 163.659C162.745 163.506 162.989 163.343 163.241 163.1ZM171.006 161.007C170.801 160.432 170.557 159.872 170.276 159.33C169.617 159.402 168.959 159.51 168.31 159.627L168.797 160.529C169.543 160.607 170.278 160.767 170.988 161.007H171.006ZM169.022 163.055C168.896 162.73 168.788 162.405 168.67 162.153C168.553 161.9 168.391 161.603 168.247 161.332C167.576 161.305 166.905 161.35 166.244 161.467C166.383 161.906 166.527 162.345 166.677 162.784C167.462 162.813 168.243 162.903 169.013 163.055H169.022ZM166.452 164.804C166.314 164.419 166.178 164.038 166.046 163.659C165.558 163.666 165.07 163.699 164.585 163.758C165.207 164.083 165.83 164.435 166.443 164.804H166.452Z" fill="#E05E00"/>
<path d="M180.602 65.7595C179.7 67.7166 156.792 96.5859 152.716 104.45C148.639 112.315 155.422 149.941 155.422 149.941C155.422 149.941 163.593 153.549 169.942 149.599C169.942 149.599 170.294 118.475 172.17 116.328C174.046 114.182 196.719 95.8283 199.064 92.0945C201.409 88.3607 192.597 67.3288 192.597 67.3288" fill="#6676FF"/>
<path d="M193.688 70.9993C192.787 72.9564 169.879 101.826 165.802 109.69C161.726 117.555 168.508 155.181 168.508 155.181C168.508 155.181 176.679 158.789 183.028 154.838C183.028 154.838 183.38 123.714 185.256 121.568C187.132 119.421 210.13 101.276 212.096 97.3343C218.184 85.1679 211.636 69.4661 211.636 69.4661" fill="#6676FF"/>
<path d="M181.892 55.3336C181.477 50.6438 180.359 46.0532 179.953 41.3724C179.051 30.8114 185.22 24.2366 194.735 22.5952C200.105 25.5724 205.007 29.3256 209.282 33.7335C213.611 38.6037 213.314 58.869 213.314 58.869C212.412 64.4697 212.962 68.7897 212.691 71.775C205.567 79.0442 192.552 75.3825 183.831 70.1245C182.289 65.3445 182.334 60.321 181.892 55.3336Z" fill="#8FDB5E"/>
<path d="M196.268 13.1885H197.242C197.395 13.1885 197.542 13.2493 197.65 13.3575C197.759 13.4658 197.819 13.6126 197.819 13.7657C197.819 13.9188 197.759 14.0656 197.65 14.1738C197.542 14.2821 197.395 14.3429 197.242 14.3429H196.268C196.115 14.3429 195.968 14.2821 195.86 14.1738C195.752 14.0656 195.691 13.9188 195.691 13.7657C195.691 13.6126 195.752 13.4658 195.86 13.3575C195.968 13.2493 196.115 13.1885 196.268 13.1885Z" fill="#1C5028"/>
<path d="M187.989 18.1399C189.189 19.2458 190.671 19.9992 192.272 20.3174C193.872 20.6357 195.53 20.5063 197.062 19.9437C197.765 19.7002 198.072 20.8456 197.368 21.062C195.638 21.6771 193.771 21.8056 191.973 21.4334C190.174 21.0613 188.512 20.2029 187.168 18.9516C186.618 18.4646 187.439 17.6529 187.989 18.1399Z" fill="#1C5028"/>
<path d="M183.849 10.6722C183.849 10.6722 184.886 24.9671 188.494 25.6525C192.101 26.3379 196.124 24.453 197.377 22.6492C198.631 20.8455 201.301 11.8266 200.011 10.1762C198.721 8.52573 185.869 8.05675 183.849 10.6722Z" fill="#FFB92C"/>
<path d="M198.189 20.6382L198.73 27.6909C198.73 27.6909 196.557 29.4947 190.262 27.3933L189.36 23.3078" fill="#FFB92C"/>
<path d="M181.495 5.62173C182.297 5.30414 183.16 5.16861 184.02 5.2249C184.304 3.99191 184.993 2.8898 185.977 2.09536C186.858 1.45204 187.9 1.06517 188.987 0.977613C190.075 0.89006 191.165 1.10525 192.137 1.59933C192.481 1.78295 192.799 2.01031 193.084 2.27574C193.629 1.7705 194.275 1.38634 194.979 1.14852C195.683 0.910692 196.43 0.824584 197.17 0.895855C198.017 0.973425 198.825 1.29253 199.496 1.81529C200.167 2.33805 200.675 3.04251 200.958 3.84502C201.104 4.28961 201.165 4.7577 201.138 5.2249C202 5.27433 202.826 5.58581 203.507 6.11768C204.187 6.64956 204.688 7.37645 204.944 8.20112C205.146 8.8149 205.203 9.46683 205.113 10.1065C205.022 10.7461 204.785 11.3563 204.421 11.8898C204.919 12.3963 205.262 13.0354 205.407 13.7309C205.553 14.4265 205.495 15.1492 205.242 15.813C204.977 16.5043 204.531 17.1114 203.95 17.5701C203.369 18.0289 202.675 18.3223 201.941 18.4195C202.172 19.0991 202.212 19.8289 202.058 20.5299C201.309 22.2254 199.262 22.9379 197.359 23.3708C197.278 22.4689 197.188 21.567 197.134 20.6652C197.123 20.5816 197.102 20.4997 197.071 20.4216C197.712 19.8517 198.257 19.1816 198.685 18.4375C199.289 17.4545 199.722 16.0565 198.685 15.1637C197.648 14.2708 196.205 14.8029 195.501 15.8762C195.301 15.4126 195.069 14.9636 194.807 14.5323C193.905 12.2416 191.515 11.998 189.269 11.98C185.869 13.7838 180.891 15.0735 179.511 10.7444C178.889 8.80538 179.475 6.46048 181.495 5.62173Z" fill="#1C5028"/>
<path d="M194.807 14.5325C194.807 14.5325 195.366 18.7443 194.464 19.5199C193.562 20.2955 191.109 20.6112 189.36 20.4849C187.61 20.3586 185.932 20.548 185.346 20.4849C185.346 20.4849 186.573 24.8681 187.998 26.0766C189.423 27.2851 193.229 25.9774 194.14 25.4092C195.051 24.841 196.43 20.8457 196.43 20.8457L196.268 14.6678L194.807 14.5325Z" fill="#1C5028"/>
<path d="M173.162 135.34L170.032 137.973L170.456 217.979L167.678 219.783L163.854 217.393L160.03 135.322C163.539 135.304 169.68 135.484 173.162 135.34Z" fill="#F2F2F2"/>
<path d="M82.1345 77.1772V84.9064H86.8784L82.1345 77.1772Z" fill="#D3514A"/>
<path d="M214.089 113.099V106.516L209.904 111.774L214.089 113.099Z" fill="#D3514A"/>
<path d="M148.062 65.9398L205.278 98.6331C205.278 98.6331 223.667 110.89 207.325 125.194C190.983 139.497 168.544 139.497 154.195 133.365C139.846 127.232 88.7995 96.6038 88.7995 96.6038C88.7995 96.6038 69.2556 81.9211 96.9705 65.9398C124.685 49.9584 148.062 65.9398 148.062 65.9398Z" fill="#D3514A"/>
<path d="M148.062 59.6265L205.278 92.3198C205.278 92.3198 223.667 104.576 207.316 118.88C190.965 133.184 168.535 133.184 154.186 127.051C139.837 120.919 88.7993 90.2906 88.7993 90.2906C88.7993 90.2906 69.2555 75.6079 96.9704 59.6265C124.685 43.6451 148.062 59.6265 148.062 59.6265Z" fill="#F1756B"/>
<path opacity="0.48" d="M23.7558 143.222L30.9709 133.193L40.4226 129.883L54.8528 136.269L77.3999 150.401L59.245 162.955C47.5475 156.2 35.2909 150.32 23.7558 143.222Z" fill="url(#paint2_linear)"/>
<path d="M60.4263 60.6187C58.1086 60.4855 55.7947 60.9383 53.6982 61.9355C51.5515 63.1521 49.8795 65.0593 48.9543 67.3468C47.9262 69.5203 47.4662 72.6228 45.3468 74.0298C44.507 74.4777 43.7794 75.1098 43.2183 75.8786C42.3164 77.2946 41.7663 79.4862 42.5599 81.0374C43.5159 82.9494 47.4932 84.1218 49.315 83.743" fill="#8FDB5E"/>
<path d="M62.2302 60.8623C62.9079 60.9283 63.5801 61.0428 64.2414 61.205C68.6516 62.5849 72.5748 66.2556 73.6841 70.6928C74.3609 73.3529 74.3887 76.1367 73.7653 78.8098C73.2512 80.9563 71.9615 84.6811 69.3551 84.8434C65.8107 85.0599 64.6653 81.7409 63.5379 79.0172C62.4106 76.2935 61.2562 73.2993 58.4062 72.226C57.0154 71.6961 55.4999 71.5845 54.0465 71.905C52.593 72.2255 51.2651 72.9641 50.2261 74.0298L62.2302 60.8623Z" fill="#1E8C0E"/>
<path d="M45.996 75.2565C48.1334 72.4878 49.9102 69.4664 51.9845 66.6436C53.2111 65.0382 54.4647 62.9639 56.1512 61.611C61.0755 59.221 67.2804 61.4126 70.915 65.6064C70.41 65.7597 69.7246 65.7868 69.3367 65.9311C67.151 66.771 65.2101 68.1445 63.6909 69.9264C61.5084 72.3435 59.8128 75.3377 57.8828 77.854C54.7533 82.0117 50.5956 85.4388 45.2564 82.9496C41.8022 81.3533 44.4988 77.2136 45.996 75.2565Z" fill="#8FDB5E"/>
<path d="M28.6167 39.6135C28.6167 39.6135 17.5145 38.7116 17.722 56.2984C17.9294 73.8851 34.5241 62.332 30.8805 51.7258" fill="#1E8C0E"/>
<path d="M30.2223 56.921C30.3395 51.5097 24.351 47.6496 19.2734 47.0003C20.0761 43.9249 23.1876 39.0006 29.3114 39.1539C36.9143 39.3523 42.6052 47.0724 43.8858 56.1724C45.1665 65.2724 38.2941 71.0355 38.2941 71.0355L34.6235 74.165C27.8774 71.4955 30.3846 61.7641 30.2223 56.921Z" fill="#8FDB5E"/>
<path d="M-9.91821e-05 69.4571C0.161097 66.1287 1.0378 62.8742 2.57028 59.9152C3.27439 58.5001 4.28895 57.2623 5.53825 56.2941C6.78756 55.3259 8.23935 54.6523 9.78535 54.3235L16.0354 66.3636C16.0354 66.3636 6.71895 50.0756 10.5249 62.6208C14.3309 75.166 1.78562 89.2264 0.0720387 70.5213C-0.000112534 70.1516 -9.91821e-05 69.8088 -9.91821e-05 69.4571Z" fill="#1E8C0E"/>
<path d="M44.1923 100.798C44.1923 100.798 52.5437 106.209 50.2259 118.944C49.4068 123.349 48.1655 127.664 46.5191 131.831C44.9047 135.962 43.7143 141.31 39.5385 143.637C35.6604 145.811 29.6178 146.208 25.7307 143.818C22.1231 141.635 20.8695 136.666 19.5528 132.995C17.9844 128.445 16.908 123.741 16.3421 118.962C12.3648 88.2073 44.1923 100.798 44.1923 100.798Z" fill="#6676FF"/>
<path d="M32.9008 107.066C26.1715 107.066 20.7163 105.092 20.7163 102.656C20.7163 100.22 26.1715 98.2456 32.9008 98.2456C39.6301 98.2456 45.0852 100.22 45.0852 102.656C45.0852 105.092 39.6301 107.066 32.9008 107.066Z" fill="#34323D"/>
<path d="M31.9178 79.1795C33.6223 75.0669 36.7969 71.6217 37.8071 67.2205C38.4369 64.2369 38.1819 61.1344 37.0732 58.2938C35.9645 55.4532 34.0504 52.9981 31.566 51.2301C30.6641 50.5537 31.566 48.9934 32.4679 49.6698C40.2602 55.3246 41.7663 65.0018 37.2208 73.218C35.8139 75.7703 33.974 78.2145 33.1172 81.0283C31.9989 84.699 33.2435 87.3415 34.9661 90.0923C34.9661 87.3054 35.9131 84.3382 37.6718 82.7058C39.692 80.8299 42.6862 80.5143 45.1935 79.6665C50.0456 78.0251 54.3115 75.2563 55.1142 69.845C55.2855 68.6996 57.0262 69.1866 56.8548 70.323C56.1784 74.7512 53.2473 77.9078 49.3602 79.919C47.0514 81.1005 44.5622 81.6055 42.1451 82.4353C41.0757 82.8472 40.1017 83.4733 39.2828 84.2751C38.464 85.0769 37.8176 86.0375 37.3832 87.098C36.2378 89.7495 37.0134 91.6074 37.6628 94.1417C38.5015 97.4787 39.8363 100.347 37.5365 103.503C36.8601 104.405 35.2998 103.503 35.9762 102.601C39.6289 97.5689 33.7937 92.7709 31.8276 88.4418C31.1772 86.9819 30.8486 85.399 30.8641 83.8008C30.8797 82.2026 31.2391 80.6265 31.9178 79.1795Z" fill="#1E8C0E"/>
<path d="M9.44267 68.1315C17.1357 66.7787 22.3847 72.7401 21.9338 80.1897C21.7721 82.0594 21.4247 83.9084 20.8966 85.7092C20.5539 87.017 19.652 89.2085 19.8865 90.4982C20.1489 91.6475 20.6866 92.7158 21.4533 93.6112C22.2199 94.5067 23.1926 95.2026 24.2877 95.639C27.6247 97.2173 29.7802 99.1112 30.7813 102.773C30.8446 103.004 30.8137 103.25 30.6953 103.458C30.5769 103.666 30.3808 103.819 30.1499 103.882C29.9191 103.946 29.6726 103.915 29.4645 103.796C29.2565 103.678 29.104 103.482 29.0406 103.251C27.2369 96.7302 18.1458 97.6682 18.0827 90.4892C18.0827 86.9809 19.8865 83.689 20.13 80.1807C20.5088 74.0389 16.5225 68.6997 9.92067 69.8541C8.7843 70.0706 8.29728 68.3299 9.44267 68.1315Z" fill="#1E8C0E"/>
<path d="M2.55237 59.9241C5.53761 54.4226 10.9579 53.1329 16.2791 54.7653C17.0142 55.0623 17.7284 55.4088 18.4165 55.8025C31.7915 65.7232 22.2946 88.0719 20.2203 87.9006C13.4021 87.3414 14.1145 83.328 11.8328 72.1176C11.4428 69.5891 10.1497 67.2876 8.19298 65.6393C6.23628 63.991 3.74856 63.1077 1.19055 63.1529C1.54838 62.0386 2.00409 60.9581 2.55237 59.9241Z" fill="#8FDB5E"/>
<path d="M5.49251 56.2716C7.72259 55.9212 10.0065 56.2561 12.0421 57.232C14.0777 58.2079 15.7691 59.7789 16.8923 61.737C21.7805 69.9171 20.6532 79.441 20.0038 88.4599C19.9227 89.6053 18.1189 89.6143 18.2001 88.4599C18.669 81.9393 19.589 75.4908 17.8213 69.0784C16.9194 65.9398 15.9093 62.4405 13.393 60.1948C12.0427 58.9895 10.3679 58.2076 8.57685 57.9463C6.78581 57.6849 4.95744 57.9556 3.31896 58.7247C3.55345 58.4181 3.77893 58.1115 4.0044 57.8229C4.50946 57.3178 5.00549 56.7947 5.49251 56.2716Z" fill="#1E8C0E"/>
<path opacity="0.48" d="M175.209 112.125C175.784 111.329 176.44 110.595 177.166 109.934C177.666 109.564 178.187 109.223 178.726 108.914C179.509 108.655 180.226 108.225 180.823 107.656C181.42 107.087 181.884 106.392 182.18 105.623L187.258 107.868L201.688 116.887L190.072 124.923C184.471 121.703 178.681 118.79 173.044 115.633C173.682 114.415 174.406 113.242 175.209 112.125Z" fill="url(#paint3_linear)"/>
<path opacity="0.48" d="M154.457 94.6018C155.032 93.8061 155.688 93.0717 156.414 92.4102C156.914 92.0402 157.435 91.6999 157.974 91.3911C158.754 91.1355 159.468 90.7113 160.065 90.1486C160.662 89.5858 161.127 88.8984 161.429 88.1353L166.506 90.3809L180.936 99.3998L162.502 112.297C156.901 109.077 146.502 103.81 140.857 100.653C141.515 99.4359 153.645 95.7021 154.457 94.6018Z" fill="url(#paint4_linear)"/>
<path d="M152.022 109.907L178.934 94.232L143.237 73.7141L116.379 88.2254" fill="#6676FF"/>
<path opacity="0.38" d="M152.022 109.907L178.934 94.232L143.237 73.7141L116.379 88.2254" fill="black"/>
<path d="M145.059 78.9808C145.059 78.9808 152.121 110.294 152.022 109.906C151.922 109.519 117.182 90.8496 116.947 90.1822C116.713 89.5148 107.757 57.7144 107.757 57.7144L145.059 78.9808Z" fill="#6676FF"/>
<path d="M175.867 80.1626L171.421 81.0645C171.421 81.0645 166.199 82.1467 166.298 82.8051C166.397 83.4635 171.421 83.4545 171.421 83.4545C171.421 83.4545 164.206 85.8896 163.935 86.7824C163.665 87.6753 165.27 87.6843 165.27 87.6843C165.27 87.6843 164.134 88.956 164.927 89.912C165.721 90.868 166.866 89.912 166.866 89.912C166.866 89.912 165.063 91.2017 166.641 91.7157C168.219 92.2298 171.43 89.5873 171.43 89.5873C171.522 90.272 171.839 90.9066 172.332 91.3911C173.071 91.9592 181.495 85.4657 182.785 83.5266" fill="#FFB92C"/>
<path d="M200.498 56.7946C200.498 56.7946 176.454 77.3035 175.885 78.981C175.317 80.6585 181.279 83.9774 185.048 84.8793C186.933 85.3212 189.63 83.7159 191.235 82.9493C194.682 81.2761 197.998 79.3466 201.156 77.1772C204.5 74.9847 207.618 72.4651 210.464 69.6555C213.737 66.3185 215.235 63.0357 215.099 58.2376C214.892 50.8783 214.396 40.7681 209.922 34.5542C209.922 34.5542 206.513 29.8463 202.446 33.4719C202.428 33.4719 196.097 39.1087 200.498 56.7946Z" fill="#008404"/>
<path d="M155.954 64.7131C155.602 64.7131 146.187 68.1403 146.187 68.1403L138.178 73.5516C138.317 73.7501 138.498 73.9153 138.709 74.0353C138.919 74.1554 139.154 74.2274 139.395 74.2461C139.395 74.2461 138.566 74.9676 139.323 75.4997C139.528 75.6513 139.776 75.7331 140.031 75.7331C140.286 75.7331 140.534 75.6513 140.739 75.4997C140.956 75.7724 141.23 75.9944 141.541 76.1502C141.853 76.306 142.195 76.3918 142.543 76.4016C143.598 76.3294 149.208 72.1356 149.704 72.6948C150.2 73.254 146.998 74.8503 147.72 75.8514C148.441 76.8525 151.327 75.1028 152.319 74.2551C153.311 73.4073 158.155 68.8979 158.155 68.8979" fill="#FFB92C"/>
<path d="M180.765 33.4719C180.765 33.4719 175.128 50.6077 173.153 52.5107C171.178 54.4137 153.311 63.8654 153.311 63.8654C153.311 63.8654 153.131 70.5574 159.453 72.6678C159.453 72.6678 177.031 68.934 182.749 60.6637" fill="#008404"/>
<path d="M178.239 116.31C173.861 116.31 170.312 114.4 170.312 112.044C170.312 109.688 173.861 107.778 178.239 107.778C182.617 107.778 186.167 109.688 186.167 112.044C186.167 114.4 182.617 116.31 178.239 116.31Z" fill="white"/>
<path d="M186.167 112.044L187.619 92.2839L168.22 92.7619L170.312 112.044" fill="white"/>
<path d="M177.897 97.7765C172.527 97.7765 168.175 95.3174 168.175 92.284C168.175 89.2506 172.527 86.7915 177.897 86.7915C183.266 86.7915 187.619 89.2506 187.619 92.284C187.619 95.3174 183.266 97.7765 177.897 97.7765Z" fill="#CF6938"/>
<path d="M185.454 89.6145V92.3202C185.454 92.3202 184.633 95.9277 177.752 95.9277C170.871 95.9277 170.32 91.9323 170.32 91.9323V89.9302" fill="#FC8754"/>
<path d="M177.879 94.3131C173.7 94.3131 170.312 92.3427 170.312 89.9119C170.312 87.4812 173.7 85.5107 177.879 85.5107C182.058 85.5107 185.446 87.4812 185.446 89.9119C185.446 92.3427 182.058 94.3131 177.879 94.3131Z" fill="#CF6938"/>
<path d="M177.752 93.1857C174.251 93.1857 171.412 91.5866 171.412 89.6142C171.412 87.6417 174.251 86.0427 177.752 86.0427C181.254 86.0427 184.093 87.6417 184.093 89.6142C184.093 91.5866 181.254 93.1857 177.752 93.1857Z" fill="#FC8754"/>
<defs>
<linearGradient id="paint0_linear" x1="196.006" y1="229.244" x2="141.731" y2="166.265" gradientUnits="userSpaceOnUse">
<stop offset="0.01" stop-color="#2E3192" stop-opacity="0"/>
<stop offset="1" stop-color="#0071BC"/>
</linearGradient>
<linearGradient id="paint1_linear" x1="-9919.01" y1="19253.5" x2="-14219.9" y2="11828.7" gradientUnits="userSpaceOnUse">
<stop offset="0.01" stop-color="#2E3192" stop-opacity="0"/>
<stop offset="1" stop-color="#0071BC"/>
</linearGradient>
<linearGradient id="paint2_linear" x1="-14843.2" y1="6916.94" x2="-15967.8" y2="5389.3" gradientUnits="userSpaceOnUse">
<stop offset="0.01" stop-color="#2E3192" stop-opacity="0"/>
<stop offset="1" stop-color="#0071BC"/>
</linearGradient>
<linearGradient id="paint3_linear" x1="196.268" y1="123.768" x2="176.03" y2="106.822" gradientUnits="userSpaceOnUse">
<stop offset="0.01" stop-color="#2E3192" stop-opacity="0"/>
<stop offset="1" stop-color="#9E005D"/>
</linearGradient>
<linearGradient id="paint4_linear" x1="-6337.23" y1="3655.82" x2="-7004.84" y2="2728.7" gradientUnits="userSpaceOnUse">
<stop offset="0.01" stop-color="#2E3192" stop-opacity="0"/>
<stop offset="1" stop-color="#9E005D"/>
</linearGradient>
</defs>
</svg>
