<svg width="40" height="40" viewBox="0 0 40 40" fill="none" xmlns="http://www.w3.org/2000/svg">
<path d="M10.0514 38.2657C10.0514 38.2657 34.2857 33.2657 34.2857 26.3629C34.2857 26.3629 35.2371 20.9829 16.5743 15.6029C16.5743 15.6029 25.5743 22.0314 25.5743 26.9343C25.5743 31.8371 10.0514 38.2657 10.0514 38.2657Z" fill="#414241"/>
<path d="M10.0514 38.2657C10.0514 38.2657 27.8571 32.0771 26.8114 24.6971C26.8114 24.6971 26.44 21.8657 24.2514 18.2229C22.1571 17.3657 19.6286 16.4857 16.5743 15.6029C16.5743 15.6029 25.5743 22.0314 25.5743 26.9343C25.5743 31.8371 10.0514 38.2657 10.0514 38.2657Z" fill="#090B0B"/>
<path d="M30.2057 1.38C30.2057 1.38 5.97143 6.38 5.97143 13.2829C5.97143 13.2829 5.02 18.6629 23.6829 24.0429C23.6829 24.0429 14.6829 17.6143 14.6829 12.7114C14.6829 7.80857 30.2057 1.38 30.2057 1.38Z" fill="#0060F0"/>
<path d="M27.6943 4.07429C33.6057 6.94286 37.6886 13.0029 37.6886 20C37.6886 29.7543 29.7543 37.6886 20 37.6886C19.4486 37.6886 18.9029 37.6629 18.3657 37.6114C16.54 38.1486 14.86 38.5914 13.5171 38.9229C15.5486 39.62 17.7314 40 20 40C31.0457 40 40 31.0457 40 20C40 12.7343 36.1257 6.37429 30.3314 2.87143C29.8171 3.09429 28.8686 3.51429 27.6943 4.07429Z" fill="#414241"/>
<path d="M9.53714 37.0486L9.50857 36.9514C9.52857 36.9429 10.5571 36.5143 12.0657 35.8057C6.28571 32.8914 2.31143 26.9029 2.31143 20C2.31143 10.2457 10.2457 2.31143 20 2.31143C20.2971 2.31143 20.5943 2.32 20.8857 2.33429C22.76 1.76 24.52 1.28286 25.98 0.911429C24.0943 0.32 22.0829 0 20 0C8.95428 0 0 8.95429 0 20C0 27.2114 3.81714 33.5286 9.53714 37.0486Z" fill="#0060F0"/>
<path d="M30.2057 1.38C30.2057 1.38 12.4 7.56857 13.4457 14.9486C13.4457 14.9486 13.8171 17.78 16.0057 21.4229C18.1 22.28 20.6286 23.16 23.6829 24.0429C23.6829 24.0429 14.6829 17.6143 14.6829 12.7114C14.6857 7.80572 30.2057 1.38 30.2057 1.38Z" fill="#002E6C"/>
</svg>
