<svg width="198" height="40" viewBox="0 0 198 40" fill="none" xmlns="http://www.w3.org/2000/svg">
<path d="M10.0514 38.2657C10.0514 38.2657 34.2857 33.2657 34.2857 26.3629C34.2857 26.3629 35.2371 20.9829 16.5743 15.6029C16.5743 15.6029 25.5743 22.0314 25.5743 26.9343C25.5743 31.8371 10.0514 38.2657 10.0514 38.2657Z" fill="#414241"/>
<path d="M10.0514 38.2657C10.0514 38.2657 27.8571 32.0771 26.8114 24.6971C26.8114 24.6971 26.44 21.8657 24.2514 18.2229C22.1571 17.3657 19.6286 16.4857 16.5743 15.6029C16.5743 15.6029 25.5743 22.0314 25.5743 26.9343C25.5743 31.8371 10.0514 38.2657 10.0514 38.2657Z" fill="#090B0B"/>
<path d="M30.2057 1.38C30.2057 1.38 5.97143 6.38 5.97143 13.2829C5.97143 13.2829 5.02 18.6629 23.6829 24.0429C23.6829 24.0429 14.6829 17.6143 14.6829 12.7114C14.6829 7.80857 30.2057 1.38 30.2057 1.38Z" fill="#0060F0"/>
<path d="M27.6943 4.07429C33.6057 6.94286 37.6886 13.0029 37.6886 20C37.6886 29.7543 29.7543 37.6886 20 37.6886C19.4486 37.6886 18.9029 37.6629 18.3657 37.6114C16.54 38.1486 14.86 38.5914 13.5171 38.9229C15.5486 39.62 17.7314 40 20 40C31.0457 40 40 31.0457 40 20C40 12.7343 36.1257 6.37429 30.3314 2.87143C29.8171 3.09429 28.8686 3.51429 27.6943 4.07429Z" fill="#414241"/>
<path d="M9.53714 37.0486L9.50857 36.9514C9.52857 36.9429 10.5571 36.5143 12.0657 35.8057C6.28571 32.8914 2.31143 26.9029 2.31143 20C2.31143 10.2457 10.2457 2.31143 20 2.31143C20.2971 2.31143 20.5943 2.32 20.8857 2.33429C22.76 1.76 24.52 1.28286 25.98 0.911429C24.0943 0.32 22.0829 0 20 0C8.95428 0 0 8.95429 0 20C0 27.2114 3.81714 33.5286 9.53714 37.0486Z" fill="#0060F0"/>
<path d="M30.2057 1.38C30.2057 1.38 12.4 7.56857 13.4457 14.9486C13.4457 14.9486 13.8171 17.78 16.0057 21.4229C18.1 22.28 20.6286 23.16 23.6829 24.0429C23.6829 24.0429 14.6829 17.6143 14.6829 12.7114C14.6857 7.80572 30.2057 1.38 30.2057 1.38Z" fill="#002E6C"/>
<path d="M58.2955 15.6023C58.1932 14.7386 57.7784 14.0682 57.0511 13.5909C56.3239 13.1136 55.4318 12.875 54.375 12.875C53.6023 12.875 52.9261 13 52.3466 13.25C51.7727 13.5 51.3239 13.8438 51 14.2813C50.6818 14.7188 50.5227 15.2159 50.5227 15.7727C50.5227 16.2386 50.6335 16.6392 50.8551 16.9744C51.0824 17.304 51.3722 17.5795 51.7244 17.8011C52.0767 18.017 52.446 18.196 52.8324 18.3381C53.2188 18.4744 53.5739 18.5852 53.8977 18.6705L55.6705 19.1477C56.125 19.267 56.6307 19.4318 57.1875 19.642C57.75 19.8523 58.2869 20.1392 58.7983 20.5028C59.3153 20.8608 59.7415 21.321 60.0767 21.8835C60.4119 22.446 60.5795 23.1364 60.5795 23.9545C60.5795 24.8977 60.3324 25.75 59.8381 26.5114C59.3494 27.2727 58.6335 27.8778 57.6903 28.3267C56.7528 28.7756 55.6136 29 54.2727 29C53.0227 29 51.9403 28.7983 51.0256 28.3949C50.1165 27.9915 49.4006 27.429 48.8778 26.7074C48.3608 25.9858 48.0682 25.1477 48 24.1932H50.1818C50.2386 24.8523 50.4602 25.3977 50.8466 25.8295C51.2386 26.2557 51.733 26.5739 52.3295 26.7841C52.9318 26.9886 53.5795 27.0909 54.2727 27.0909C55.0795 27.0909 55.804 26.9602 56.446 26.6989C57.0881 26.4318 57.5966 26.0625 57.9716 25.5909C58.3466 25.1136 58.5341 24.5568 58.5341 23.9205C58.5341 23.3409 58.3722 22.8693 58.0483 22.5057C57.7244 22.142 57.2983 21.8466 56.7699 21.6193C56.2415 21.392 55.6705 21.1932 55.0568 21.0227L52.9091 20.4091C51.5455 20.017 50.4659 19.4574 49.6705 18.7301C48.875 18.0028 48.4773 17.0511 48.4773 15.875C48.4773 14.8977 48.7415 14.0455 49.2699 13.3182C49.804 12.5852 50.5199 12.017 51.4176 11.6136C52.321 11.2045 53.3295 11 54.4432 11C55.5682 11 56.5682 11.2017 57.4432 11.6051C58.3182 12.0028 59.0114 12.5483 59.5227 13.2415C60.0398 13.9347 60.3125 14.7216 60.3409 15.6023H58.2955Z" fill="#090B0B"/>
<path d="M63.1001 13.1136V11.2386H76.1911V13.1136H70.7024V28.6932H68.5888V13.1136H63.1001Z" fill="#090B0B"/>
<path d="M79.4531 28.6932V11.2386H89.9872V13.1136H81.5668V19.0114H89.4418V20.8864H81.5668V26.8182H90.1236V28.6932H79.4531Z" fill="#090B0B"/>
<path d="M105.729 16.6932C105.541 16.1193 105.294 15.6051 104.987 15.1506C104.686 14.6903 104.325 14.2983 103.905 13.9744C103.49 13.6506 103.018 13.4034 102.49 13.233C101.962 13.0625 101.382 12.9773 100.751 12.9773C99.7173 12.9773 98.777 13.2443 97.9304 13.7784C97.0838 14.3125 96.4105 15.0994 95.9105 16.1392C95.4105 17.179 95.1605 18.4545 95.1605 19.9659C95.1605 21.4773 95.4134 22.7528 95.919 23.7926C96.4247 24.8324 97.1094 25.6193 97.973 26.1534C98.8366 26.6875 99.8082 26.9545 100.888 26.9545C101.888 26.9545 102.768 26.7415 103.53 26.3153C104.297 25.8835 104.893 25.2756 105.32 24.4915C105.751 23.7017 105.967 22.7727 105.967 21.7045L106.615 21.8409H101.365V19.9659H108.013V21.8409C108.013 23.2784 107.706 24.5284 107.092 25.5909C106.484 26.6534 105.643 27.4773 104.57 28.0625C103.501 28.642 102.274 28.9318 100.888 28.9318C99.3423 28.9318 97.9844 28.5682 96.8139 27.8409C95.6492 27.1136 94.7401 26.0795 94.0866 24.7386C93.4389 23.3977 93.1151 21.8068 93.1151 19.9659C93.1151 18.5852 93.2997 17.3438 93.669 16.2415C94.044 15.1335 94.5724 14.1903 95.2543 13.4119C95.9361 12.6335 96.7429 12.0369 97.6747 11.6222C98.6065 11.2074 99.6321 11 100.751 11C101.672 11 102.53 11.1392 103.325 11.4176C104.126 11.6903 104.839 12.0795 105.464 12.5852C106.095 13.0852 106.621 13.6847 107.041 14.3835C107.462 15.0767 107.751 15.8466 107.911 16.6932H105.729Z" fill="#090B0B"/>
<path d="M111.81 11.2386L116.991 25.9318H117.196L122.378 11.2386H124.594L118.185 28.6932H116.003L109.594 11.2386H111.81Z" fill="#090B0B"/>
<path d="M129.426 11.2386V28.6932H127.313V11.2386H129.426Z" fill="#090B0B"/>
<path d="M143.21 15.6023C143.107 14.7386 142.692 14.0682 141.965 13.5909C141.238 13.1136 140.346 12.875 139.289 12.875C138.516 12.875 137.84 13 137.261 13.25C136.687 13.5 136.238 13.8438 135.914 14.2813C135.596 14.7188 135.437 15.2159 135.437 15.7727C135.437 16.2386 135.548 16.6392 135.769 16.9744C135.996 17.304 136.286 17.5795 136.639 17.8011C136.991 18.017 137.36 18.196 137.746 18.3381C138.133 18.4744 138.488 18.5852 138.812 18.6705L140.585 19.1477C141.039 19.267 141.545 19.4318 142.102 19.642C142.664 19.8523 143.201 20.1392 143.712 20.5028C144.229 20.8608 144.656 21.321 144.991 21.8835C145.326 22.446 145.494 23.1364 145.494 23.9545C145.494 24.8977 145.246 25.75 144.752 26.5114C144.263 27.2727 143.548 27.8778 142.604 28.3267C141.667 28.7756 140.528 29 139.187 29C137.937 29 136.854 28.7983 135.94 28.3949C135.031 27.9915 134.315 27.429 133.792 26.7074C133.275 25.9858 132.982 25.1477 132.914 24.1932H135.096C135.153 24.8523 135.374 25.3977 135.761 25.8295C136.153 26.2557 136.647 26.5739 137.244 26.7841C137.846 26.9886 138.494 27.0909 139.187 27.0909C139.994 27.0909 140.718 26.9602 141.36 26.6989C142.002 26.4318 142.511 26.0625 142.886 25.5909C143.261 25.1136 143.448 24.5568 143.448 23.9205C143.448 23.3409 143.286 22.8693 142.962 22.5057C142.638 22.142 142.212 21.8466 141.684 21.6193C141.156 21.392 140.585 21.1932 139.971 21.0227L137.823 20.4091C136.46 20.017 135.38 19.4574 134.585 18.7301C133.789 18.0028 133.391 17.0511 133.391 15.875C133.391 14.8977 133.656 14.0455 134.184 13.3182C134.718 12.5852 135.434 12.017 136.332 11.6136C137.235 11.2045 138.244 11 139.357 11C140.482 11 141.482 11.2017 142.357 11.6051C143.232 12.0028 143.925 12.5483 144.437 13.2415C144.954 13.9347 145.227 14.7216 145.255 15.6023H143.21Z" fill="#090B0B"/>
<path d="M151.082 11.2386V28.6932H148.969V11.2386H151.082Z" fill="#090B0B"/>
<path d="M170.048 19.9659C170.048 21.8068 169.715 23.3977 169.05 24.7386C168.386 26.0795 167.474 27.1136 166.315 27.8409C165.156 28.5682 163.832 28.9318 162.343 28.9318C160.854 28.9318 159.531 28.5682 158.371 27.8409C157.212 27.1136 156.3 26.0795 155.636 24.7386C154.971 23.3977 154.638 21.8068 154.638 19.9659C154.638 18.125 154.971 16.5341 155.636 15.1932C156.3 13.8523 157.212 12.8182 158.371 12.0909C159.531 11.3636 160.854 11 162.343 11C163.832 11 165.156 11.3636 166.315 12.0909C167.474 12.8182 168.386 13.8523 169.05 15.1932C169.715 16.5341 170.048 18.125 170.048 19.9659ZM168.002 19.9659C168.002 18.4545 167.749 17.179 167.244 16.1392C166.744 15.0994 166.065 14.3125 165.207 13.7784C164.354 13.2443 163.4 12.9773 162.343 12.9773C161.286 12.9773 160.329 13.2443 159.471 13.7784C158.619 14.3125 157.94 15.0994 157.434 16.1392C156.934 17.179 156.684 18.4545 156.684 19.9659C156.684 21.4773 156.934 22.7528 157.434 23.7926C157.94 24.8324 158.619 25.6193 159.471 26.1534C160.329 26.6875 161.286 26.9545 162.343 26.9545C163.4 26.9545 164.354 26.6875 165.207 26.1534C166.065 25.6193 166.744 24.8324 167.244 23.7926C167.749 22.7528 168.002 21.4773 168.002 19.9659Z" fill="#090B0B"/>
<path d="M187.442 11.2386V28.6932H185.397L175.886 14.9886H175.715V28.6932H173.602V11.2386H175.647L185.192 24.9773H185.363V11.2386H187.442Z" fill="#090B0B"/>
<path d="M192.997 27.35V24.5825H194.4C194.512 24.5825 194.635 24.615 194.767 24.68C194.9 24.7425 195.012 24.84 195.105 24.9725C195.2 25.1025 195.247 25.2675 195.247 25.4675C195.247 25.67 195.199 25.8425 195.101 25.985C195.004 26.125 194.885 26.2313 194.745 26.3038C194.607 26.3763 194.477 26.4125 194.355 26.4125H193.342V25.9625H194.167C194.25 25.9625 194.339 25.9213 194.434 25.8388C194.531 25.7563 194.58 25.6325 194.58 25.4675C194.58 25.2975 194.531 25.1825 194.434 25.1225C194.339 25.0625 194.255 25.0325 194.182 25.0325H193.605V27.35H192.997ZM194.67 26.045L195.36 27.35H194.692L194.017 26.045H194.67ZM194.047 29C193.632 29 193.244 28.9225 192.881 28.7675C192.519 28.6125 192.2 28.3975 191.925 28.1225C191.65 27.8475 191.435 27.5288 191.28 27.1663C191.125 26.8038 191.047 26.415 191.047 26C191.047 25.585 191.125 25.1963 191.28 24.8338C191.435 24.4713 191.65 24.1525 191.925 23.8775C192.2 23.6025 192.519 23.3875 192.881 23.2325C193.244 23.0775 193.632 23 194.047 23C194.462 23 194.851 23.0775 195.214 23.2325C195.576 23.3875 195.895 23.6025 196.17 23.8775C196.445 24.1525 196.66 24.4713 196.815 24.8338C196.97 25.1963 197.047 25.585 197.047 26C197.047 26.415 196.97 26.8038 196.815 27.1663C196.66 27.5288 196.445 27.8475 196.17 28.1225C195.895 28.3975 195.576 28.6125 195.214 28.7675C194.851 28.9225 194.462 29 194.047 29ZM194.047 28.28C194.467 28.28 194.85 28.1775 195.195 27.9725C195.54 27.7675 195.815 27.4925 196.02 27.1475C196.225 26.8025 196.327 26.42 196.327 26C196.327 25.58 196.225 25.1975 196.02 24.8525C195.815 24.5075 195.54 24.2325 195.195 24.0275C194.85 23.8225 194.467 23.72 194.047 23.72C193.627 23.72 193.245 23.8225 192.9 24.0275C192.555 24.2325 192.28 24.5075 192.075 24.8525C191.87 25.1975 191.767 25.58 191.767 26C191.767 26.42 191.87 26.8025 192.075 27.1475C192.28 27.4925 192.555 27.7675 192.9 27.9725C193.245 28.1775 193.627 28.28 194.047 28.28Z" fill="black"/>
</svg>
